<?xml version="1.0" encoding="UTF-8" standalone="no"?>
<!-- Created with Inkscape (http://www.inkscape.org/) -->

<svg
   xmlns:dc="http://purl.org/dc/elements/1.1/"
   xmlns:cc="http://creativecommons.org/ns#"
   xmlns:rdf="http://www.w3.org/1999/02/22-rdf-syntax-ns#"
   xmlns:svg="http://www.w3.org/2000/svg"
   xmlns="http://www.w3.org/2000/svg"
   xmlns:sodipodi="http://sodipodi.sourceforge.net/DTD/sodipodi-0.dtd"
   xmlns:inkscape="http://www.inkscape.org/namespaces/inkscape"
   width="259.69232mm"
   height="295.15308mm"
   viewBox="0 0 259.69232 295.15308"
   version="1.1"
   id="svg8"
   inkscape:version="0.92.3 (2405546, 2018-03-11)"
   sodipodi:docname="Cartoon character 103.svg">
  <title
     id="title83">Cartoon character 103</title>
  <defs
     id="defs2" />
  <sodipodi:namedview
     id="base"
     pagecolor="#ffffff"
     bordercolor="#666666"
     borderopacity="1.0"
     inkscape:pageopacity="0.0"
     inkscape:pageshadow="2"
     inkscape:zoom="0.125"
     inkscape:cx="-3651.8589"
     inkscape:cy="710.2331"
     inkscape:document-units="mm"
     inkscape:current-layer="layer1"
     showgrid="false"
     fit-margin-top="0"
     fit-margin-left="0"
     fit-margin-right="0"
     fit-margin-bottom="0"
     inkscape:window-width="1600"
     inkscape:window-height="845"
     inkscape:window-x="0"
     inkscape:window-y="27"
     inkscape:window-maximized="1" />
  <metadata
     id="metadata5">
    <rdf:RDF>
      <cc:Work
         rdf:about="">
        <dc:format>image/svg+xml</dc:format>
        <dc:type
           rdf:resource="http://purl.org/dc/dcmitype/StillImage" />
        <dc:title>Cartoon character 103</dc:title>
        <dc:date>2022</dc:date>
        <dc:creator>
          <cc:Agent>
            <dc:title>Doodleguy</dc:title>
          </cc:Agent>
        </dc:creator>
        <dc:rights>
          <cc:Agent>
            <dc:title>public domain</dc:title>
          </cc:Agent>
        </dc:rights>
        <dc:description>www.redbubble.com/doodleguyart</dc:description>
        <dc:contributor>
          <cc:Agent>
            <dc:title>Doodleguy</dc:title>
          </cc:Agent>
        </dc:contributor>
        <cc:license
           rdf:resource="http://creativecommons.org/publicdomain/zero/1.0/" />
      </cc:Work>
      <cc:License
         rdf:about="http://creativecommons.org/publicdomain/zero/1.0/">
        <cc:permits
           rdf:resource="http://creativecommons.org/ns#Reproduction" />
        <cc:permits
           rdf:resource="http://creativecommons.org/ns#Distribution" />
        <cc:permits
           rdf:resource="http://creativecommons.org/ns#DerivativeWorks" />
      </cc:License>
    </rdf:RDF>
  </metadata>
  <g
     inkscape:groupmode="layer"
     id="layer2"
     inkscape:label="bund"
     transform="translate(-4.064378,-1.1337481)" />
  <g
     inkscape:label="Layer 1"
     inkscape:groupmode="layer"
     id="layer1"
     transform="translate(-4.064378,-1.1337481)">
    <g
       id="g231"
       transform="matrix(1.0460842,0,0,1.0460842,-0.18730342,-13.654127)"
       style="stroke-width:0.95594603">
      <path
         transform="matrix(0.26458333,0,0,0.26458333,3.5504575,0.67425846)"
         inkscape:connector-curvature="0"
         id="path154"
         d="m 142.22243,922.60988 c -1.63132,0.68721 -1.12707,2.93804 -0.81445,4.30762 2.26261,7.67064 5.7943,14.90814 9.40527,22.02148 2.57175,5.05476 5.78233,9.74457 8.47493,14.72705 5.4744,8.55675 11.5948,16.6909 18.27961,24.33594 2.12781,2.31953 3.66382,5.19618 6.0853,7.22803 2.41615,1.62386 5.60308,0.33569 7.56882,-1.43157 3.71816,-3.16456 7.38867,-6.4255 11.58743,-8.94587 1.96317,-1.50249 1.90694,-4.42934 1.32959,-6.59815 -0.82655,-2.4042 -3.63859,-3.15923 -5.70508,-4.15039 -0.80457,-0.41369 -2.14657,-0.43835 -2.24707,0.73291 -0.63303,2.58689 -0.45342,5.40102 -1.39453,7.88428 -0.90794,-1.51834 -0.37696,-3.5079 -0.56787,-5.20557 -0.0326,-2.18721 0.1005,-4.41517 -0.0152,-6.57764 -5.70825,-2.72119 -10.59342,-6.76217 -15.37931,-10.82888 -2.0916,-1.88375 -4.88145,-2.72286 -6.82479,-4.80002 -8.05637,-7.6052 -15.58774,-15.84337 -21.81874,-25.03179 -2.10704,-2.6559 -4.03189,-5.71028 -7.02988,-7.43891 -0.30008,-0.10333 -0.61097,-0.23285 -0.93408,-0.22852 z"
         style="opacity:1;vector-effect:none;fill:#0055d4;fill-opacity:1;stroke:none;stroke-width:2.04135871;stroke-linecap:round;stroke-linejoin:miter;stroke-miterlimit:4;stroke-dasharray:none;stroke-dashoffset:0;stroke-opacity:0" />
      <path
         transform="matrix(0.26458333,0,0,0.26458333,3.5504575,0.67425846)"
         inkscape:connector-curvature="0"
         id="path156"
         d="m 393.69025,483.759 c -2.62496,0.47549 -6.00956,0.27089 -7.86933,2.51285 -1.51889,4.05704 -2.26952,8.38111 -4.12592,12.33652 -3.51634,8.76852 -5.86822,18.14354 -11.22338,26.04501 -1.90571,3.77495 -3.3775,7.76452 -5.83284,11.25041 -4.79152,9.01294 -10.45998,17.50353 -16.00063,26.06403 -2.9591,5.07447 -6.56309,9.9625 -8.30063,15.6237 -0.29421,1.2661 1.39146,1.27235 1.95214,0.44539 11.97562,-9.0258 22.49768,-19.79179 33.72391,-29.70187 2.76973,-2.63034 5.87204,-5.07728 8.48981,-7.77755 -0.2649,-3.5545 -2.33487,-6.88685 -2.12754,-10.45745 0.19715,-1.02484 1.80897,-1.81567 2.0868,-0.41708 0.99508,2.27625 0.60217,5.39181 2.58467,7.13045 2.34303,0.68181 3.14827,-2.38571 3.56592,-4.06586 0.56721,-2.88032 0.94547,-6.24709 -0.96675,-8.7318 4.16982,-3.79573 3.30154,-9.95978 3.94562,-15.01019 0.47796,-8.0996 1.32728,-16.20045 1.57451,-24.30122 -0.0578,-0.76241 -0.81416,-1.02026 -1.47636,-0.94534 z"
         style="opacity:1;vector-effect:none;fill:#0055d4;fill-opacity:1;stroke:none;stroke-width:2.04135871;stroke-linecap:round;stroke-linejoin:miter;stroke-miterlimit:4;stroke-dasharray:none;stroke-dashoffset:0;stroke-opacity:0" />
      <path
         transform="matrix(0.26458333,0,0,0.26458333,3.5504575,0.67425846)"
         inkscape:connector-curvature="0"
         id="path158"
         d="m 457.37707,456.26974 c -7.16951,0.41446 -14.25422,2.13887 -20.96533,4.66016 -7.28757,3.30961 -12.95717,9.3424 -17.68596,15.65395 -3.73174,5.13636 -6.85323,10.96233 -7.51075,17.37271 -1.75845,11.90877 -2.52204,23.94645 -2.78425,35.97529 -2.87283,2.69881 -6.38265,4.84763 -8.67529,8.10302 -1.12657,2.44125 0.12773,5.16392 0.68066,7.59766 3.01295,9.37005 6.76742,18.49646 10.77218,27.48192 0.64909,1.02385 1.06855,2.92028 2.51444,3.01369 2.70767,-1.62601 4.58273,-4.33914 6.70929,-6.62501 6.72297,-7.67664 12.03925,-16.55796 19.40644,-23.65624 4.18647,-4.01464 10.15283,-4.96806 15.38367,-6.97804 7.91705,-2.67205 15.86161,-5.26727 23.78381,-7.9204 6.69179,-5.95862 14.09005,-11.40608 19.25927,-18.83545 2.564,-3.79094 3.66714,-8.59911 2.89893,-13.11133 -1.72602,-3.5326 -6.61498,-1.48348 -9.52832,-0.93945 -4.37125,1.32964 -8.93509,2.6774 -12.62402,5.47021 -3.39037,2.63667 -5.94974,6.2764 -9.62549,8.53223 -3.17923,1.44173 -6.29295,-1.06962 -8.58915,-3.07512 -0.99336,-1.02765 -2.43747,-1.90623 -3.07159,-3.10295 0.30651,-7.82888 0.12757,-15.81985 2.63787,-23.3432 1.49717,-5.61337 3.88995,-11.06743 4.41105,-16.89914 -0.0305,-2.66144 -0.47393,-5.46911 -1.81689,-7.79639 -1.30242,-1.60074 -3.71879,-1.4843 -5.58057,-1.57812 z"
         style="opacity:1;vector-effect:none;fill:#ffcc00;fill-opacity:1;stroke:none;stroke-width:2.04135871;stroke-linecap:round;stroke-linejoin:miter;stroke-miterlimit:4;stroke-dasharray:none;stroke-dashoffset:0;stroke-opacity:0" />
      <path
         transform="matrix(0.26458333,0,0,0.26458333,3.5504575,0.67425846)"
         inkscape:connector-curvature="0"
         id="path160"
         d="m 402.81066,481.72628 c -1.479,0.14458 -3.99658,-0.13367 -4.40771,1.79248 -1.79944,12.82431 -2.18946,25.79956 -3.53557,38.66875 -0.31496,2.71101 -1.24626,5.70171 0.36223,8.20625 0.30643,0.78414 1.44392,1.08899 1.71875,0.12207 1.66087,-4.66646 2.08244,-9.67779 3.076,-14.51261 1.82156,-10.87659 3.84136,-21.73534 5.1613,-32.68514 0.20653,-1.45744 -1.25491,-1.71065 -2.375,-1.5918 z"
         style="opacity:1;vector-effect:none;fill:#ffcc00;fill-opacity:1;stroke:none;stroke-width:2.04135871;stroke-linecap:round;stroke-linejoin:miter;stroke-miterlimit:4;stroke-dasharray:none;stroke-dashoffset:0;stroke-opacity:0" />
      <path
         transform="matrix(0.26458333,0,0,0.26458333,3.5504575,0.67425846)"
         inkscape:connector-curvature="0"
         id="path162"
         d="m 409.82141,480.95529 c -1.85639,0.17328 -2.13507,2.54153 -2.66944,3.92822 -2.5352,10.55915 -3.38026,21.43385 -5.13347,32.13233 -0.53718,4.54841 -1.85755,9.02385 -1.97346,13.60839 0.50542,1.83061 3.30703,1.955 4.01807,0.19824 1.19138,-4.38157 1.14857,-9.008 1.57478,-13.50973 0.7229,-9.336 1.27225,-18.76156 3.35637,-27.90649 0.43987,-2.48824 2.28346,-4.55532 2.41504,-7.09208 0.008,-0.87508 -0.727,-1.4898 -1.58789,-1.35888 z"
         style="opacity:1;vector-effect:none;fill:#ffcc00;fill-opacity:1;stroke:none;stroke-width:2.04135871;stroke-linecap:round;stroke-linejoin:miter;stroke-miterlimit:4;stroke-dasharray:none;stroke-dashoffset:0;stroke-opacity:0" />
      <path
         transform="matrix(0.26458333,0,0,0.26458333,3.5504575,0.67425846)"
         inkscape:connector-curvature="0"
         id="path164"
         d="m 482.26721,457.2087 c -4.1154,0.18861 -8.57951,0.46996 -12.08741,2.85157 -1.72848,1.70219 -1.92093,4.369 -2.68387,6.56412 -0.93402,3.98905 -1.98998,7.94315 -3.58026,11.72577 -0.75508,2.54852 -1.75029,5.12954 -1.86526,7.79653 0.25762,1.17431 1.90823,1.23376 2.33691,0.13281 3.08582,-4.50264 7.19017,-8.22428 10.84314,-12.26522 4.32288,-4.72236 8.98763,-9.17876 12.83948,-14.30509 0.9002,-1.02664 -0.22377,-2.22308 -1.35058,-2.23242 -1.46341,-0.28583 -2.96757,-0.27201 -4.45215,-0.26807 z"
         style="opacity:1;vector-effect:none;fill:#ffcc00;fill-opacity:1;stroke:none;stroke-width:2.04135871;stroke-linecap:round;stroke-linejoin:miter;stroke-miterlimit:4;stroke-dasharray:none;stroke-dashoffset:0;stroke-opacity:0" />
      <path
         transform="matrix(0.26458333,0,0,0.26458333,3.5504575,0.67425846)"
         inkscape:connector-curvature="0"
         id="path166"
         d="m 393.57873,538.17941 c -2.40105,0.46653 -3.9965,2.6801 -5.59619,4.3042 4.29976,13.04577 10.51095,25.3428 15.4541,38.13232 0.62641,1.08656 0.28433,3.19173 1.84131,3.50195 3.40467,-0.49265 6.21051,-4.41079 4.74214,-7.75565 -3.48315,-11.33474 -8.83529,-21.96861 -13.4922,-32.83751 -0.82364,-1.48736 -0.78313,-3.28813 -1.60297,-4.74717 -0.30543,-0.42143 -0.83018,-0.64773 -1.34619,-0.59814 z"
         style="opacity:1;vector-effect:none;fill:#ffcc00;fill-opacity:1;stroke:none;stroke-width:2.04135871;stroke-linecap:round;stroke-linejoin:miter;stroke-miterlimit:4;stroke-dasharray:none;stroke-dashoffset:0;stroke-opacity:0" />
      <path
         transform="matrix(0.26458333,0,0,0.26458333,3.5504575,0.67425846)"
         inkscape:connector-curvature="0"
         id="path168"
         d="m 222.55305,937.78031 c -1.88159,0.56502 -2.4343,2.99347 -3.47269,4.44911 -4.60838,9.39409 -8.45654,19.30112 -10.31244,29.62943 -0.31292,2.29151 -0.54314,4.65781 -0.5538,6.93642 9.76656,3.87573 20.05977,6.10675 30.05319,9.27636 7.01271,2.11357 14.38422,2.32605 21.52624,3.6746 3.33543,0.45914 5.7073,3.30852 6.37501,6.49378 1.53844,7.63549 0.33939,15.49939 0.0822,23.20949 -1.05809,17.346 -2.20703,34.7127 -2.45698,52.0863 1.73379,3.7211 6.01853,6.1339 6.62292,10.4078 0.15925,0.8837 -0.7757,1.2334 -1.2768,0.4516 -3.37107,-3.8108 -6.52887,-8.8188 -12.01138,-9.5872 -5.05838,-0.9865 -10.06317,-2.1733 -15.06275,-3.4117 -7.00048,-1.3131 -13.99446,-3.0487 -21.11617,-3.4711 -7.40272,0.3289 -15.75296,2.4084 -19.93571,9.1172 -3.929,6.488 -5.85939,14.2859 -5.31228,21.8561 0.83171,6.391 5.97156,11.8216 12.29585,13.0583 11.7229,2.7286 23.98052,2.2229 35.80329,0.4091 16.90875,-3.3382 34.26165,-2.6128 51.3564,-4.188 4.13766,-0.516 9.15322,-2.6609 9.62949,-7.386 -0.30277,-8.2393 -2.54423,-16.2765 -4.20012,-24.3206 -3.64557,-16.0467 -8.54764,-31.8622 -10.20634,-48.294 -1.38955,-10.5388 -1.94893,-21.21 -4.21966,-31.61132 -2.24833,-15.18291 -2.86879,-30.6153 -5.9051,-45.67795 -0.64403,-0.97269 -2.29177,0.11722 -3.22694,0.074 -5.33471,0.88327 -9.51386,5.15992 -15.04113,5.31286 -5.32642,0.43969 -11.02714,0.77885 -15.77609,-2.10919 -7.40891,-3.81312 -14.82978,-7.957 -20.48633,-14.21933 -0.9565,-0.75626 -1.86379,-2.0516 -3.17191,-2.16605 z"
         style="opacity:1;vector-effect:none;fill:#ffcc00;fill-opacity:1;stroke:none;stroke-width:2.04135871;stroke-linecap:round;stroke-linejoin:miter;stroke-miterlimit:4;stroke-dasharray:none;stroke-dashoffset:0;stroke-opacity:0" />
      <path
         transform="matrix(0.26458333,0,0,0.26458333,3.5504575,0.67425846)"
         inkscape:connector-curvature="0"
         id="path170"
         d="m 220.25012,985.80971 c -1.63083,0.39444 -2.36316,2.27002 -3.9142,2.94302 -5.7779,4.37152 -12.55384,7.4799 -17.67396,12.67617 -1.40588,1.4279 -2.21987,3.818 -0.61596,5.4283 3.99759,4.13 9.47596,6.412 13.8555,10.097 2.40833,2.3132 5.69159,2.9145 8.86961,3.3446 5.42659,0.9841 10.96993,1.2848 16.38467,2.2494 3.01924,1.0664 2.24935,4.9736 1.66694,7.3618 -3.09841,11.2822 -2.73916,23.0802 -3.93949,34.6296 -0.68048,1.7963 1.80814,1.5292 2.78769,2.1572 6.51022,2.1588 13.52185,2.1926 20.08832,3.9443 0.71838,0.7609 1.96005,0.6004 1.91416,-0.6222 1.63854,-14.8748 2.22044,-29.8575 2.93622,-44.8035 0.24857,-8.9867 0.91415,-18.0023 0.39284,-26.98506 -0.0358,-2.46406 -3.12841,-2.39905 -4.8431,-3.0229 -7.62853,-1.66904 -15.48324,-2.58722 -22.6853,-5.78531 -4.91927,-1.67915 -9.99604,-3.36242 -15.22394,-3.61242 z"
         style="opacity:1;vector-effect:none;fill:#ffcc00;fill-opacity:1;stroke:none;stroke-width:2.04135871;stroke-linecap:round;stroke-linejoin:miter;stroke-miterlimit:4;stroke-dasharray:none;stroke-dashoffset:0;stroke-opacity:0" />
      <path
         transform="matrix(0.26458333,0,0,0.26458333,3.5504575,0.67425846)"
         inkscape:connector-curvature="0"
         id="path172"
         d="m 197.51498,1049.9914 c -4.55812,0.2737 -8.38926,3.4774 -11.32683,6.7506 -5.43842,6.1938 -7.9864,14.4542 -7.96637,22.6162 0.0124,5.2127 -0.48665,10.717 1.43461,15.6684 2.44789,3.6126 6.04526,6.7828 10.28551,8.0441 1.09905,0.1208 3.44563,0.4208 3.01142,-1.4073 0.16158,-5.4691 -0.14756,-11.0728 1.84786,-16.2815 2.37317,-8.5494 8.47813,-16.1411 16.57972,-19.8494 5.66107,-2.3524 12.06612,-1.0529 17.92627,-2.4009 0.29912,-1.388 -1.53907,-2.3481 -2.31744,-3.298 -4.42061,-3.9956 -9.75644,-6.9922 -15.65443,-8.0943 -4.52567,-1.0566 -9.16199,-1.786 -13.82032,-1.7479 z"
         style="opacity:1;vector-effect:none;fill:#ffcc00;fill-opacity:1;stroke:none;stroke-width:2.04135871;stroke-linecap:round;stroke-linejoin:miter;stroke-miterlimit:4;stroke-dasharray:none;stroke-dashoffset:0;stroke-opacity:0" />
      <path
         transform="matrix(0.26458333,0,0,0.26458333,3.5504575,0.67425846)"
         inkscape:connector-curvature="0"
         id="path174"
         d="m 214.87325,984.21999 c -2.65686,0.14034 -5.26786,1.01256 -7.46093,2.52026 -0.77373,0.46971 -1.63725,0.40634 -2.4856,0.26489 -1.9507,0.10044 -3.59374,1.36615 -5.21533,2.32739 -3.18615,2.1449 -6.39769,4.32395 -9.14137,7.02852 -0.8402,0.83267 -1.80874,2.09448 -1.10302,3.30791 0.73261,1.51454 2.41676,2.52874 4.11035,2.29324 2.06977,0.068 3.75457,-1.4075 5.16431,-2.74124 4.78748,-4.2748 10.39628,-7.47765 15.35401,-11.53247 0.82085,-0.8005 1.99193,-1.54732 2.18603,-2.76025 -0.0153,-0.69452 -0.90853,-0.71305 -1.40845,-0.70825 z"
         style="opacity:1;vector-effect:none;fill:#ffcc00;fill-opacity:1;stroke:none;stroke-width:2.04135871;stroke-linecap:round;stroke-linejoin:miter;stroke-miterlimit:4;stroke-dasharray:none;stroke-dashoffset:0;stroke-opacity:0" />
      <path
         transform="matrix(0.26458333,0,0,0.26458333,3.5504575,0.67425846)"
         inkscape:connector-curvature="0"
         id="path176"
         d="m 217.93331,931.79176 c -1.42387,0.26748 -2.34407,1.56866 -3.28369,2.56031 -4.07124,4.98892 -7.30228,10.59804 -10.39643,16.22625 -2.46252,4.70171 -4.95122,9.45933 -6.41338,14.58429 -0.36686,1.70315 -0.74279,3.51639 -0.34571,5.24268 0.74663,1.68809 2.4167,2.73518 3.92063,3.6868 1.07647,0.61287 2.4868,1.27517 3.69949,0.67306 0.91928,-0.97005 0.9891,-2.4342 1.4716,-3.63181 3.08986,-9.43329 6.95,-18.598 10.85164,-27.72219 1.18633,-3.08855 2.18763,-6.40655 1.86328,-9.75025 -0.1144,-0.74441 -0.42654,-1.88274 -1.36743,-1.86914 z"
         style="opacity:1;vector-effect:none;fill:#ffcc00;fill-opacity:1;stroke:none;stroke-width:2.04135871;stroke-linecap:round;stroke-linejoin:miter;stroke-miterlimit:4;stroke-dasharray:none;stroke-dashoffset:0;stroke-opacity:0" />
      <path
         transform="matrix(0.26458333,0,0,0.26458333,3.5504575,0.67425846)"
         inkscape:connector-curvature="0"
         id="path178"
         d="m 265.65355,463.09004 c -4.44537,0.0357 -8.63245,1.78569 -12.81805,3.07978 -6.44923,2.12173 -12.50367,5.23925 -18.94956,7.35884 -4.76221,1.90323 -9.14218,4.70317 -13.14851,7.88297 -0.57351,0.64085 -1.75815,1.22582 -1.62103,2.21696 1.05126,1.59974 3.00743,2.29653 4.59846,3.23844 7.86215,4.00957 14.44674,10.10284 19.94915,16.93647 2.80281,3.24573 5.9501,6.21194 8.25068,9.85745 1.55673,2.11155 2.69392,4.55913 4.47777,6.48653 1.98954,0.0462 4.01498,-0.42904 6.00948,-0.62323 9.50292,-1.35464 18.97414,-3.06011 28.27296,-5.4573 4.01603,-0.86992 7.62352,-2.91204 11.00215,-5.1806 6.27416,-4.29938 12.47566,-8.88915 17.48984,-14.65563 0.81013,-0.92205 1.74951,-2.32361 0.79647,-3.49447 -2.68728,-4.22494 -6.34542,-7.72599 -9.86152,-11.25259 -4.72206,-4.64734 -10.25722,-8.67476 -16.68471,-10.5578 -4.54596,-1.36154 -8.92114,-3.30487 -13.62489,-4.11398 -4.66028,-0.87206 -9.38627,-1.6856 -14.13869,-1.72184 z"
         style="opacity:1;vector-effect:none;fill:#ffffff;fill-opacity:1;stroke:none;stroke-width:2.04135871;stroke-linecap:round;stroke-linejoin:miter;stroke-miterlimit:4;stroke-dasharray:none;stroke-dashoffset:0;stroke-opacity:0" />
      <path
         transform="matrix(0.26458333,0,0,0.26458333,3.5504575,0.67425846)"
         inkscape:connector-curvature="0"
         id="path180"
         d="m 213.38075,486.84041 c -2.17944,0.11712 -3.98871,1.59638 -5.75176,2.73835 -3.43614,2.60538 -6.80795,5.56825 -8.91436,9.38886 -1.00137,1.85692 0.42064,3.82574 1.1717,5.49004 1.97431,3.85594 6.30305,5.49438 10.12876,6.88691 7.72461,2.64615 15.53999,5.0498 23.43674,7.12809 3.96658,1.00038 8.04268,1.65455 12.14474,1.45766 1.63787,-0.12241 3.37739,0.22185 4.95735,-0.29231 1.15092,-0.64664 0.75946,-2.23841 0.64369,-3.31186 -0.9186,-3.29324 -3.52117,-5.73533 -5.62896,-8.30528 -4.43068,-4.87065 -9.08364,-9.55166 -13.95194,-13.98475 -4.36998,-3.59252 -9.8483,-5.49258 -15.25495,-6.88917 -0.97833,-0.21236 -1.97903,-0.32937 -2.98101,-0.30654 z"
         style="opacity:1;vector-effect:none;fill:#333333;fill-opacity:1;stroke:none;stroke-width:2.04135871;stroke-linecap:round;stroke-linejoin:miter;stroke-miterlimit:4;stroke-dasharray:none;stroke-dashoffset:0;stroke-opacity:0" />
      <path
         transform="matrix(0.26458333,0,0,0.26458333,3.5504575,0.67425846)"
         inkscape:connector-curvature="0"
         id="path182"
         d="m 621.01017,53.685395 c -4.10133,1.715526 -6.34574,6.121334 -9.15741,9.354585 -12.34095,17.449924 -24.59558,34.981907 -38.05415,51.59901 -12.29455,16.4107 -24.52008,32.88233 -35.96061,49.90143 -18.47962,26.04079 -38.98672,50.59121 -56.90009,77.04732 -1.47303,2.02372 -4.30608,5.04101 -1.70312,7.39453 7.66621,7.33449 17.01926,12.63563 25.6085,18.7977 18.1584,12.00541 35.56149,25.14856 54.29824,36.26698 16.81512,10.45175 33.04232,21.81619 49.6485,32.58395 12.86632,6.99038 23.96857,16.65818 36.25806,24.56273 11.66821,7.71402 22.79494,16.17022 34.00789,24.5094 20.4921,14.15141 41.51465,27.63023 60.63707,43.65257 10.47716,7.23089 20.56271,15.05734 31.35033,21.83565 2.93574,1.18752 5.20612,3.61751 8.0332,4.86524 3.60023,0.0928 5.37272,-4.00049 7.58872,-6.20603 20.02013,-26.86319 36.98386,-55.84225 56.57116,-83.01512 16.89409,-25.20607 34.32246,-50.05001 52.63535,-74.25267 6.5146,-9.02294 14.76103,-16.67319 21.12274,-25.79474 1.66596,-2.74223 -2.4434,-4.18861 -3.87355,-5.8013 -18.85555,-14.55723 -37.38356,-29.56389 -57.0054,-43.09336 -23.37068,-17.069 -47.45282,-33.12619 -71.44807,-49.28756 -14.03589,-10.13483 -28.37505,-19.84801 -42.38947,-30.01334 -12.44619,-8.4321 -25.95348,-15.19696 -38.04691,-24.17853 -16.04906,-11.7108 -32.23268,-23.231228 -48.23968,-35.007093 -10.0603,-6.660291 -19.49036,-14.163236 -28.72485,-21.913921 -1.9694,-1.306981 -3.82234,-3.46353 -6.25645,-3.807431 z"
         style="opacity:1;vector-effect:none;fill:#e9ddaf;fill-opacity:1;stroke:none;stroke-width:2.04135871;stroke-linecap:round;stroke-linejoin:miter;stroke-miterlimit:4;stroke-dasharray:none;stroke-dashoffset:0;stroke-opacity:0" />
      <path
         transform="matrix(0.26458333,0,0,0.26458333,3.5504575,0.67425846)"
         inkscape:connector-curvature="0"
         id="path184"
         d="m 919.04485,267.8467 c -10.38612,11.25377 -20.42096,22.85387 -29.29702,35.35007 -24.31493,32.97102 -47.13228,67.01307 -69.8334,101.10515 -7.45262,11.13443 -14.27463,22.67745 -22.22361,33.47402 -4.02782,6.06949 -8.49217,11.9437 -11.66215,18.52163 -0.0888,1.24491 1.9789,1.29028 2.87262,1.38037 4.47217,-0.0902 9.2716,0.44832 13.44677,-1.45771 4.11286,-3.00842 6.41757,-7.81728 9.50247,-11.76148 8.53103,-11.78282 17.35577,-23.35961 25.4329,-35.46825 8.00005,-11.71627 15.94497,-23.50349 22.59163,-36.05627 8.64404,-14.26177 18.41356,-27.80714 27.8497,-41.54885 10.29575,-14.35305 20.48008,-28.79987 31.22624,-42.8186 4.71712,-6.39132 10.75365,-11.71995 15.21999,-18.29216 0.94489,-1.06156 -0.13016,-2.29568 -1.35344,-2.20004 -4.56502,-0.45243 -9.20301,-0.21463 -13.7727,-0.22788 z"
         style="opacity:1;vector-effect:none;fill:#d3bc5f;fill-opacity:1;stroke:none;stroke-width:2.04135871;stroke-linecap:round;stroke-linejoin:miter;stroke-miterlimit:4;stroke-dasharray:none;stroke-dashoffset:0;stroke-opacity:0" />
      <path
         transform="matrix(0.26458333,0,0,0.26458333,3.5504575,0.67425846)"
         inkscape:connector-curvature="0"
         id="path186"
         d="m 638.29996,54.366207 c -2.90817,0.266073 -6.09272,-0.389207 -8.83883,0.738871 -0.6937,1.521279 1.39954,2.73833 2.24158,3.741654 11.29398,10.624133 24.69296,18.583658 37.08502,27.8047 16.69228,12.239688 33.19655,24.778278 50.44495,36.235528 22.64662,13.34041 43.97519,28.74615 65.24839,44.14735 24.64101,17.33042 50.11128,33.47514 74.23841,51.53377 20.9371,15.12634 41.51018,30.75029 62.3134,46.05674 1.76785,1.26443 4.15563,0.13038 6.15962,0.34552 3.02345,-0.35987 6.25496,-0.0811 9.15228,-1.00912 1.36207,-1.09296 -0.71529,-2.57348 -1.45841,-3.35738 -8.03494,-6.67999 -16.17647,-13.23459 -24.07705,-20.07975 -13.23192,-11.43293 -28.48813,-20.12087 -42.48284,-30.52297 -18.35227,-14.12512 -38.43509,-25.78567 -57.18755,-39.34748 -13.9004,-9.82087 -27.81042,-19.64383 -42.23865,-28.67679 -17.8264,-12.09714 -36.08836,-23.55747 -53.77418,-35.864 -17.84345,-12.83841 -35.81126,-25.523981 -53.29389,-38.851882 -5.32596,-4.153087 -10.37023,-8.659569 -15.54277,-12.987293 -2.66316,0.03084 -5.32632,0.06169 -7.98948,0.09253 z"
         style="opacity:1;vector-effect:none;fill:#d3bc5f;fill-opacity:1;stroke:none;stroke-width:2.04135871;stroke-linecap:round;stroke-linejoin:miter;stroke-miterlimit:4;stroke-dasharray:none;stroke-dashoffset:0;stroke-opacity:0" />
      <path
         transform="matrix(0.26458333,0,0,0.26458333,3.5504575,0.67425846)"
         inkscape:connector-curvature="0"
         id="path188"
         d="m 610.84345,340.77346 c -3.20495,0.7755 -5.38238,3.6958 -7.90059,5.64307 -12.06481,10.82351 -22.06967,23.67418 -33.90253,34.73361 -9.96632,9.73071 -19.09969,20.26229 -28.95292,30.11041 -17.17321,17.73031 -34.68845,35.13147 -52.38486,52.33622 -7.92234,8.03048 -15.04539,16.79447 -22.82624,24.95925 -2.4953,2.67696 -5.06866,5.88433 -4.68414,9.78761 -0.54707,4.34469 1.48073,9.42224 5.93401,10.8048 3.37651,1.25854 5.66614,-2.35242 7.85106,-4.22864 13.13991,-10.73336 24.72805,-23.20015 36.99985,-34.88798 11.67235,-11.22675 23.25142,-22.61727 36.21708,-32.36746 12.1214,-9.85495 23.35443,-20.74346 33.88936,-32.26937 14.67533,-15.82091 29.7085,-31.30244 44.67269,-46.84786 1.22857,-1.68101 3.40467,-3.09348 3.75443,-5.2308 -2.23921,-3.42704 -6.00206,-5.56382 -9.24486,-7.95288 -2.9584,-1.70813 -5.9611,-4.1248 -9.42234,-4.58998 z"
         style="opacity:1;vector-effect:none;fill:#d3bc5f;fill-opacity:1;stroke:none;stroke-width:2.04135871;stroke-linecap:round;stroke-linejoin:miter;stroke-miterlimit:4;stroke-dasharray:none;stroke-dashoffset:0;stroke-opacity:0" />
      <path
         inkscape:connector-curvature="0"
         id="path130"
         d="m 4.842658,239.12872 c 0.054938,3.45642 0.072207,6.95615 0.768268,10.35366 0.25967,1.18309 1.7142327,0.97806 2.6222748,1.02337 2.4049142,-0.004 4.8475502,-0.0556 7.1419242,-0.86357 2.82167,-0.72222 5.441566,-2.01249 8.217776,-2.86908 2.911999,-1.11401 5.863648,-2.11235 8.90787,-2.79975 2.339056,-0.51304 4.745302,-1.60102 7.1687,-1.04372 1.568638,0.63476 3.195777,1.52548 3.895672,3.16381 2.578846,4.26188 6.325208,7.74649 10.469298,10.4602 0.432464,0.25412 1.256432,0.35658 1.306319,-0.34479 1.018453,-2.65786 2.578706,-5.07893 4.075705,-7.48867 0.555397,-0.91682 1.644396,-1.76365 1.290645,-2.97018 -0.404881,-1.98948 -0.333912,-4.03228 -0.344781,-6.05351 1.435944,-1.49189 3.24997,-2.65771 5.323253,-2.97643 2.120828,-0.29686 4.214167,-0.76146 6.309881,-1.18583 4.042942,-0.35678 7.922495,-1.60484 11.74464,-2.90338 1.454094,-0.62631 3.212433,-0.57215 4.477358,-1.60078 0.825161,-0.78396 -0.08561,-1.90696 -0.504282,-2.64724 -2.436704,-3.5179 -4.206598,-7.46489 -5.25516,-11.61196 -1.0155,-3.48595 -1.840034,-7.02256 -2.493129,-10.59193 -0.652613,-3.65237 -0.893395,-7.52736 0.401664,-11.07477 1.970794,-6.10165 6.068772,-11.19616 10.231718,-15.95011 3.004121,-3.16863 5.984314,-6.36354 8.749236,-9.74539 2.342622,-2.49919 4.148482,-5.43593 6.514842,-7.91621 1.42993,-1.76037 3.12143,-3.3009 4.49108,-5.10492 -0.052,-1.13681 -0.67925,-2.21287 -1.02364,-3.29498 -1.12933,-2.69551 -2.13449,-5.47117 -3.58596,-8.01326 -0.37519,-0.67371 -1.0257,0.1227 -1.42223,0.3571 -4.474312,3.47613 -8.29161,7.74461 -12.930692,11.01163 -1.985349,1.05626 -4.330803,1.06742 -6.492383,1.53032 -1.901936,0.2531 -3.832249,0.62787 -5.449202,1.72772 -2.013315,1.36766 -3.983725,2.84807 -5.70471,4.57694 -2.521633,2.82709 -5.217562,5.51139 -7.527134,8.51972 -0.06039,0.15407 -0.446373,0.33896 -0.278932,0.045 1.743043,-2.62255 3.893627,-4.96322 6.181082,-7.12012 2.336184,-2.58007 4.910191,-4.97044 7.763349,-6.971 3.334567,-1.86547 7.339359,-1.44243 10.879933,-2.65333 1.24392,-0.81217 1.63471,-2.40105 2.462028,-3.56672 0.96743,-1.54056 2.034243,-3.0143 3.043253,-4.52604 0.87702,-1.16735 1.837447,-2.31478 2.439178,-3.64966 0.581969,-1.55671 1.64274,-2.89081 2.24598,-4.44929 2.26107,-4.71931 3.83789,-9.77285 4.66765,-14.93788 0.47613,-4.52447 0.36039,-9.08514 0.37687,-13.62631 -1.08477,-1.51862 -1.95343,-3.17958 -3.01525,-4.70758 -1.8919,-2.04964 -4.477095,-3.45584 -7.181277,-4.10018 -3.223935,-0.43967 -6.582193,-0.0437 -9.537428,1.35864 -3.244318,1.44837 -6.467652,3.0391 -9.200713,5.34528 -3.689551,2.74828 -6.828766,6.13357 -10.369772,9.05249 -1.804413,1.48786 -4.103693,2.25595 -6.430248,2.29441 -3.319695,0.13288 -6.741142,0.39217 -9.745633,1.94925 -1.298655,0.68883 -2.869965,1.26712 -3.649398,2.5931 -0.315653,1.53743 0.0057,3.14702 0.0028,4.70851 0.0057,2.08513 0.764183,4.39576 -0.456009,6.29028 -1.338038,1.71391 -3.01399,3.14436 -4.312542,4.90106 -2.962814,3.56949 -5.437838,7.50003 -8.170566,11.23915 -2.479714,3.18749 -4.938559,6.40365 -7.140067,9.79051 -1.294148,2.17813 -2.73396,4.27202 -3.822961,6.56909 -1.22073,2.33953 -2.432974,4.6835 -3.326731,7.16493 -4.222372,9.59749 -7.656301,19.52656 -10.4157541,29.63964 -1.5161128,5.64714 -3.2285093,11.2973 -3.6477945,17.16061 -0.5135298,5.4935 -0.7452942,11.01479 -0.7358777,16.53218 z m 36.766216,-91.57116 c 0.0412,-1.60326 1.255721,-3.0519 2.851685,-3.3113 0.317381,-0.12919 1.335505,-0.17548 1.11171,0.41839 -0.626922,0.56762 -1.655556,0.28839 -2.358601,0.76479 -0.997906,0.43294 -1.256287,1.54933 -1.479249,2.49298 -0.140388,0.13192 -0.118351,-0.33078 -0.125545,-0.36486 z m 2.169615,-0.39135 c 0.547304,-0.97539 1.874171,-0.64018 2.709008,-0.25966 2.141286,0.79729 3.919826,2.37458 6.114005,3.03558 2.907136,0.76424 5.940547,1.00822 8.811236,1.89818 0.20582,0.1145 0.8782,0.47056 0.566698,0.74659 -2.461461,-0.25121 -4.90924,-0.79803 -7.343849,-1.2733 -2.750135,-0.60134 -5.064323,-2.274 -7.601738,-3.39118 -1.038389,-0.39067 -2.306783,-0.0748 -3.242511,-0.70509 -0.0078,-0.0159 -0.01257,-0.0334 -0.01283,-0.0511 z m 11.240776,-13.8577 c 0.982585,-1.54436 2.444199,-2.74181 3.782155,-3.9762 1.399839,-1.16688 3.077533,-1.93853 4.573651,-2.97203 2.434947,-1.48784 5.173014,-2.36545 7.830174,-3.36302 1.877057,-0.66279 3.905112,-0.80731 5.843278,-0.34012 1.673212,0.26092 3.135709,1.14218 4.770109,1.54193 2.906522,1.1294 4.68943,3.88514 7.176196,5.63162 0.865762,0.63785 2.005912,0.22145 2.934134,0.55814 -0.231151,0.47695 -0.98385,0.56096 -1.449803,0.74631 -1.913474,0.30232 -3.035363,2.10968 -4.573992,3.10304 -2.51569,1.88701 -5.315024,3.55965 -8.481827,4.00091 -3.607398,0.60845 -7.325204,1.07188 -10.973507,0.59692 -2.822821,-0.72939 -5.659429,-1.52644 -8.394443,-2.51066 -1.072192,-0.92041 -2.197394,-1.89203 -3.036125,-3.01684 z m 7.240976,21.33022 c 0.724498,-0.13165 1.778291,-0.40368 1.70919,-1.34192 0.160435,-1.27723 -0.449882,-2.44527 -0.713391,-3.6494 0.137451,-0.40067 0.557427,0.21615 0.606049,0.38815 0.633376,1.29259 1.31712,3.07858 0.283213,4.34645 -0.482976,0.37837 -1.111165,0.81404 -1.672,0.86796 -0.448956,-0.33036 -1.496954,-0.48726 -0.213061,-0.61124 z"
         style="opacity:1;vector-effect:none;fill:#0055d4;fill-opacity:1;stroke:none;stroke-width:0.54010946;stroke-linecap:round;stroke-linejoin:miter;stroke-miterlimit:4;stroke-dasharray:none;stroke-dashoffset:0;stroke-opacity:0" />
      <path
         inkscape:connector-curvature="0"
         id="path132"
         d="m 110.28149,156.45864 c 0.005,0.0146 0.0244,0.0216 0.0379,0.0135 0.0125,-0.009 0.0221,-0.0209 0.0325,-0.032 0.0152,-0.0145 0.009,-0.0442 -0.0119,-0.0499 -0.0131,-0.004 -0.0264,0.004 -0.0336,0.0144 -0.008,0.0118 -0.019,0.0224 -0.025,0.0357 -0.002,0.006 -0.002,0.0123 1e-4,0.0183 z"
         style="opacity:1;vector-effect:none;fill:#0055d4;fill-opacity:1;stroke:none;stroke-width:0.54010946;stroke-linecap:round;stroke-linejoin:miter;stroke-miterlimit:4;stroke-dasharray:none;stroke-dashoffset:0;stroke-opacity:0" />
      <path
         inkscape:connector-curvature="0"
         id="path134"
         d="m 60.603817,246.91005 c -1.1e-5,0.0159 0.01609,0.0293 0.03166,0.0254 0.01598,-0.002 0.02188,-0.0194 0.02899,-0.0316 0.03069,-0.0565 0.05627,-0.11596 0.07376,-0.17793 0.01556,-0.0545 0.02609,-0.1106 0.02963,-0.16718 0.0013,-0.0159 -0.01302,-0.0311 -0.02915,-0.029 -0.01352,7.9e-4 -0.02339,0.0131 -0.02498,0.026 -0.02,0.0926 -0.04726,0.18312 -0.07991,0.2716 -0.0089,0.0254 -0.02029,0.0499 -0.02911,0.0753 -7.93e-4,0.002 -5.29e-4,0.005 -7.93e-4,0.007 z"
         style="opacity:1;vector-effect:none;fill:#0055d4;fill-opacity:1;stroke:none;stroke-width:0.54010946;stroke-linecap:round;stroke-linejoin:miter;stroke-miterlimit:4;stroke-dasharray:none;stroke-dashoffset:0;stroke-opacity:0" />
      <path
         inkscape:connector-curvature="0"
         id="path136"
         d="m 54.72577,256.75169 c 0.0034,0.0127 0.01603,0.0206 0.02884,0.0205 0.04085,0.003 0.08203,0.004 0.122902,8.5e-4 0.07539,-0.007 0.15127,-0.0295 0.21146,-0.0767 0.01087,-0.009 0.02437,-0.0174 0.03038,-0.031 0.0066,-0.0153 -0.0049,-0.0345 -0.02148,-0.0358 -0.01474,-0.002 -0.02647,0.01 -0.03907,0.0153 -0.08588,0.0453 -0.182859,0.0663 -0.279276,0.072 -0.0131,0.002 -0.02711,-10e-4 -0.03949,0.004 -0.0113,0.005 -0.01717,0.0185 -0.01426,0.0304 z"
         style="opacity:1;vector-effect:none;fill:#0055d4;fill-opacity:1;stroke:none;stroke-width:0.54010946;stroke-linecap:round;stroke-linejoin:miter;stroke-miterlimit:4;stroke-dasharray:none;stroke-dashoffset:0;stroke-opacity:0" />
      <path
         inkscape:connector-curvature="0"
         id="path128"
         d="m 60.347936,296.204 c -1.7087,-0.15293 -2.0191,-0.27789 -3.513,-1.41396 -1.2499,-0.95062 -1.787,-1.20896 -2.2641,-1.08921 -0.4198,0.10535 -0.9613,-0.0595 -1.6464,-0.50128 -2.7483,-1.77202 -3.4497,-3.18731 -3.1698,-6.39612 0.3796,-4.35245 1.9966,-7.34324 4.9148,-9.09063 0.756,-0.45263 1.1906,-0.52107 2.5136,-0.39587 2.3849,0.22571 4.1985,0.81092 5.4525,1.75953 0.6165,0.4663 1.276,0.96266 1.4655,1.10302 0.5726,0.42394 0.7647,-0.0723 0.8144,-2.10397 0.026,-1.06534 0.2472,-2.73341 0.4913,-3.70681 0.2738,-1.09175 0.3496,-1.86409 0.1977,-2.01599 -0.1354,-0.13539 -1.2051,-0.35555 -2.377,-0.48921 -2.2335,-0.25475 -2.8692,-0.60119 -6.7885,-3.69989 -0.5615,-0.44389 -1.1924,-0.80705 -1.4022,-0.80705 -0.5052,0 -1.8603,1.37596 -3.1267,3.175 -1.3533,1.92225 -1.374,1.94352 -1.5778,1.61377 -0.097,-0.15642 0.3428,-0.8514 0.9766,-1.5444 2.8975,-3.16817 3.465,-4.40124 2.1746,-4.72511 -0.7472,-0.18754 -1.0475,0.0746 -3.0012,2.61974 -0.6362,0.82876 -1.2017,1.50683 -1.2568,1.50683 -0.4312,0 0.1218,-1.01499 1.253,-2.29971 0.7441,-0.84521 1.4727,-1.79392 1.6191,-2.10825 0.2981,-0.64034 0.066,-0.98637 -3.5203,-5.24933 -1.1018,-1.30969 -2.4055,-3.09563 -2.8972,-3.96875 -0.4916,-0.87313 -1.2744,-2.12328 -1.7395,-2.77813 -1.2094,-1.70283 -3.2131,-5.94263 -3.7555,-7.94634 l -0.4631,-1.71095 -1.5821,0.0183 c -0.8702,0.0101 -2.118,0.15263 -2.7728,0.31683 -0.6549,0.16421 -2.2622,0.55817 -3.5719,0.87548 -2.8935,0.70103 -4.846,1.29353 -7.8052,2.36861 -1.2369,0.44937 -2.8443,1.00089 -3.5719,1.2256 -0.7276,0.22472 -1.458,0.51863 -1.623,0.65314 -0.3139,0.25578 -3.7198,1.26692 -6.1355,1.82145 -1.6153,0.37082 -5.6603,0.48877 -6.7056,0.19554 -0.3881,-0.1089 -0.9546,-0.60074 -1.2589,-1.09297 -0.5268,-0.85253 -0.5561,-1.2949 -0.6171,-9.32701 -0.066,-8.70993 0.097,-12.6717 0.7542,-18.3539 0.7587,-6.556 0.7681,-6.59663 5.267,-22.88646 0.7739,-2.80202 3.2781,-10.06799 4.1034,-11.90625 0.2614,-0.58209 0.7117,-1.77271 1.0008,-2.64584 0.8301,-2.50734 2.8424,-7.49257 3.8743,-9.59813 0.519,-1.05888 0.9435,-2.05132 0.9435,-2.20543 0,-0.29742 0.9817,-2.30987 3.0044,-6.15897 1.8616,-3.54253 8.7692,-13.74409 9.6929,-14.31496 0.1411,-0.0872 1.2241,-1.61155 2.4066,-3.38741 1.1825,-1.77586 2.7125,-3.88369 3.4,-4.68405 0.6875,-0.80037 1.4739,-1.8124 1.7474,-2.24896 0.2735,-0.43656 0.7638,-1.07167 1.0895,-1.41135 0.3256,-0.33968 0.9852,-1.16063 1.4658,-1.82433 0.4805,-0.66371 1.3703,-1.71174 1.9774,-2.32897 1.232,-1.25258 1.5843,-2.54211 1.313,-4.80543 -0.084,-0.69937 -0.231,-2.42519 -0.327,-3.83514 -0.1668,-2.45003 -0.1436,-2.61635 0.5241,-3.75574 0.564,-0.96234 1.0935,-1.40122 2.7466,-2.27639 3.2906,-1.74211 6.8554,-2.63327 10.6468,-2.66161 3.992,-0.0299 5.5469,-0.69222 8.6658,-3.69167 1.2861,-1.23692 3.0474,-2.84258 3.914,-3.56812 0.866504,-0.72554 2.149404,-1.82285 2.850904,-2.43845 3.1103,-2.72952 7.9993,-5.59794 13.012,-7.63429 1.6723,-0.67935 2.1603,-0.75325 5.0271,-0.76133 3.3102,-0.009 3.4157,0.0174 6.1975,1.57098 1.27519,0.71214 4.60619,3.96275 5.51239,5.37933 1.6835,2.63172 1.9103,3.68714 1.9554,9.09742 0.029,3.44233 -0.086,5.57965 -0.3963,7.41359 -0.2402,1.41727 -0.4367,2.63766 -0.4367,2.71198 0,0.18834 1.4548,0.16947 1.9628,-0.0254 0.2451,-0.0941 0.4185,-0.47061 0.4185,-0.90882 0,-1.04449 0.469,-2.17399 0.8141,-1.96068 0.183,0.11309 0.2219,0.64294 0.108,1.47113 -0.1577,1.14662 -0.1223,1.29392 0.3098,1.29034 0.7296,-0.006 1.0871,-0.3175 1.2893,-1.12308 0.229,-0.91243 0.6538,-0.9459 0.6538,-0.0515 0,0.6341 0.058,0.66284 0.9922,0.49188 0.5457,-0.0999 1.0977,-0.36187 1.2267,-0.58224 0.5921,-1.01132 3.7416,-4.02602 4.6144,-4.41694 0.5345,-0.2394 1.21,-0.54415 1.501,-0.67723 0.9876,-0.45154 2.9043,-0.76762 4.6942,-0.77412 1.5012,-0.005 1.836,0.0773 2.1141,0.5227 0.4158,0.66583 1.0265,0.66618 2.8446,0.002 1.284,-0.46931 1.6129,-0.49255 2.9787,-0.21044 l 1.5353,0.31711 2.0447,-2.0206 c 8.8627,-8.75833 11.8597,-11.79442 13.7922,-13.9719 1.2224,-1.37738 3.3656,-3.64117 4.7625,-5.03065 5.0069,-4.97996 9.2869,-9.45106 9.2869,-9.70151 0,-0.45371 -4.3549,-3.72266 -7.8052,-5.85889 -1.0187,-0.63069 -2.4474,-1.56054 -3.175,-2.06635 -1.2137,-0.84371 -2.1141,-1.40143 -5.2671,-3.26253 -0.6164,-0.3638 -1.8472,-1.22701 -2.7353,-1.91823 -0.8881,-0.69122 -1.6799,-1.25677 -1.7595,-1.25677 -0.1876,0 -3.9194,-2.53709 -11.0079,-7.48382 -0.8004,-0.55853 -1.8422,-1.25805 -2.3151,-1.55448 -0.473,-0.29643 -0.8599,-0.70837 -0.8599,-0.91542 0,-0.20705 1.0045,-1.71334 2.2322,-3.34731 1.2277,-1.63396 2.5344,-3.38757 2.9039,-3.89689 1.3555,-1.86894 3.2527,-4.34659 5.4472,-7.11377 1.2369,-1.55971 2.8808,-3.72256 3.6531,-4.80634 0.7722,-1.08378 2.1368,-2.98254 3.0324,-4.21947 0.8956,-1.23693 2.1956,-3.0824 2.8888,-4.10104 0.6932,-1.01865 1.8289,-2.58612 2.5238,-3.48328 0.6948,-0.89716 1.7396,-2.31824 2.3217,-3.15795 0.5821,-0.83972 1.3804,-1.89162 1.7741,-2.33756 1.1143,-1.26227 6.8959,-9.09521 8.0195,-10.86497 0.5544,-0.87312 1.5541,-2.27534 2.2217,-3.11604 l 1.2139,-1.52855 3.7575,0.0889 3.7575,0.0889 1.4015,1.40145 c 1.5355,1.5355 5.035,4.22504 8.9428,6.87289 1.3825,0.93672 3.4661,2.43066 4.6302,3.31986 1.1642,0.8892 3.8431,2.77786 5.9532,4.19703 2.11,1.41917 4.6699,3.1542 5.6885,3.85563 1.0187,0.70143 2.8641,1.93008 4.1011,2.73035 5.0599,3.27364 10.6129,7.02016 13.3362,8.99773 1.4075,1.02212 2.7965,1.9439 6.8507,4.54641 1.3337,0.85616 3.0632,2.07655 3.8433,2.71198 0.78,0.63543 1.5248,1.15533 1.655,1.15533 0.1303,0 1.0087,0.65485 1.9522,1.45521 0.9435,0.80036 1.7888,1.45521 1.8785,1.45521 0.09,0 0.6589,0.34083 1.2648,0.75741 0.6058,0.41657 2.1136,1.41905 3.3505,2.22771 1.2369,0.80867 4.0614,2.93839 6.2765,4.7327 2.2152,1.79431 4.6207,3.71328 5.3458,4.26439 1.7185,1.30631 1.5642,1.74326 -1.9436,5.50491 -2.1161,2.2692 -3.8964,4.60368 -6.7392,8.8374 -1.0754,1.60157 -2.7683,4.00359 -3.7619,5.33783 -2.0574,2.76278 -5.5661,8.086 -7.6439,11.59702 -2.098,3.54515 -2.7183,4.5612 -3.3576,5.49977 -1.4599,2.14319 -4.6617,6.82162 -5.652,8.25857 -0.6018,0.87312 -1.4997,2.08378 -1.9955,2.69036 -0.4959,0.60657 -0.9015,1.21707 -0.9015,1.35666 0,0.13959 -0.186,0.40815 -0.4133,0.59679 -0.2273,0.18863 -0.8209,0.95715 -1.3192,1.7078 -1.2969,1.95393 -1.7869,2.31054 -3.4973,2.5453 -1.9892,0.27303 -4.0826,-0.25733 -5.1929,-1.31563 -0.4522,-0.43097 -2.0127,-1.5729 -3.4679,-2.53763 -2.8317,-1.87726 -5.3718,-3.75929 -7.2468,-5.36931 -0.6388,-0.54849 -1.5477,-1.23539 -2.0198,-1.52643 -0.4721,-0.29104 -1.9736,-1.36269 -3.3366,-2.38145 -1.3629,-1.01875 -2.6688,-1.97125 -2.9018,-2.11666 -2.185,-1.36346 -7.9349,-5.37844 -9.6007,-6.70392 -1.9804,-1.57579 -4.0033,-3.00544 -5.8233,-4.11539 -0.4516,-0.27541 -1.2442,-0.78142 -1.7613,-1.12448 -0.5171,-0.34304 -1.1518,-0.62372 -1.4103,-0.62372 -0.6685,0 -2.3618,1.47827 -6.2057,5.41748 -1.8425,1.88822 -3.8858,3.97768 -4.5406,4.64326 -0.6549,0.66559 -2.8327,2.89604 -4.8397,4.95658 -2.0069,2.06054 -3.7333,3.75454 -3.8364,3.76444 -0.1031,0.01 -1.4073,1.08635 -2.8982,2.39209 -1.4908,1.30573 -2.8303,2.37406 -2.9765,2.37406 -0.1462,0 -0.2659,0.11135 -0.2659,0.24743 0,0.13608 -0.4737,0.58257 -1.0527,0.99219 -0.5789,0.40962 -1.0552,0.84814 -1.0583,0.97449 0,0.12635 -1.0471,1.19791 -2.3199,2.38125 -5.6042,5.21004 -7.2971,6.96871 -7.1293,7.40618 0.092,0.23864 0.4382,0.43433 0.7701,0.43487 0.332,5.3e-4 0.9906,0.23692 1.4636,0.52528 0.7261,0.44274 0.8595,0.67922 0.8573,1.52036 0,1.61972 -1.1248,3.6198 -3.0989,5.5312 -2.4999,2.42049 -4.4315,3.61743 -7.4221,4.5993 -1.4153,0.46469 -2.6924,0.93665 -2.8379,1.04881 -0.1455,0.11216 -0.9487,0.40007 -1.7848,0.63979 -1.8171,0.52101 -2.9046,1.42427 -4.8887,4.06048 -0.814,1.08154 -2.0708,2.61292 -2.7929,3.40305 -1.5366,1.68123 -1.5388,1.86037 -0.061,4.89569 1.2148,2.49469 1.752,4.08038 1.5557,4.59187 -0.2154,0.56134 -0.6276,0.50635 -0.6276,-0.0837 0,-1.39687 -2.3351,-6.90333 -2.9318,-6.91348 -0.5648,-0.01 -1.1415,1.13319 -0.9547,1.89203 0.4502,1.82871 1.7409,6.04262 2.1229,6.93057 0.539,1.25293 0.5464,1.37692 0.058,0.97143 -0.2107,-0.1748 -0.581,-0.87399 -0.8229,-1.55375 -0.242,-0.67976 -0.5068,-1.41452 -0.5885,-1.63281 -0.082,-0.21828 -0.3364,-1.28917 -0.5661,-2.37976 -0.3007,-1.42727 -0.5414,-2.00611 -0.8593,-2.06578 -0.291,-0.0546 -1.472,1.11776 -3.4633,3.43809 -1.662,1.93655 -3.2392,3.69959 -3.5049,3.91787 -0.2656,0.21828 -0.8656,0.99219 -1.3332,1.71979 -0.4677,0.72761 -1.4898,2.04468 -2.2714,2.92682 -0.78149,0.88215 -1.95679,2.30064 -2.61159,3.15219 -0.6549,0.85156 -2.6596,3.10637 -4.455,5.01068 -6.0337,6.39982 -10.13191,12.32934 -11.8272,17.11229 -1.0998,3.10273 -1.3713,9.62996 -0.4972,11.9539 0.2063,0.54865 0.3752,1.54084 0.3752,2.20487 0,2.08363 1.86379,8.7304 3.9209,13.98254 1.0072,2.57161 1.4904,3.43617 2.5877,4.63021 1.5464,1.68272 1.9581,2.36664 1.9581,3.25336 0,1.09585 -2.0039,2.58043 -3.483,2.58043 -0.296,0 -0.9133,0.16971 -1.3719,0.37713 -0.4585,0.20743 -1.3695,0.49183 -2.02431,0.63202 -0.65489,0.14018 -2.08359,0.55995 -3.17499,0.93283 -1.8414,0.62909 -6.838404,1.50632 -8.546004,1.50024 -0.4074,-0.001 -1.0711,0.1682 -1.4748,0.377 -0.4038,0.2088 -1.7791,0.57544 -3.0563,0.81476 -3.1856,0.59694 -4.8447,1.35997 -5.1692,2.37748 -0.3298,1.03401 -0.1687,4.57727 0.226,4.97204 0.2321,0.23211 0.4322,0.22782 0.8254,-0.0177 0.7987,-0.4988 0.8808,-0.38975 0.2808,0.37304 -1.1266,1.43218 -0.5251,1.85577 1.0141,0.7142 l 0.951,-0.70532 -0.7276,0.78595 c -1.0351,1.11816 -0.9608,2.05947 0.2502,3.1687 0.5377,0.49257 1.092,0.89558 1.2318,0.89558 0.1397,0 0.6224,0.27416 1.0727,0.60926 1.9386,1.44259 2.785,1.77199 4.5532,1.77199 2.077004,0 3.952404,-0.43572 4.915404,-1.14196 0.628,-0.46062 0.8092,-0.48228 1.5314,-0.18311 1.3526,0.56024 1.448,0.91784 2.1182,7.93965 0.1597,1.67349 0.4622,4.11427 0.6722,5.42396 0.2099,1.30969 0.4988,3.33375 0.6418,4.49792 0.6976,5.67698 0.8766,6.83003 1.49979,9.65729 0.3688,1.67349 0.85121,3.51896 1.07201,4.10104 0.3951,1.0413 1.9391,8.4891 1.9383,9.34919 -5e-4,0.45257 -1.655,2.15931 -2.56591,2.64678 -0.2811,0.15047 -2.88459,0.34354 -5.78539,0.42905 -2.9009,0.0855 -6.261104,0.28342 -7.467104,0.43984 -1.2061,0.1564 -2.4974,0.20794 -2.8696,0.11451 -0.3722,-0.0934 -0.8142,-0.062 -0.9822,0.0698 -0.4451,0.34927 -3.1936,0.5136 -5.3547,0.32017 z m 8.4958,-1.43426 c 1.7222,-0.36454 4.918404,-0.59753 10.847104,-0.79068 2.66789,-0.0869 3.7926,-0.48585 4.2888,-1.52106 0.2804,-0.5851 0.2137,-1.27204 -0.4365,-4.49551 -0.4222,-2.09269 -1.14161,-5.17411 -1.5988,-6.8476 -1.0882,-3.98386 -1.4748,-6.29322 -2.12,-12.66383 -0.1528,-1.50807 -0.3415,-2.84507 -0.4193,-2.97109 -0.1605,-0.25953 -0.5114,-3.02434 -0.9038,-7.11925 -0.1465,-1.52797 -0.4025,-3.53526 -0.569,-4.46064 l -0.3027,-1.68252 -0.9235,0.14986 c -0.5079,0.0824 -1.117,0.31668 -1.3536,0.52057 -0.7144,0.61556 -2.1376,0.97482 -3.861804,0.97482 -1.2728,0 -1.935,-0.16045 -3.0029,-0.72761 -2.7989,-1.48643 -4.3046,-2.51345 -4.9764,-3.39422 -0.3798,-0.49789 -0.8562,-0.90526 -1.0588,-0.90526 -0.7308,0 -3.3808,6.67694 -3.6234,9.1294 l -0.1571,1.58877 1.1136,0.45048 c 0.6125,0.24775 1.709,0.58581 2.4366,0.7512 0.7276,0.16539 2.3349,0.63569 3.5719,1.04511 1.4042,0.46476 3.1602,0.81319 4.675,0.92757 3.928104,0.2966 4.148404,0.8749 3.526804,9.25851 -0.1726,2.32834 -0.3764,6.17654 -0.4529,8.55158 l -0.1391,4.31826 0.6607,0.70882 c 0.9434,1.01224 1.3601,1.89971 1.0415,2.21829 -0.173,0.17296 -0.4795,-0.0581 -0.9019,-0.67963 -0.9748,-1.43449 -1.825504,-1.97348 -3.405904,-2.15771 -0.7878,-0.0918 -1.6705,-0.27633 -1.9615,-0.41002 -0.4892,-0.22469 -3.9097,-0.88728 -6.3153,-1.22336 -0.596,-0.0833 -1.7339,0.0493 -2.7245,0.31745 -2.5232,0.68297 -3.7076,2.29846 -4.3755,5.96797 -0.3724,2.04618 0.3793,3.85075 1.9874,4.77099 1.8562,1.06223 7.3924,1.25606 11.4348,0.40034 z m -14.3252,-3.40225 c -0.1862,-1.36985 0.4794,-4.12985 1.3632,-5.65224 0.7586,-1.30683 2.25,-2.66382 3.5431,-3.22389 0.5829,-0.25247 1.6807,-0.40296 2.8635,-0.39256 1.055,0.009 1.9183,-0.0769 1.9183,-0.19151 0,-0.37314 -1.7445,-1.75141 -2.9638,-2.34164 -0.6547,-0.31697 -2.1992,-0.70652 -3.4322,-0.86567 -2.0911,-0.26995 -2.317,-0.25101 -3.3613,0.28176 -1.3232,0.67503 -2.6218,2.40488 -3.2525,4.33255 -0.6029,1.84282 -0.6402,5.87288 -0.065,7.02585 0.4898,0.98187 2.0908,2.15183 2.9446,2.15183 0.5476,0 0.5828,-0.0896 0.4421,-1.12448 z m 18.1177,-13.09687 c 0.516204,-8.7757 0.631304,-13.38204 0.344904,-13.79731 -0.149804,-0.21714 -1.262404,-0.51885 -2.696204,-0.73109 -1.3427,-0.19876 -2.8131,-0.53359 -3.2676,-0.74407 -2.1366,-0.98943 -5.4566,-1.76056 -5.4566,-1.2674 0,0.14446 -0.9822,0.87355 -2.1828,1.62023 -4.2581,2.64826 -4.5084,3.23641 -2.0196,4.74461 0.8902,0.53941 1.9227,1.25153 2.2945,1.58245 0.3718,0.33094 0.9235,0.64614 1.2258,0.70043 1.7083,0.30676 4.484,0.68225 5.0433,0.68225 1.0547,0 1.302,0.82632 0.7755,2.59115 -0.2477,0.83044 -0.4954,2.40286 -0.5504,3.49427 -0.055,1.09141 -0.169,2.75976 -0.2533,3.70747 l -0.1533,1.72308 0.9357,0.33835 c 0.5147,0.1861 1.844,0.44024 2.954,0.56472 1.1101,0.12449 2.0902,0.29816 2.178,0.38595 0.088,0.0878 0.2338,0.1596 0.3246,0.1596 0.091,0 0.3174,-2.58961 0.5035,-5.75469 z m -16.6566,-13.13651 c 0.328,-0.34922 1.5355,-1.27196 2.6832,-2.05052 2.2552,-1.5298 2.6749,-2.17133 1.2443,-1.9018 -0.473,0.0891 -1.0385,0.30869 -1.2568,0.48802 -0.2183,0.17931 -0.5391,0.27432 -0.7129,0.21111 -0.4067,-0.14787 -1.1974,0.27975 -2.9251,1.58187 -1.4274,1.07582 -1.6225,1.43785 -1.0716,1.98877 0.5073,0.50723 1.3938,0.3692 2.0389,-0.31745 z m -1.2725,-2.07703 c 0.6539,-0.61847 1.5705,-1.32731 2.0369,-1.5752 0.6988,-0.37142 0.848,-0.60849 0.848,-1.34739 0,-0.75147 -0.1483,-0.97655 -0.9156,-1.38978 -0.5036,-0.2712 -0.9888,-0.41986 -1.0783,-0.33038 -0.089,0.0894 -0.2012,0.67955 -0.2484,1.3113 -0.1271,1.70474 -0.5428,1.24494 -0.4924,-0.5447 l 0.043,-1.54207 -1.1018,-0.60749 c -0.6059,-0.33412 -1.6622,-1.1242 -2.3472,-1.75573 -0.6849,-0.63154 -1.3912,-1.14825 -1.5694,-1.14825 -0.5016,0 -4.7333,-4.46108 -5.9069,-6.227 -1.8578,-2.79553 -3.0522,-3.77931 -3.0522,-2.51404 0,1.03173 2.3577,6.29555 3.7587,8.39184 0.4066,0.6083 0.7392,1.1637 0.7392,1.23423 0,0.33262 3.1026,4.69067 4.1943,5.8915 0.6763,0.74393 1.5273,1.78245 1.8912,2.30783 0.9107,1.31519 1.6861,1.27773 3.2005,-0.15467 z m 3.2529,-4.7625 c 0.3771,-1.43561 1.7793,-5.09317 2.9862,-7.78883 0.6882,-1.53722 0.8248,-3.25753 0.2586,-3.25753 -0.9507,0 -4.9887,6.91758 -5.3474,9.16094 -0.1535,0.95975 -0.094,1.13821 0.5523,1.64629 0.8133,0.63976 1.4205,0.73342 1.5503,0.23913 z m -2.7482,-1.98438 c 0,-0.49421 0.6725,-1.86722 2.1668,-4.43177 0.5088,-0.87312 1.2014,-2.06375 1.5392,-2.64583 0.3378,-0.58209 0.9163,-1.38773 1.2854,-1.79033 0.6339,-0.69128 0.6535,-0.79816 0.3529,-1.92202 -0.1751,-0.65452 -0.3183,-2.24604 -0.3183,-3.5367 v -2.34667 l 1.0796,-0.97534 c 1.4752,-1.33275 3.1518,-1.99753 5.7089,-2.26362 1.1871,-0.12353 2.7093,-0.41165 3.3827,-0.64027 0.6734,-0.22862 1.5915,-0.41568 2.0402,-0.41568 1.278304,0 5.222004,-0.77407 6.970904,-1.36827 0.8731,-0.29665 2.54,-0.87996 3.7042,-1.29625 1.1641,-0.41628 2.4143,-0.76669 2.7781,-0.77868 0.3638,-0.012 1.0782,-0.22484 1.5875,-0.47301 1.3788,-0.6718 1.3344,-1.4178 -0.2099,-3.52906 -1.8761,-2.56483 -3.5832,-6.22812 -4.54481,-9.75264 -0.258,-0.94589 -0.85419,-3.08901 -1.32479,-4.7625 -0.4705,-1.67349 -0.9526,-3.81662 -1.0711,-4.7625 -0.1186,-0.94589 -0.3475,-2.06367 -0.5087,-2.48397 -0.1611,-0.42029 -0.3606,-2.20623 -0.4434,-3.96875 -0.1265,-2.69223 -0.062,-3.57446 0.4014,-5.5181 0.573,-2.40141 2.4873,-6.83203 3.5641,-8.24882 0.3405,-0.44811 0.8079,-1.18118 1.0385,-1.62905 0.2306,-0.44786 1.2978,-1.87661 2.3716,-3.175 1.0737,-1.29838 2.0637,-2.56083 2.1998,-2.80544 0.1362,-0.24462 1.7954,-2.03056 3.687,-3.96875 1.8916,-1.9382 4.0234,-4.2979 4.7375,-5.24379 0.714,-0.94588 1.9807,-2.43417 2.81489,-3.30729 0.8342,-0.87313 1.841,-2.12328 2.2373,-2.77813 0.3963,-0.65484 1.2817,-1.78593 1.9674,-2.51354 0.6858,-0.7276 1.5777,-1.73963 1.982,-2.24896 0.4043,-0.50932 1.4573,-1.68719 2.34,-2.61748 l 1.6049,-1.69145 -0.3217,-1.2027 c -0.2878,-1.07591 -0.6359,-1.94434 -2.2981,-5.73316 -0.2554,-0.58208 -0.7865,-1.83224 -1.1803,-2.77812 -0.3938,-0.94589 -0.8999,-1.75622 -1.1246,-1.80073 -0.2248,-0.0445 -1.0445,0.51053 -1.8216,1.23344 -0.7772,0.7229 -1.7702,1.58596 -2.2068,1.9179 -0.4366,0.33194 -1.74619,1.50445 -2.91039,2.60558 -2.8621,2.70709 -6.4285,5.66817 -7.4619,6.19542 -0.466,0.23775 -2.4729,0.67117 -4.4597,0.96314 -1.9869,0.29198 -3.92731,0.60654 -4.3121,0.69903 -1.158,0.27833 -3.1705,1.3792 -4.2149,2.30558 -0.5404,0.4794 -1.5276,1.24072 -2.1937,1.6918 -0.6661,0.45108 -1.5533,1.26878 -1.9715,1.8171 -0.4183,0.54831 -1.778304,2.0206 -3.022304,3.27174 -1.244,1.25113 -2.7947,3.01359 -3.446,3.91656 -1.1438,1.58561 -1.7252,2.05782 -1.5472,1.25661 0.1319,-0.59378 4.1028,-5.30894 5.1322,-6.09411 0.5032,-0.38386 1.5241,-1.42986 2.268604,-2.32445 0.7445,-0.89459 1.9034,-2.04035 2.5754,-2.54614 0.672,-0.50579 1.8241,-1.46297 2.5603,-2.12707 1.4859,-1.34047 3.7649,-2.25976 6.2022,-2.50176 2.17,-0.21548 5.7679,-0.90773 6.3574,-1.22319 0.2847,-0.15239 0.9563,-1.16419 1.4925,-2.24845 0.5361,-1.08425 1.43,-2.52226 1.9864,-3.19558 0.5564,-0.67331 1.0116,-1.32567 1.0116,-1.44969 0,-0.12401 0.5358,-0.88327 1.1906,-1.68724 0.6549,-0.80397 1.1906,-1.56793 1.1906,-1.69769 0,-0.12976 0.1786,-0.38414 0.3969,-0.5653 0.2183,-0.18116 0.3969,-0.55396 0.3969,-0.82844 0,-0.27448 0.3407,-0.96943 0.7572,-1.54433 0.4164,-0.57489 0.90779,-1.43707 1.09179,-1.91593 0.1841,-0.47887 0.6728,-1.58505 1.086,-2.45818 1.66,-3.50788 3.1141,-8.28956 3.9825,-13.09687 0.2325,-1.28665 0.3585,-4.08553 0.3585,-7.96017 v -5.9758 l -1.0561,-1.56483 c -0.5809,-0.86065 -1.1922,-1.86248 -1.3584,-2.22629 -0.4004,-0.87664 -1.1584,-1.64532 -2.6014,-2.63816 -4.05819,-2.79207 -8.06219,-3.24059 -13.24029,-1.48311 -1.9073,0.64734 -7.2561,3.34471 -8.1724,4.12127 -0.4292,0.36381 -1.2841,1.01865 -1.8996,1.45521 -1.8384,1.30385 -5.536504,4.52043 -8.267504,7.19102 -3.7536,3.67067 -5.6004,4.49405 -10.2355,4.56363 -1.9138,0.0287 -3.623,0.2253 -4.9914,0.57406 -2.5036,0.63811 -6.0216,2.3766 -6.8027,3.36168 -0.5237,0.6604 -0.5541,0.92154 -0.4076,3.4919 0.087,1.52797 0.2336,3.52638 0.3255,4.4409 0.2218,2.20687 -0.3355,3.6802 -1.897,5.01517 -1.1085,0.94758 -3.4564,3.71872 -4.8799,5.75953 -0.3639,0.52154 -1.1973,1.64287 -1.8521,2.49184 -0.6549,0.84896 -1.7264,2.40027 -2.3813,3.44735 -0.6548,1.04708 -2.0344,2.93662 -3.0658,4.19898 -1.0314,1.26236 -2.5525,3.28908 -3.3804,4.50383 -0.8278,1.21475 -1.6853,2.38879 -1.9055,2.60897 -0.2201,0.22018 -0.6867,0.96549 -1.0367,1.65624 -0.35,0.69076 -0.9243,1.60032 -1.2762,2.02125 -0.5995,0.71728 -4.9458,9.04314 -4.9458,9.47443 0,0.10891 -0.3712,1.05142 -0.8249,2.09446 -0.4536,1.04303 -1.0321,2.37268 -1.2856,2.95476 -0.4417,1.01464 -1.247,3.03944 -3.262,8.20209 -1.3119,3.36117 -4.198,12.308 -5.3343,16.53645 -0.5279,1.96453 -1.1428,4.16719 -1.3664,4.8948 -0.2236,0.7276 -0.6282,2.27541 -0.8992,3.43958 -0.271,1.16417 -0.6614,2.77151 -0.8675,3.57187 -1.3494,5.23969 -2.2645,22.63187 -1.5661,29.76563 0.4729,4.83046 0.4719,4.82684 1.4665,5.04596 1.4279,0.31458 5.5276,0.14071 7.0603,-0.29944 0.8004,-0.22983 2.2635,-0.63698 3.2513,-0.90479 0.9879,-0.2678 2.0681,-0.66508 2.4004,-0.88284 0.3324,-0.21776 1.1315,-0.54239 1.7758,-0.72138 1.091,-0.30308 4.1889,-1.40863 6.3309,-2.25925 0.5093,-0.20227 1.5213,-0.4937 2.2489,-0.64763 0.7276,-0.15393 2.8652,-0.70302 4.7501,-1.22021 4.0944,-1.12342 4.5616,-1.09148 7.4135,0.5068 0.798,0.44723 1.2439,0.98451 1.8521,2.23184 0.9398,1.92755 4.5335,6.00805 6.8252,7.7499 0.8616,0.65484 2.0613,1.57469 2.666,2.0441 1.2257,0.95154 2.0248,1.11057 2.0265,0.40329 z m 6.6478,-101.23885 c -0.6203,-0.34388 -0.6163,-0.34947 0.3543,-0.50699 0.5399,-0.0876 1.1495,-0.29868 1.3548,-0.46906 0.4827,-0.40062 0.4685,-2.29449 -0.024,-3.15541 -0.44,-0.76962 -0.5109,-1.5875 -0.1377,-1.5875 0.4857,0 1.3724,2.16613 1.3724,3.35244 0,1.28637 -0.2947,1.78162 -1.4007,2.35355 -0.8657,0.44765 -0.7374,0.44655 -1.5195,0.013 z m -4.3148,-3.07707 c -4.2892,-0.74669 -5.4135,-1.15478 -9.081,-3.29616 -1.2505,-0.73016 -1.8754,-0.92759 -2.9441,-0.93008 -1.5254,-0.004 -2.2407,-0.49141 -1.5549,-1.06055 0.7504,-0.62281 2.5961,-0.15652 4.9424,1.24869 1.2114,0.72549 2.4705,1.45972 2.798,1.63163 0.4926,0.25858 4.4565,1.06842 8.7972,1.79733 1.0027,0.16838 1.9259,0.8087 1.6979,1.17761 -0.078,0.12607 -0.2239,0.21222 -0.3245,0.19145 -0.1005,-0.0208 -2.0495,-0.36274 -4.331,-0.75992 z m -16.0909,-4.29553 c 0,-0.96581 0.6294,-2.35144 1.2645,-2.80285 1.0036,-0.71327 2.5761,-1.12052 2.9363,-0.76039 0.3958,0.39583 -0.1348,0.98355 -0.8879,0.98355 -1.626,0 -2.7852,0.99629 -2.7852,2.3937 0,0.28419 -0.1191,0.51671 -0.2646,0.51671 -0.1456,0 -0.264,-0.14882 -0.2631,-0.33072 z m 25.3985,-8.65934 c -0.8004,-0.12246 -2.9377,-0.70963 -4.7497,-1.30483 -1.8119,-0.5952 -3.4578,-1.08219 -3.6576,-1.08219 -0.4914,0 -3.499,-2.89471 -3.499,-3.36765 0,-0.56964 3.7061,-4.30692 4.7625,-4.80255 0.5094,-0.23897 1.8732,-1.07834 3.0307,-1.86528 1.1576,-0.78693 2.7903,-1.64417 3.6282,-1.90496 0.8379,-0.26079 1.9744,-0.7028 2.5256,-0.98223 0.5511,-0.27943 1.9173,-0.75795 3.036,-1.06338 1.795604,-0.49026 2.287804,-0.5235 4.200504,-0.28367 1.3112,0.16442 2.6721,0.52787 3.4473,0.92069 0.7044,0.35697 1.5444,0.64903 1.8665,0.64903 0.95699,0 3.7963,2.03816 5.4273,3.89597 1.6927,1.92801 2.7377,2.50633 4.1226,2.28159 1.3047,-0.21171 1.5438,0.34506 0.3606,0.83945 -0.5151,0.21523 -1.1945,0.39132 -1.5096,0.39132 -0.333,0 -1.0931,0.52647 -1.8144,1.25678 -1.8229,1.84536 -5.67831,4.33615 -7.7751,5.02297 -3.5125,1.15056 -10.356504,1.86494 -13.402404,1.39894 z m 3.175,-1.40957 c 0,-0.33554 -0.2712,-0.96061 -0.6026,-1.38907 -1.2131,-1.56829 -4.3173,-4.70279 -5.2182,-5.26927 -1.1203,-0.70435 -3.2913,-1.46286 -4.1871,-1.46286 -0.7352,0 -2.6339,1.44939 -3.5095,2.67898 -0.5506,0.7733 -0.5582,0.85576 -0.1557,1.69976 0.5789,1.21393 1.2646,1.60224 4.7298,2.67833 4.5495,1.41279 5.4961,1.62727 7.2896,1.65168 1.5569,0.0212 1.6537,-0.0132 1.6537,-0.58755 z m 7.633204,-0.34582 c 1.7972,-0.35497 3.6427,-0.83675 4.1011,-1.07061 2.5085,-1.27983 6.5219,-4.61016 6.5219,-5.41195 0,-0.4858 -2.6658,-3.36101 -4.1674,-4.49469 -0.7983,-0.60273 -2.0029,-1.24719 -2.6769,-1.43214 -0.674,-0.18494 -1.6422,-0.51108 -2.1515,-0.72474 -0.5093,-0.21366 -1.9997,-0.5374 -3.3119,-0.71941 -2.2351,-0.31002 -2.5109,-0.29383 -4.365604,0.25627 -1.0889,0.32295 -2.6942,0.91527 -3.5673,1.31626 -0.8731,0.401 -1.9257,0.80988 -2.3391,0.90863 -1.0254,0.24496 -4.1432,2.24247 -4.1432,2.65449 0,0.18314 0.4976,0.55737 1.1058,0.83164 1.5642,0.70535 3.6938,2.42186 4.9108,3.95825 0.5716,0.7216 1.2497,1.48543 1.5069,1.6974 0.2573,0.21198 0.8761,1.02375 1.3751,1.80395 l 0.9075,1.41854 1.5131,-0.17324 c 0.832204,-0.0953 2.983504,-0.46367 4.780704,-0.81865 z m 33.95169,17.45132 c 0.2661,-0.24083 0.4838,-0.70324 0.4838,-1.02757 0,-0.64127 -1.5906,-4.66941 -3.0522,-7.72957 -0.5041,-1.05545 -0.9165,-2.09022 -0.9165,-2.29949 0,-0.69811 -0.5771,-0.74866 -1.219,-0.10679 l -0.6347,0.63476 0.552,1.58067 c 0.3036,0.86937 1.2565,3.15649 2.1175,5.08249 0.861,1.926 1.5654,3.68217 1.5654,3.9026 0,0.52642 0.4996,0.50963 1.1037,-0.0371 z m -15.78799,-2.57019 c 0.8731,-0.73148 2.5456,-2.22914 3.7166,-3.32814 1.17099,-1.09898 2.93849,-2.71939 3.92789,-3.6009 l 1.7989,-1.60274 -0.4031,-1.35733 c -0.3357,-1.13043 -0.3439,-1.40646 -0.049,-1.65125 0.4247,-0.35251 0.5398,-0.18436 0.7785,1.13733 0.1351,0.74827 0.2963,0.98669 0.6243,0.92351 0.5924,-0.11407 1.0172,-2.47099 0.5474,-3.03703 -0.2365,-0.28497 -0.2439,-0.44041 -0.027,-0.57436 0.4655,-0.28773 0.8146,-1.43814 0.8229,-2.71181 0,-0.64089 0.1352,-2.58203 0.2912,-4.31365 0.1559,-1.73163 0.2244,-3.20757 0.1521,-3.27987 -0.072,-0.0723 -0.6347,-0.0247 -1.2497,0.10569 -1.0342,0.21934 -1.1342,0.31672 -1.3295,1.2955 -0.1161,0.58208 -0.3297,1.32622 -0.4746,1.65365 -0.4763,1.07652 -0.7451,1.77 -1.1533,2.97656 -0.8308,2.45562 -1.1279,3.1368 -1.8032,4.13467 -0.3815,0.56359 -0.7796,1.32236 -0.8847,1.68616 -0.1051,0.3638 -0.3114,0.81171 -0.4583,0.99534 -0.2861,0.35747 -0.92419,1.47546 -1.69719,2.97341 -0.2628,0.50932 -0.9035,1.52136 -1.4238,2.24896 -0.5202,0.7276 -1.3327,1.97776 -1.8055,2.77812 -0.4727,0.80037 -1.0778,1.8124 -1.3447,2.24896 -0.2668,0.43657 -0.5699,1.07655 -0.6735,1.4222 -0.2349,0.78364 -0.027,0.67324 2.1173,-1.12298 z m 18.48739,-0.34385 c 0.6005,-0.6794 1.3299,-1.55738 1.6209,-1.95109 2.892,-3.91207 3.9308,-5.07058 5.0271,-5.60644 0.4365,-0.21339 2.6987,-1.00663 5.0271,-1.76275 l 4.2333,-1.37477 2.326,-2.00263 c 2.5786,-2.22017 3.6271,-3.8483 3.6271,-5.63239 0,-0.91556 -0.092,-1.08527 -0.6693,-1.23008 -0.9046,-0.22703 -4.2013,0.8562 -5.2421,1.7224 -0.4523,0.37645 -1.1651,1.07142 -1.5839,1.54436 -0.9819,1.10871 -1.8614,1.1056 -3.115,-0.011 l -0.953,-0.84889 0.048,-2.24896 c 0.027,-1.26943 0.2483,-2.88278 0.5083,-3.70417 1.4328,-4.52678 1.4501,-4.61275 1.183,-5.86501 -0.2393,-1.12218 -0.3307,-1.22586 -1.2053,-1.3678 -1.1007,-0.17862 -3.8425,0.34944 -5.9939,1.15437 -2.406,0.9002 -5.6057,4.55725 -6.4758,7.40136 -0.361,1.18012 -0.9106,6.34481 -0.9468,8.89776 l -0.028,1.95972 -1.2741,1.08891 c -1.2321,1.05308 -1.2683,1.12474 -1.0989,2.17803 0.096,0.59902 0.7492,2.51787 1.4509,4.26412 1.5613,3.88569 1.9148,4.62549 2.2116,4.62814 0.1272,0.001 0.7225,-0.5538 1.3229,-1.23319 z m -3.8848,-10.73714 c 0.1177,-0.1819 0.2853,-1.64041 0.3725,-3.24114 0.2244,-4.12402 0.7398,-7.83805 1.1827,-8.52351 0.5151,-0.79726 0.4851,-1.45788 -0.061,-1.35162 -0.5166,0.10046 -0.8738,1.64345 -1.5202,6.56783 -0.2388,1.81901 -0.5502,3.88193 -0.6922,4.58425 -0.1419,0.70233 -0.258,1.506 -0.258,1.78594 0,0.56978 0.6468,0.68783 0.9766,0.17825 z m -1.554,-1.32291 c 0.5076,-2.77756 1.0924,-6.19015 1.349,-7.87136 0.1443,-0.94588 0.3328,-2.16627 0.4188,-2.71198 0.1514,-0.95996 0.1308,-0.99219 -0.6336,-0.99219 -0.4346,0 -0.857,0.10814 -0.9387,0.2403 -0.1454,0.23525 -0.5738,4.83629 -0.8132,8.73429 -0.066,1.07972 -0.1898,2.18105 -0.2744,2.44739 -0.1796,0.56591 0.08,1.54261 0.4102,1.54261 0.1254,0 0.3423,-0.62508 0.4819,-1.38906 z m 19.4627,-4.99502 c 0.217,-0.30979 0.9156,-0.93487 1.5524,-1.38907 0.6368,-0.4542 2.7623,-2.43315 4.7234,-4.39769 5.0675,-5.07646 10.8686,-10.52047 12.057,-11.31478 1.3268,-0.88684 5.6698,-4.66738 7.4184,-6.45761 0.7573,-0.77544 3.3738,-3.55302 5.8142,-6.1724 2.4404,-2.61937 5.72,-6.03366 7.288,-7.5873 1.568,-1.55364 2.8509,-2.98769 2.8509,-3.18678 0,-0.66055 -3.9413,-3.38029 -4.8948,-3.37773 -0.6273,0.002 -4.3632,3.52806 -6.8953,6.5085 -0.9752,1.14788 -2.5602,2.80144 -3.5224,3.67456 -0.9621,0.87313 -2.1669,2.05952 -2.6773,2.63643 -3.1553,3.56659 -15.1949,15.76374 -19.1389,19.38932 -0.6722,0.61801 -1.6746,1.68957 -2.2274,2.38125 -0.5528,0.69167 -1.8953,2.19272 -2.9833,3.33566 -2.2249,2.33713 -2.3306,2.51826 -2.3566,4.03781 -0.035,2.06851 1.9812,3.36255 2.9917,1.91983 z m -1.952,-5.49816 c 0,-0.13232 0.8037,-1.07664 1.786,-2.0985 3.1398,-3.2664 4.564,-4.85302 4.564,-5.08444 0,-0.72449 -3.7443,-0.4412 -4.7691,0.36084 -0.222,0.17369 -0.5599,1.0897 -0.7511,2.03559 -0.1911,0.94588 -0.4352,1.83885 -0.5423,1.98437 -0.2238,0.30397 -0.8166,2.29497 -0.8166,2.74268 0,0.16502 0.119,0.30003 0.2646,0.30003 0.1455,0 0.2645,-0.10826 0.2645,-0.24057 z m 89.671,-8.07315 c 0.2925,-0.26476 1.102,-1.3271 1.7987,-2.36075 0.6967,-1.03364 1.9229,-2.71592 2.7249,-3.73838 2.0447,-2.60693 8.2758,-11.80402 9.1469,-13.50069 0.9483,-1.8472 2.16,-3.89032 3.0877,-5.20635 0.5459,-0.77453 1.9509,-2.83698 3.1222,-4.58323 1.1713,-1.74625 2.9598,-4.3061 3.9747,-5.68855 1.0148,-1.38244 2.7406,-3.76369 3.8351,-5.29166 2.5506,-3.56059 3.5168,-4.77544 5.4338,-6.83209 0.8576,-0.91999 1.5592,-1.84273 1.5592,-2.05052 0,-0.29349 -0.4392,-0.37781 -1.968,-0.37781 h -1.968 l -2.1477,2.39533 c -1.1812,1.31742 -2.313,2.59735 -2.5151,2.84427 -1.0521,1.28523 -6.9098,9.29126 -8.6177,11.77814 -1.0812,1.57439 -2.2039,3.19885 -2.495,3.6099 -0.4825,0.68159 -2.3089,3.35469 -6.8158,9.97579 -0.9079,1.33392 -2.4843,3.70894 -3.5029,5.27782 -1.0186,1.56888 -2.0915,3.21593 -2.384,3.66011 -0.2926,0.44418 -0.7689,1.2061 -1.0584,1.69315 -0.2895,0.48705 -0.8925,1.38002 -1.34,1.98437 -1.8005,2.43143 -4.3457,6.31311 -4.3457,6.62752 0,0.56571 3.8147,0.38128 4.4751,-0.21637 z m -5.0746,-0.77479 c 1.4851,-1.69143 4.3184,-5.84635 11.935,-17.50211 0.6656,-1.01865 1.7212,-2.52765 2.3457,-3.35335 0.6245,-0.82569 1.1354,-1.5676 1.1354,-1.6487 0,-0.0811 0.7591,-1.19147 1.6868,-2.4675 0.9277,-1.27602 1.8836,-2.67722 2.1242,-3.11379 0.2405,-0.43656 0.9185,-1.44859 1.5067,-2.24896 0.5881,-0.80036 1.7704,-2.46723 2.6274,-3.70416 0.8569,-1.23693 2.3445,-3.26099 3.3056,-4.49792 0.9612,-1.23693 2.1378,-2.84427 2.6147,-3.57187 0.4769,-0.72761 2.0172,-2.5925 3.4228,-4.14422 1.4056,-1.55171 2.5556,-2.99314 2.5556,-3.20318 0,-0.21003 -0.7277,-0.90497 -1.6171,-1.54432 -0.8895,-0.63935 -2.467,-1.84274 -3.5058,-2.6742 -3.615,-2.89369 -7.978,-6.2135 -8.5955,-6.54032 -0.3418,-0.18093 -1.4353,-0.94355 -2.4299,-1.6947 -2.1535,-1.62637 -6.5746,-4.75662 -10.0139,-7.09009 -1.3651,-0.92619 -2.6748,-1.81966 -2.9104,-1.9855 -0.2357,-0.16584 -1.6786,-1.10867 -3.2066,-2.09517 -1.5279,-0.98651 -3.5186,-2.36803 -4.4237,-3.07005 -1.4457,-1.12137 -3.7643,-2.73384 -5.0746,-3.52909 -0.2398,-0.14552 -1.1475,-0.80964 -2.0172,-1.47583 -2.164,-1.65754 -4.6524,-3.3168 -6.1514,-4.1018 -2.4458,-1.28077 -6.5984,-4.06873 -9.6988,-6.51164 -0.4263,-0.3359 -1.1598,-0.84885 -1.63,-1.1399 -0.4702,-0.29104 -1.6507,-1.12448 -2.6234,-1.85208 -5.097,-3.81274 -6.2139,-4.6209 -7.6534,-5.53768 -0.8632,-0.54974 -2.6335,-1.93968 -3.934,-3.08874 -1.3005,-1.14906 -2.5699,-2.0892 -2.8209,-2.0892 -0.5629,0 -2.0523,1.76157 -4.1385,4.89479 -0.8721,1.30968 -2.2942,3.31747 -3.1604,4.46175 -0.8661,1.14428 -1.9319,2.58563 -2.3685,3.20302 -0.4365,0.61738 -1.2104,1.5921 -1.7198,2.16605 -0.5093,0.57395 -1.4023,1.73318 -1.9843,2.57606 -0.5821,0.84289 -1.7158,2.38475 -2.5194,3.42636 -1.5743,2.04058 -3.9305,5.311 -4.3598,6.05133 -0.5852,1.00909 -4.5536,6.54099 -5.935,8.27337 -1.2001,1.50486 -4.1007,5.31066 -7.3639,9.66185 -0.2729,0.3638 -1.187,1.67349 -2.0315,2.91042 -0.8445,1.23693 -1.6994,2.43692 -1.8999,2.66667 -0.9244,1.05935 -0.719,1.23105 10.3511,8.65102 1.8918,1.268 4.1561,2.84591 5.0317,3.50648 0.8757,0.66057 2.4016,1.6537 3.3909,2.20696 0.9893,0.55326 2.7136,1.63191 3.8318,2.397 1.1182,0.76509 3.1642,2.08162 4.5467,2.92563 1.3824,0.84401 3.0493,1.97286 3.7041,2.50856 1.1042,0.90328 4.3338,2.91893 4.677,2.91893 0.1351,0 1.8807,1.235 4.5552,3.22279 0.5249,0.39009 2.6807,1.87468 4.7908,3.29909 2.11,1.42442 4.4317,3.07255 5.1593,3.66255 1.9532,1.58376 3.1842,2.47519 5.5493,4.0186 5.0376,3.28739 10.1159,6.94994 12.4984,9.01416 0.8819,0.76398 1.6849,1.38906 1.7845,1.38906 0.1587,0 2.2258,1.46398 5.8044,4.11078 0.5975,0.44191 1.4694,0.96074 1.9375,1.15294 0.4681,0.1922 0.9887,0.51524 1.1568,0.71787 0.4753,0.57263 0.9142,0.44332 1.7582,-0.51802 z m 40.4193,-50.09372 c 0,-0.17185 -0.7739,-0.9122 -1.7198,-1.64522 -1.9855,-1.5387 -1.8817,-1.45257 -4.5776,-3.79687 -2.3114,-2.01002 -5.1679,-4.09293 -8.7428,-6.37526 -1.3323,-0.85055 -2.7246,-1.83099 -3.094,-2.17876 -0.8919,-0.83953 -6.7742,-4.89554 -9.5921,-6.61404 -0.6974,-0.42528 -2.4366,-1.60668 -3.865,-2.62533 -6.3029,-4.49489 -10.5377,-7.39238 -11.9509,-8.17688 -0.4993,-0.27718 -1.4954,-0.93203 -2.2136,-1.45521 -0.7182,-0.52318 -1.6877,-1.18936 -2.1545,-1.48041 -0.4668,-0.29104 -1.1889,-0.75795 -1.6046,-1.03758 -1.12,-0.75323 -5.9811,-3.94808 -6.4728,-4.25409 -1.1491,-0.715 -2.8613,-1.93582 -10.0193,-7.14375 -2.2002,-1.60073 -4.552,-3.30274 -5.2262,-3.78226 -0.6743,-0.47951 -2.2327,-1.72657 -3.4632,-2.77124 l -2.2373,-1.8994 -2.0582,-0.007 c -1.1321,-0.004 -2.1576,0.0925 -2.279,0.21407 -0.1215,0.12152 0.1364,0.51081 0.5729,0.86509 0.4366,0.35428 1.1402,0.96923 1.5636,1.36655 0.7011,0.65798 1.7646,1.42762 7.579,5.48491 1.0427,0.7276 2.5078,1.80511 3.2558,2.39447 0.748,0.58935 2.7699,2.07763 4.4932,3.30729 1.7233,1.22965 3.8337,2.73651 4.6897,3.34856 0.8561,0.61205 2.2441,1.49249 3.0845,1.95653 2.345,1.29482 9.098,5.87285 13.9634,9.46608 1.7463,1.28966 4.0085,2.88905 5.0271,3.5542 1.71,1.11658 7.5011,5.05063 11.5338,7.83517 0.9325,0.64385 2.5008,1.77494 3.4852,2.51354 0.9844,0.7386 2.8692,2.11682 4.1884,3.0627 1.3192,0.94589 3.1051,2.25557 3.9687,2.91042 2.2965,1.74133 4.2712,3.21837 7.251,5.42337 l 2.6458,1.95793 1.9844,-0.0526 c 1.3194,-0.035 1.9844,-0.15732 1.9844,-0.36507 z"
         style="fill:#000000;stroke-width:0.95594597" />
    </g>
  </g>
</svg>
