<?xml version="1.0" encoding="UTF-8" standalone="no"?>
<!-- Created with Inkscape (http://www.inkscape.org/) -->

<svg
   xmlns:dc="http://purl.org/dc/elements/1.1/"
   xmlns:cc="http://creativecommons.org/ns#"
   xmlns:rdf="http://www.w3.org/1999/02/22-rdf-syntax-ns#"
   xmlns:svg="http://www.w3.org/2000/svg"
   xmlns="http://www.w3.org/2000/svg"
   xmlns:sodipodi="http://sodipodi.sourceforge.net/DTD/sodipodi-0.dtd"
   xmlns:inkscape="http://www.inkscape.org/namespaces/inkscape"
   width="185.81479mm"
   height="288.24881mm"
   viewBox="0 0 185.81479 288.24881"
   version="1.1"
   id="svg8"
   inkscape:version="0.92.3 (2405546, 2018-03-11)"
   sodipodi:docname="Cartoon Character 100.svg">
  <title
     id="title192">Cartoon character 100</title>
  <defs
     id="defs2" />
  <sodipodi:namedview
     id="base"
     pagecolor="#ffffff"
     bordercolor="#666666"
     borderopacity="1.0"
     inkscape:pageopacity="0.0"
     inkscape:pageshadow="2"
     inkscape:zoom="0.35092936"
     inkscape:cx="106.36536"
     inkscape:cy="683.99761"
     inkscape:document-units="mm"
     inkscape:current-layer="layer1"
     showgrid="false"
     fit-margin-top="0"
     fit-margin-left="0"
     fit-margin-right="0"
     fit-margin-bottom="0"
     inkscape:window-width="1600"
     inkscape:window-height="845"
     inkscape:window-x="0"
     inkscape:window-y="27"
     inkscape:window-maximized="1" />
  <metadata
     id="metadata5">
    <rdf:RDF>
      <cc:Work
         rdf:about="">
        <dc:format>image/svg+xml</dc:format>
        <dc:type
           rdf:resource="http://purl.org/dc/dcmitype/StillImage" />
        <dc:title>Cartoon character 100</dc:title>
        <dc:date>2022</dc:date>
        <dc:creator>
          <cc:Agent>
            <dc:title>Doodleguy</dc:title>
          </cc:Agent>
        </dc:creator>
        <dc:rights>
          <cc:Agent>
            <dc:title>public domain</dc:title>
          </cc:Agent>
        </dc:rights>
        <cc:license
           rdf:resource="http://creativecommons.org/publicdomain/zero/1.0/" />
      </cc:Work>
      <cc:License
         rdf:about="http://creativecommons.org/publicdomain/zero/1.0/">
        <cc:permits
           rdf:resource="http://creativecommons.org/ns#Reproduction" />
        <cc:permits
           rdf:resource="http://creativecommons.org/ns#Distribution" />
        <cc:permits
           rdf:resource="http://creativecommons.org/ns#DerivativeWorks" />
      </cc:License>
    </rdf:RDF>
  </metadata>
  <g
     inkscape:groupmode="layer"
     id="layer2"
     inkscape:label="bund"
     transform="translate(-3.6470383,-2.2689014)" />
  <g
     inkscape:label="Layer 1"
     inkscape:groupmode="layer"
     id="layer1"
     transform="translate(-3.6470383,-2.2689014)">
    <g
       id="g190"
       transform="matrix(3.8110608,0,0,3.8110608,25.159464,-193.63881)">
      <path
         transform="scale(0.26458333)"
         inkscape:connector-curvature="0"
         id="path153"
         d="m 60.049122,197.28421 c -2.042841,0.0399 -4.106284,0.0668 -6.133268,0.20279 -2.741707,3.57328 -5.834265,6.93896 -8.022782,10.8974 -0.313769,0.74068 -0.273077,1.63997 -1.032414,2.14136 -2.057667,2.83155 -3.185579,6.21533 -4.579132,9.39881 -6.744632,16.58101 -11.708863,33.89056 -14.755765,51.52904 -0.364768,2.64633 -0.67727,5.36362 -0.343946,8.02411 1.03667,2.36105 3.583364,3.49876 5.400002,5.16311 1.10459,0.9985 2.636069,1.86332 3.087156,3.34666 -0.471539,1.07607 -1.635776,0.2231 -2.265885,-0.20697 -5.018063,-3.49159 -9.306981,-7.93472 -14.269449,-11.49571 -1.59733,-0.66061 -3.53517,-0.37958 -4.877802,-1.64736 -3.3008579,-2.33479 -6.8630438,-4.36448 -9.8167168,-7.14869 -0.7006689,-0.83293 -1.95853443,-1.73277 -1.71002412,-2.96506 0.51445632,-0.48453 1.11774612,-0.95848 1.21086122,-1.74272 0.5640166,-2.63735 0.3803727,-5.42162 -0.1617496,-8.04574 -0.230917,-1.24963 -1.66135824,-1.29423 -2.66452077,-1.14338 -1.55742173,0.23707 -3.35817583,0.29407 -4.58812403,1.39035 -0.7568309,0.7038 -1.112839,2.13291 -0.048003,2.73235 0.6736229,0.54463 1.8631725,0.24307 2.1246596,1.27348 0.4338188,1.09096 0.7014683,2.5778 -0.060526,3.57136 -0.8027766,-0.14306 -1.3270279,-1.12556 -1.9537817,-1.6329 -0.2947417,-0.30798 -1.1051573,-1.23406 -1.4001751,-0.4615 -0.3442469,1.43253 0.2393081,3.14959 -0.6737829,4.40098 -1.1858958,0.33856 -2.0720641,1.94947 -1.2466897,3.02455 1.9878853,1.32223 4.5731047,1.29283 6.5887172,2.59163 4.3631796,2.59199 7.99307,6.21332 11.8194346,9.50516 5.6378441,5.17239 11.3435191,10.31272 16.3968921,16.06852 0.830596,1.20056 2.08323,2.35269 2.235622,3.86842 -0.623801,0.76507 -2.157339,-0.0554 -2.101354,-1.00876 -0.441798,-1.23004 -1.897471,-2.2465 -3.217948,-2.01335 -1.110965,0.76791 -0.949702,2.40458 -1.146753,3.59451 -0.37218,7.91792 0.317831,15.89569 1.960024,23.64796 0.55935,2.11413 0.982152,4.59989 2.786267,6.04108 2.090677,0.82529 4.210826,-0.60362 6.045257,-1.46605 4.28071,-2.17072 8.111166,-5.1078 12.341328,-7.35852 1.661025,-0.68169 3.352406,-1.33917 4.71284,-2.57457 4.707446,-3.94462 9.159959,-8.197 14.068397,-11.90369 4.789764,-3.61139 9.702704,-7.19175 15.215603,-9.61987 6.235383,-2.53143 13.206105,-2.40648 19.747101,-1.3119 4.527018,0.77792 8.759318,2.63058 13.008568,4.30014 0.89133,0.40045 2.13813,0.40243 2.60295,-0.61778 1.39668,-2.77472 1.26088,-6.01338 1.45053,-9.03989 0.15741,-10.05396 -0.51442,-20.12523 -1.8975,-30.08272 -1.08901,-7.74162 -3.30654,-15.34038 -6.91518,-22.29269 -3.13782,-5.95405 -6.23402,-11.93609 -9.583992,-17.77454 -1.902088,-3.01449 -4.647187,-5.37905 -7.084287,-7.94695 -4.389908,-4.33035 -8.865846,-8.74726 -14.431704,-11.55401 -4.817724,-2.70367 -10.325039,-3.80889 -15.818955,-3.65845 z m 16.928751,20.13556 c 2.295252,0.93971 3.326656,3.92876 5.924559,4.33315 2.968872,0.19856 5.921626,-1.21647 8.869446,-0.61882 0.367823,0.12156 0.978817,0.40399 0.421243,0.77536 -1.349055,1.50054 -3.571625,1.45678 -5.410786,1.84986 -1.819707,0.0843 -3.799324,0.51127 -5.549229,-0.18819 -2.010335,-1.25371 -3.611964,-3.23262 -4.510903,-5.41705 -0.07809,-0.24517 -0.163376,-0.79749 0.25567,-0.73431 z m -29.32086,7.80712 c 1.58515,0.495 2.30803,2.23738 3.357052,3.39659 0.792097,1.48091 2.602335,1.65964 4.087605,1.3992 3.105488,-0.47007 6.289421,-1.34272 8.685781,-3.47675 0.706583,-0.40956 1.892886,-1.26744 2.600865,-0.45533 0.02747,1.21777 -1.251341,2.02236 -2.0697,2.76574 -2.455744,1.78725 -5.166784,3.61667 -8.280885,3.83573 -3.31449,0.0406 -6.718555,-1.69504 -8.13966,-4.7937 -0.296922,-0.77158 -0.998661,-1.80871 -0.492205,-2.61061 0.07363,-0.0481 0.164625,-0.0627 0.251147,-0.0609 z"
         style="opacity:1;vector-effect:none;fill:#ffcc00;fill-opacity:1;stroke:none;stroke-width:0.29379469;stroke-linecap:butt;stroke-linejoin:miter;stroke-miterlimit:4;stroke-dasharray:none;stroke-dashoffset:0;stroke-opacity:1" />
      <path
         transform="scale(0.26458333)"
         inkscape:connector-curvature="0"
         id="path155"
         d="m -19.16358,260.52321 c -0.622244,0.008 -0.807426,0.74756 -0.765815,1.2527 0.09095,1.47079 0.831135,2.84299 1.776736,3.94346 0.994765,0.99067 2.352837,1.63539 3.748803,1.77777 0.626194,0.006 1.46115,0.0816 1.855044,-0.51818 0.325357,-0.66906 -0.295908,-1.27215 -0.693861,-1.73827 -1.488122,-1.61569 -3.13555,-3.10241 -4.957457,-4.33365 -0.294975,-0.1777 -0.605421,-0.38582 -0.96345,-0.38383 z"
         style="opacity:1;vector-effect:none;fill:#ffcc00;fill-opacity:1;stroke:none;stroke-width:0.10387211;stroke-linecap:butt;stroke-linejoin:miter;stroke-miterlimit:4;stroke-dasharray:none;stroke-dashoffset:0;stroke-opacity:1" />
      <path
         transform="scale(0.26458333)"
         inkscape:connector-curvature="0"
         id="path157"
         d="m -14.461076,253.57196 c -0.706986,0.16358 -0.918862,1.00396 -1.018054,1.62694 -0.196081,1.89497 0.266821,3.81515 1.031747,5.54212 0.607681,1.4171 1.778398,2.51962 3.088186,3.29249 0.476912,0.26653 1.290653,0.38762 1.5674196,-0.21694 0.3707399,-0.91868 0.058994,-1.94064 -0.1732745,-2.85493 -0.7022531,-2.22603 -1.7401421,-4.35886 -3.0990591,-6.25848 -0.373508,-0.44634 -0.76751,-1.05914 -1.396965,-1.1312 z"
         style="opacity:1;vector-effect:none;fill:#ffcc00;fill-opacity:1;stroke:none;stroke-width:0.10387211;stroke-linecap:butt;stroke-linejoin:miter;stroke-miterlimit:4;stroke-dasharray:none;stroke-dashoffset:0;stroke-opacity:1" />
      <path
         transform="scale(0.26458333)"
         inkscape:connector-curvature="0"
         id="path159"
         d="m -9.7309007,250.64607 c -0.7445093,-0.0155 -1.3612363,0.62576 -1.3983173,1.35404 -0.121003,1.58696 0.782083,3.01325 1.6117056,4.28932 0.2462318,0.29131 0.4354807,0.81655 0.8737821,0.83563 0.3657556,-0.17537 0.3295194,-0.69331 0.4353756,-1.02969 0.1926972,-1.18653 0.5652267,-2.4041 1.4661887,-3.24864 0.3538976,-0.4226 -0.073377,-0.94803 -0.4255214,-1.20684 -0.7279721,-0.55766 -1.625391,-1.01435 -2.5632133,-0.99382 z"
         style="opacity:1;vector-effect:none;fill:#ffcc00;fill-opacity:1;stroke:none;stroke-width:0.10387211;stroke-linecap:butt;stroke-linejoin:miter;stroke-miterlimit:4;stroke-dasharray:none;stroke-dashoffset:0;stroke-opacity:1" />
      <path
         transform="scale(0.26458333)"
         inkscape:connector-curvature="0"
         id="path161"
         d="m 157.30983,267.98539 c -1.31383,0.19722 -2.33914,1.17959 -3.29617,2.02664 -2.1767,2.07941 -4.21334,4.39123 -6.87093,5.86918 -3.54543,2.12256 -7.66585,2.9951 -11.74528,3.22907 -4.70235,0.31754 -9.48849,0.75149 -13.93431,2.41849 -1.13684,0.49949 -2.49365,1.01178 -3.05671,2.20999 -0.17092,0.71412 -0.10985,1.78337 0.7651,1.9843 1.62553,0.37421 3.30653,9.7e-4 4.94421,-0.1 5.26867,-0.55099 10.59602,-1.09113 15.88502,-0.54292 1.05991,0.1699 2.1985,0.24625 3.12919,0.82188 0.39433,0.3338 0.33036,0.93538 0.70683,1.29643 1.55706,1.93983 3.58052,3.4541 5.63898,4.82444 1.00401,0.56979 2.02413,1.36206 3.22873,1.34953 1.029,-0.17648 2.12785,-1.09666 2.00326,-2.22867 -0.16042,-1.05102 -1.31656,-1.35606 -2.19232,-1.56445 -1.16021,-0.36303 -2.40437,-0.53163 -3.49727,-1.07764 -0.17631,-0.20575 0.2964,-0.33606 0.43255,-0.41515 2.98954,-1.06142 6.31135,-0.9904 9.18321,-2.4132 0.75848,-0.37824 1.63482,-1.03682 1.48653,-1.99909 -0.0958,-0.77888 -0.88195,-1.37937 -1.66266,-1.30412 -2.65338,-0.13108 -5.08815,1.24618 -7.72839,1.27212 -0.45599,-0.034 -1.13363,0.0813 -1.40878,-0.3715 0.234,-0.46714 0.88104,-0.5463 1.32199,-0.75588 3.23639,-1.04615 6.35259,-2.68158 8.79466,-5.07737 0.41047,-0.43767 1.08331,-1.14249 0.6063,-1.75525 -0.56831,-0.47391 -1.40591,-0.28956 -2.08709,-0.26297 -1.87348,0.20621 -3.56246,1.08124 -5.28695,1.76864 -0.22229,0.0637 -0.82647,0.30052 -0.75935,-0.13288 0.52928,-1.55694 1.73504,-2.76124 2.68572,-4.06874 1.08534,-1.46311 2.35186,-2.81551 3.23692,-4.41494 0.11496,-0.33434 -0.19406,-0.62387 -0.52299,-0.58595 z"
         style="opacity:1;vector-effect:none;fill:#ffcc00;fill-opacity:1;stroke:none;stroke-width:0.14689735;stroke-linecap:butt;stroke-linejoin:miter;stroke-miterlimit:4;stroke-dasharray:none;stroke-dashoffset:0;stroke-opacity:1" />
      <path
         transform="scale(0.26458333)"
         inkscape:connector-curvature="0"
         id="path163"
         d="m 119.84601,305.35143 c -6.38567,0.17761 -12.36558,2.83449 -18.70046,3.38325 -6.273064,0.81633 -12.682246,0.77481 -18.858152,2.2505 -4.010764,1.42292 -8.353041,1.386 -12.556051,1.77153 -3.767606,0.3971 -7.70841,0.16436 -11.302698,1.52714 -2.550905,1.31463 -4.741551,3.22581 -7.199738,4.70514 -6.771023,4.44102 -13.788928,8.48403 -20.902452,12.34743 0.09877,3.66335 0.805674,7.35478 1.198259,11.02036 1.975912,15.33088 4.36162,30.63347 7.879342,45.69303 1.044395,4.66432 2.714073,9.25543 5.418993,13.22228 2.232357,3.00713 6.251872,3.81543 9.791579,3.60438 8.309348,0.0641 16.541972,-1.23052 24.761856,-2.27938 8.211505,-1.36905 16.329453,-3.42142 24.155902,-6.26651 4.66162,-1.605 8.80943,-4.88501 10.96943,-9.3727 2.8295,-5.65624 3.15095,-12.10631 4.16533,-18.24269 1.55455,-10.68643 1.74205,-21.50288 2.70249,-32.24327 0.44763,-3.38149 0.9777,-6.76556 0.99707,-10.19113 0.18119,-6.94437 0.23153,-13.90612 -0.29238,-20.83788 -0.65096,-0.21031 -1.51237,-0.0402 -2.22832,-0.0915 z"
         style="opacity:1;vector-effect:none;fill:#ffcc00;fill-opacity:1;stroke:none;stroke-width:0.29379469;stroke-linecap:butt;stroke-linejoin:miter;stroke-miterlimit:4;stroke-dasharray:none;stroke-dashoffset:0;stroke-opacity:1" />
      <path
         transform="scale(0.26458333)"
         inkscape:connector-curvature="0"
         id="path165"
         d="m 89.35955,297.08522 c -2.599287,-6.1e-4 -5.085003,0.86946 -7.529482,1.65541 -3.205123,1.0754 -6.232853,2.61989 -9.143034,4.3272 -2.46866,1.48524 -4.869292,3.11184 -7.019972,5.03531 -0.168352,0.15138 -0.407878,0.35654 -0.257153,0.6044 0.326017,0.62881 0.968343,1.05796 1.624801,1.28478 1.539746,0.35817 3.141156,0.23783 4.702461,0.11448 2.910013,-0.28733 5.79428,-0.78617 8.696644,-1.12734 3.400553,-0.44835 6.817942,-0.74442 10.224955,-1.1464 5.41231,-0.68602 10.80027,-1.57889 16.13713,-2.71263 1.71398,-0.39282 3.4519,-0.73704 5.09938,-1.36443 0.29636,-0.0818 0.73418,-0.38092 0.4522,-0.71292 -0.57778,-0.58038 -1.3848,-0.85411 -2.13169,-1.14627 -0.97761,-0.33386 -2.01136,-0.63768 -3.04891,-0.5741 -0.77073,-0.13822 -1.45936,-0.56682 -2.15677,-0.92143 -1.88236,-1.05632 -4.02484,-1.48198 -6.09994,-1.98937 -2.426574,-0.53548 -4.88402,-0.93603 -7.353309,-1.21267 -0.730026,-0.0727 -1.463394,-0.11942 -2.197311,-0.11402 z"
         style="opacity:1;vector-effect:none;fill:#d4aa00;fill-opacity:1;stroke:none;stroke-width:0.07344867;stroke-linecap:butt;stroke-linejoin:miter;stroke-miterlimit:4;stroke-dasharray:none;stroke-dashoffset:0;stroke-opacity:1" />
      <path
         transform="scale(0.26458333)"
         inkscape:connector-curvature="0"
         id="path167"
         d="m 77.168224,459.76488 c -0.67451,0.0988 -1.103411,0.71759 -1.591524,1.13329 -0.80649,0.75638 -1.409625,1.74792 -1.662485,2.82554 -0.0525,0.54198 -0.137123,1.32219 0.438065,1.62141 0.763376,0.22867 1.566355,0.17718 2.329539,0.3947 3.413222,0.81211 6.64701,2.2478 9.800782,3.77259 2.676598,1.28034 5.210991,2.82947 7.677968,4.47225 1.903965,1.18533 3.804817,2.43235 5.919281,3.21307 0.40368,0.10045 0.91769,0.31787 1.29759,0.0546 0.2439,-0.39322 -0.13465,-0.84241 -0.34361,-1.16723 -1.194132,-1.59631 -3.000812,-2.56163 -4.789568,-3.33924 0.360342,-0.0776 0.896289,-0.057 1.320403,-0.0795 1.144627,-0.056 2.30771,0.0223 3.440015,-0.16434 0.44584,-0.13956 1.11956,-0.35652 1.12062,-0.9268 -0.11553,-0.56984 -0.74522,-0.82456 -1.22294,-1.03428 -0.949462,-0.37168 -1.994744,-0.43196 -2.932655,-0.82842 -0.230686,-0.0686 -0.357166,-0.35469 -0.117203,-0.50251 0.794594,-0.64248 1.912857,-0.6136 2.874918,-0.54024 0.77247,0.0765 1.52712,0.41566 2.30734,0.34568 0.33746,-0.12809 0.0527,-0.5291 -0.10244,-0.69337 -0.77135,-0.99588 -2.12284,-1.15096 -3.273578,-1.37268 -3.001488,-0.39234 -6.058605,-0.0556 -9.040624,-0.61067 -3.279709,-0.56369 -6.523488,-1.48967 -9.427406,-3.14864 -1.071853,-0.61869 -2.072255,-1.39852 -2.764843,-2.4399 -0.338002,-0.38444 -0.679587,-0.98132 -1.257645,-0.98528 z"
         style="opacity:1;vector-effect:none;fill:#ffcc00;fill-opacity:1;stroke:none;stroke-width:0.10387211;stroke-linecap:butt;stroke-linejoin:miter;stroke-miterlimit:4;stroke-dasharray:none;stroke-dashoffset:0;stroke-opacity:1" />
      <path
         transform="scale(0.26458333)"
         inkscape:connector-curvature="0"
         id="path169"
         d="m 64.873114,456.37424 c -0.7196,0.15305 -1.138217,0.85429 -1.720287,1.24914 -1.215912,0.85371 -2.713483,1.17553 -4.128469,1.52795 -3.931966,0.84274 -7.963857,1.16341 -11.982805,1.11413 -2.64193,0.0199 -5.280706,-0.18915 -7.863427,-0.7508 -1.77901,-0.372 -3.615208,-0.66481 -5.431783,-0.41524 -0.898685,0.18995 -1.552643,0.96827 -1.949651,1.75239 -0.23626,0.49738 -0.003,1.12442 0.517267,1.32219 1.162758,0.50229 2.476841,0.36068 3.703635,0.42687 -1.064644,0.28568 -2.369231,0.54939 -2.912977,1.6358 -0.354447,0.70601 -0.251583,1.53845 -0.151638,2.29277 0.03079,0.34152 0.342313,0.7253 0.713548,0.54064 0.651592,-0.2914 1.092572,-0.93191 1.784361,-1.14756 1.247677,-0.52348 2.647323,-0.54622 3.929555,-0.15446 0.262894,0.0878 -0.161313,0.24623 -0.242522,0.31311 -1.628162,0.86895 -3.507406,1.4472 -4.743703,2.90265 -0.279396,0.28665 -0.577226,0.88142 -0.157419,1.17781 0.575616,0.24257 1.202986,-0.0879 1.769704,-0.21097 4.641382,-1.49221 9.330679,-2.84464 13.963399,-4.36044 1.52153,-0.49393 3.091852,-0.90446 4.707176,-0.83209 1.975358,-0.0633 3.856043,0.67214 5.790481,0.96651 1.492179,0.25471 3.026697,0.29856 4.53026,0.1295 0.627085,-0.10734 1.312321,-0.43338 1.591524,-1.03391 0.164306,-0.88499 0.0672,-1.80137 0.02681,-2.69555 -0.174488,-1.63512 -0.52432,-3.25228 -0.968492,-4.83397 -0.135978,-0.36374 -0.2965,-0.92167 -0.774547,-0.91647 z"
         style="opacity:1;vector-effect:none;fill:#ffcc00;fill-opacity:1;stroke:none;stroke-width:0.10387211;stroke-linecap:butt;stroke-linejoin:miter;stroke-miterlimit:4;stroke-dasharray:none;stroke-dashoffset:0;stroke-opacity:1" />
      <path
         inkscape:connector-curvature="0"
         id="path21-6-7-9"
         d="m 24.618255,125.94365 c -0.90256,-0.61256 -2.18618,-1.28459 -2.852505,-1.49338 -2.728371,-0.85493 -2.961544,-0.97289 -2.987217,-1.51115 -0.01399,-0.29328 0.342582,-0.94217 0.792382,-1.44196 1.112357,-1.236 2.447435,-3.3465 3.435782,-5.4313 0.452063,-0.95361 1.131429,-2.27561 1.509698,-2.93782 0.935354,-1.63743 1.78551,-4.61441 1.718568,-6.01791 l -0.05507,-1.15459 -2.02009,0.68688 c -1.310604,0.44566 -3.20067,0.81032 -5.381482,1.03831 -1.848774,0.19328 -3.412914,0.44442 -3.47588,0.55807 -0.122517,0.22112 0.11717,1.30428 1.997933,9.0268 0.66285,2.72175 1.181229,5.1962 1.151958,5.49877 -0.02922,0.30256 -0.357757,0.74007 -0.729957,0.97223 -0.576261,0.35944 -0.890908,0.38175 -2.120387,0.14779 -1.130187,-0.21476 -1.668161,-0.19598 -2.477615,0.0864 -0.568672,0.19845 -1.731287,0.56838 -2.583568,0.8221 -1.9014573,0.5661 -2.1342578,0.41197 -2.4827234,-1.6436 -0.3517184,-2.0748 -0.031783,-2.32456 2.5131704,-1.96182 2.391898,0.34094 5.093045,0.12621 6.012793,-0.478 0.627725,-0.41236 0.678185,-0.57315 0.521814,-1.66322 -0.09523,-0.6637 -0.379645,-1.97166 -0.632104,-2.90658 -0.252458,-0.93492 -0.697936,-2.70164 -0.989949,-3.92604 -0.956422,-4.01022 -1.022009,-4.14647 -2.065824,-4.29119 C 11.401104,107.6428 9.7163592,104.45815 9.1010576,99.762215 8.5530215,95.5797 7.1998878,88.339303 6.9252931,88.12009 6.7530991,87.982621 6.3707688,87.345257 6.0756894,86.703745 5.3912668,85.215829 4.7653751,78.780377 5.2433191,78.145202 5.6723028,77.575081 4.9026398,76.670205 2.3222337,74.710917 1.1736541,73.838808 0.15159509,72.853025 0.05101046,72.520295 -0.08547963,72.06878 -0.37834869,71.887259 -1.1034807,71.804719 c -2.4354448,-0.277231 -3.583924,-0.620544 -4.1113653,-1.229021 -0.5869442,-0.677129 -0.5704783,-1.752975 0.034815,-2.274313 0.1790802,-0.154198 0.3919096,-0.58157 0.4729846,-0.94965 0.1468809,-0.666829 1.6478801,-1.932789 2.3302231,-1.965333 0.1973963,-0.0094 0.6053687,0.267203 0.9065862,0.614691 0.4374283,0.50464 0.75288418,0.609555 1.56717151,0.521242 l 1.01950309,-0.110574 0.098224,2.059419 0.098226,2.05942 1.4998585,0.901396 c 0.8249293,0.495786 1.7405288,1.102647 2.034679,1.348582 0.7595187,0.63501 0.9162305,0.556838 1.1540009,-0.575657 0.8137853,-3.876542 1.6415861,-7.16669 2.1379841,-8.497561 0.2182699,-0.585197 0.42458,-1.257144 0.4584698,-1.493223 0.087663,-0.61055 0.697161,-2.097997 1.4114772,-3.444588 0.336968,-0.63524 0.561069,-1.152514 0.498002,-1.149513 -0.176872,0.0084 0.561149,-1.913549 0.892604,-2.324559 0.161709,-0.200532 0.681898,-0.979342 1.155972,-1.73066 1.225258,-1.941873 2.037756,-2.37519 3.885086,-2.072011 4.161362,0.682974 7.236622,2.871938 9.868617,7.024454 0.782711,1.234893 1.426105,2.30823 1.429777,2.385185 0.0037,0.07704 0.460514,0.981031 1.015187,2.009029 1.199736,2.223526 1.847761,4.572788 2.279402,8.263366 l 0.317974,2.718833 0.810574,-0.22424 c 0.445818,-0.123343 2.036256,-0.359525 3.534309,-0.524872 2.551489,-0.281612 2.761374,-0.348879 3.319232,-1.06374 0.682638,-0.874772 2.7477,-1.968595 3.344646,-1.771595 0.572653,0.188972 0.526003,0.756673 -0.116252,1.41492 l -0.552701,0.566443 0.586695,-0.02799 c 0.719731,-0.03438 1.059068,0.640354 0.670756,1.333611 -0.188951,0.33735 -0.195832,0.668938 -0.01995,0.962943 0.298461,0.498959 0.0058,1.060599 -0.821855,1.577544 -0.276534,0.17267 -0.492434,0.586539 -0.479809,0.919671 0.05652,1.491463 -1.766313,1.415614 -3.395527,-0.141313 -1.032843,-0.986992 -1.103873,-1.010098 -2.848861,-0.926883 -2.630881,0.125482 -3.939508,0.609062 -4.084264,1.509246 -0.22452,1.396154 -0.252454,1.529177 -0.419519,1.99715 -0.138193,0.387146 -0.02709,0.46484 0.620428,0.433954 1.580845,-0.0754 1.813979,0.949972 1.429936,6.289007 -0.162992,2.265927 -0.383194,5.37556 -0.489325,6.91034 -0.106138,1.53477 -0.281436,3.152297 -0.38954,3.594521 -0.108115,0.442202 -0.267919,1.671953 -0.35513,2.732764 -0.161021,1.958796 -0.618804,3.343656 -1.359119,4.111556 -1.027595,1.06589 -2.290119,1.9554 -2.810611,1.98023 -0.313332,0.0149 -0.565595,0.11638 -0.560583,0.22545 0.005,0.10901 -0.118977,1.20494 -0.275515,2.43535 -0.248258,1.95134 -0.537898,2.74347 -2.267201,6.20048 -1.090414,2.17984 -2.337173,4.51663 -2.770566,5.19289 -0.612762,0.95615 -0.728453,1.3449 -0.520294,1.74817 0.350267,0.67856 2.288446,1.35906 4.263649,1.49697 0.939673,0.0656 1.802695,0.29632 2.137407,0.57139 0.653784,0.5373 0.670274,0.62424 0.309576,1.63222 -0.149321,0.41724 -0.243253,0.85922 -0.208746,0.98215 0.10254,0.36558 -0.481205,0.98861 -0.944213,1.0077 -0.236671,0.009 -1.16872,-0.48345 -2.071282,-1.09605 z m 1.95504,-0.11728 c -0.20562,-0.22501 -0.620931,-0.50433 -0.922918,-0.62069 -0.423269,-0.16309 -0.320072,-0.20362 0.450448,-0.17691 1.101945,0.0382 1.21143,-0.41992 0.147701,-0.6181 -0.441754,-0.0823 -0.544483,-0.18967 -0.325319,-0.34 0.1762,-0.12081 0.590681,-0.15196 0.921136,-0.0691 0.493191,0.12367 0.538005,0.0907 0.250161,-0.18385 -0.200612,-0.19138 -1.000015,-0.32011 -1.868534,-0.30089 -1.684129,0.0373 -3.88987,-0.70638 -4.436835,-1.49582 -0.312059,-0.4504 -0.371787,-0.45328 -0.788882,-0.0377 -0.483698,0.48161 -0.581133,1.16804 -0.162969,1.1481 0.767018,-0.0365 3.311681,1.04618 4.741639,2.0176 1.67464,1.13763 2.747953,1.50232 1.994366,0.67764 z M 11.007562,123.843 c 0.574651,-0.1697 1.55134,-0.47561 2.170416,-0.67979 0.852862,-0.28127 1.372393,-0.30997 2.144162,-0.11829 1.238074,0.3075 2.067313,0.28732 2.256915,-0.0549 0.0779,-0.14055 0.04045,-0.73886 -0.08303,-1.32956 -0.212873,-1.01755 -0.248785,-1.04999 -0.683426,-0.61724 -0.663308,0.66042 -4.391496,1.01499 -6.307234,0.59984 -1.0023751,-0.21722 -1.5734319,-0.22913 -1.7897417,-0.0373 -0.5145669,0.45627 -0.3469285,0.74544 0.4329432,0.74686 0.6246121,0.001 0.6444588,0.0222 0.1393225,0.14421 -0.382798,0.0929 -0.5801032,0.33293 -0.5632939,0.68544 0.021132,0.4431 0.093127,0.48113 0.3926367,0.2074 0.2017078,-0.18434 0.6432771,-0.29871 0.9811922,-0.25426 0.566949,0.0746 0.549275,0.10975 -0.2286275,0.45448 -0.8652391,0.38344 -1.1819695,1.01536 -0.3628066,0.72388 0.2507077,-0.0893 0.9259761,-0.30104 1.5006401,-0.47073 z m 9.505432,-17.298 c 2.391166,-0.30076 6.553004,-1.43775 7.753657,-2.11824 1.5545,-0.88105 2.365087,-2.22972 2.736391,-4.552794 0.513592,-3.21336 0.704905,-5.022999 0.864349,-8.175634 0.08124,-1.60643 0.204503,-3.102275 0.273903,-3.324114 0.187968,-0.600823 0.295405,-3.602035 0.204234,-5.70476 l -0.08024,-1.850353 -0.793622,0.02163 c -0.436487,0.01187 -1.264219,0.151469 -1.839393,0.310148 -1.730518,0.477433 -2.505445,0.597538 -5.138263,0.796378 -1.385087,0.104614 -2.686649,0.306244 -2.892357,0.448086 -0.20572,0.141831 -1.632533,0.324888 -3.17073,0.406784 -2.349159,0.125043 -2.907833,0.237822 -3.491074,0.704641 -0.845817,0.67698 -3.642726,2.424513 -5.5208988,3.449508 l -1.3825684,0.754523 0.2252278,1.889139 c 0.7451041,6.249754 2.0533824,13.305498 2.7666534,14.921108 1.293463,2.9297 1.660626,3.00805 9.484722,2.02393 z M 8.8577866,86.798748 c 0.6291121,-0.341797 1.5749594,-0.923334 2.1019234,-1.292229 0.526964,-0.368895 1.117463,-0.678325 1.312219,-0.687616 0.194758,-0.0093 0.802919,-0.428455 1.351476,-0.9315 2.583389,-2.369006 4.390793,-3.740667 6.500702,-4.933473 2.336969,-1.321168 5.870918,-1.200385 9.083496,0.310465 0.258769,0.121698 0.581818,0.215965 0.717871,0.209472 0.586637,-0.028 0.820132,-2.127185 0.622005,-5.592231 C 30.217196,68.105067 29.639699,65.55522 27.965811,62.482311 27.424359,61.488335 26.684363,60.10244 26.321375,59.402557 25.559474,57.933555 25.551009,57.923352 23.077643,55.494865 20.719882,53.179862 18.57236,52.190774 16.014259,52.241631 l -1.69766,0.03377 -1.100175,1.375731 c -0.605105,0.756667 -1.098134,1.514705 -1.095637,1.684561 0.0021,0.16987 -0.101124,0.353579 -0.230279,0.408313 -0.312493,0.132403 -2.0196325,4.360911 -2.9803958,7.382311 -0.9917653,3.118937 -2.1081677,7.959919 -2.2277642,9.66011 -0.093383,1.327485 -0.091108,1.331832 1.1935782,2.285971 0.8979079,0.666881 1.2073159,1.043751 1.0231943,1.246311 C 8.6546259,76.587691 8.2239868,76.272622 4.804418,73.322728 4.6036477,73.14953 4.2644604,73.016164 4.0506732,73.026365 3.8368863,73.036607 3.5127267,72.934341 3.3303286,72.799144 3.1479227,72.663986 2.4562537,72.190379 1.7932944,71.746702 0.38955179,70.807264 -0.21080741,70.047003 0.28658119,69.838706 0.48620154,69.754948 0.58734863,69.202607 0.5492293,68.403376 0.49208251,67.205265 0.43740768,67.106361 -0.15183955,67.13447 c -0.35150439,0.01682 -0.8237704,0.111648 -1.04948955,0.210841 -0.5214759,0.22914 -0.5051174,0.922849 0.0212,0.897747 0.24666007,-0.01176 0.40833526,0.230694 0.42794271,0.641791 0.0370713,0.777342 -0.1650012,0.846034 -0.67977961,0.231103 -0.33922,-0.405227 -0.3707546,-0.379637 -0.3468821,0.281429 0.014065,0.399966 -0.079948,0.732234 -0.2097494,0.738429 -0.1298203,0.0061 -0.2948706,0.189598 -0.3668007,0.407598 -0.094579,0.286596 0.1776747,0.463821 0.9832635,0.640055 0.89848179,0.196557 1.79465488,0.865783 4.6313461,3.45846 3.5607752,3.254472 4.8616324,4.81242 4.0505767,4.851108 -0.2217754,0.01058 -0.411115,-0.146433 -0.4207731,-0.348917 -0.019036,-0.399169 -0.7459674,-0.750195 -0.9052335,-0.437148 -0.5240042,1.029965 0.028168,7.028366 0.7595427,8.251095 0.3770383,0.630347 0.7069884,0.605504 2.1145129,-0.159291 z M 13.849749,61.446687 c -0.607553,-0.213166 -1.048609,-0.656107 -1.326051,-1.331746 -0.331195,-0.806494 0.261623,-0.776712 0.792343,0.03988 0.488413,0.751418 0.588728,0.786321 1.681824,0.585302 0.639324,-0.117565 1.350381,-0.400916 1.58012,-0.62967 0.446557,-0.444619 1.030454,-0.578438 1.046604,-0.239871 0.02476,0.519381 -1.919567,1.75483 -2.775845,1.763772 -0.247958,0.0027 -0.697519,-0.08183 -0.998998,-0.187593 z m 7.836505,-2.161642 c -0.577767,-0.08061 -1.685906,-1.502866 -1.408624,-1.807928 0.08885,-0.09772 0.44921,0.14983 0.80085,0.550113 0.601757,0.684997 0.719237,0.713289 1.997865,0.481229 1.25816,-0.228351 1.800904,-0.01757 1.133548,0.440188 -0.335862,0.230365 -1.843285,0.431325 -2.523639,0.336398 z M 23.1596,81.507078 c 2.445973,-0.231193 6.57334,-1.022525 6.562099,-1.258134 -0.0088,-0.184387 -1.04965,-0.561267 -1.347697,-0.487982 -0.07205,0.01766 -0.396861,-0.124496 -0.721926,-0.315994 -0.325052,-0.191497 -1.421673,-0.480449 -2.436915,-0.64209 -1.690867,-0.269228 -1.991086,-0.246103 -3.57453,0.275387 -1.373546,0.452382 -3.245742,1.545947 -4.296941,2.509901 -0.0657,0.06029 0.06105,0.219947 0.281804,0.354798 0.238128,0.145459 1.096514,0.139635 2.110722,-0.01434 0.940145,-0.142746 2.480676,-0.332437 3.423384,-0.421543 z M 40.898369,77.16268 c 0.05177,-0.184497 -0.0969,-0.386017 -0.330511,-0.447786 -0.2336,-0.06173 -0.623102,-0.16527 -0.865567,-0.229972 -0.662245,-0.176742 -0.355254,-0.343138 1.079602,-0.585212 1.295121,-0.218489 1.866454,-0.660722 1.400621,-1.084144 -0.146157,-0.132836 -0.673393,-0.09565 -1.283364,0.09052 -0.569414,0.173785 -1.179491,0.236117 -1.355732,0.138476 -0.197167,-0.109239 -0.03557,-0.252487 0.420067,-0.372393 0.922963,-0.242886 2.411794,-1.252744 2.394091,-1.623885 -0.01381,-0.2894 -0.860278,-0.182814 -1.656999,0.208643 -0.784625,0.385489 -0.732774,0.06553 0.170569,-1.052943 0.475906,-0.589239 0.863485,-1.109192 0.86128,-1.155459 -0.01554,-0.325626 -0.700853,0.08342 -1.366243,0.815453 -1.190197,1.309431 -2.597791,1.925591 -4.636397,2.029558 -2.51089,0.128071 -4.423399,0.704965 -4.393806,1.325408 0.0212,0.444394 0.206316,0.467219 2.064993,0.254514 2.385783,-0.273008 4.562257,-0.146554 4.581949,0.266199 0.02126,0.445607 2.013072,1.955736 2.441585,1.851139 0.208806,-0.05101 0.422065,-0.243631 0.473869,-0.428146 z M -3.3233696,70.5139 c -0.012268,-0.257258 -1.482076,-1.568174 -1.7442244,-1.555658 -0.3473395,0.01661 -0.1411478,0.8926 0.3188146,1.354565 0.4623178,0.464335 1.444573,0.602901 1.4254098,0.201093 z m 0.746624,-1.006903 c -0.034955,-0.733001 -0.9791452,-2.497429 -1.2723401,-2.377637 -0.4401859,0.179396 -0.1970614,1.744072 0.3573692,2.300927 0.5811898,0.583723 0.9405921,0.613848 0.9149686,0.07676 z m 0.737325,-2.594668 c 0.1490181,-0.104157 0.010955,-0.301683 -0.3213831,-0.459636 -0.7523233,-0.357631 -1.0085466,0.242215 -0.4744166,1.110631 0.350277,0.569494 0.3725986,0.572727 0.4514897,0.06539 0.045663,-0.293555 0.2005807,-0.615929 0.34431,-0.716381 z"
         style="fill:#000000;stroke-width:0.26458341" />
    </g>
  </g>
</svg>
