<?xml version="1.0" encoding="UTF-8" standalone="no"?>
<!-- Created with Inkscape (http://www.inkscape.org/) -->

<svg
   xmlns:dc="http://purl.org/dc/elements/1.1/"
   xmlns:cc="http://creativecommons.org/ns#"
   xmlns:rdf="http://www.w3.org/1999/02/22-rdf-syntax-ns#"
   xmlns:svg="http://www.w3.org/2000/svg"
   xmlns="http://www.w3.org/2000/svg"
   xmlns:sodipodi="http://sodipodi.sourceforge.net/DTD/sodipodi-0.dtd"
   xmlns:inkscape="http://www.inkscape.org/namespaces/inkscape"
   width="152.84787mm"
   height="295.68192mm"
   viewBox="0 0 152.84787 295.68192"
   version="1.1"
   id="svg8"
   inkscape:version="0.92.3 (2405546, 2018-03-11)"
   sodipodi:docname="Cartoon character 102.svg">
  <title
     id="title83">Cartoon character 102</title>
  <defs
     id="defs2" />
  <sodipodi:namedview
     id="base"
     pagecolor="#ffffff"
     bordercolor="#666666"
     borderopacity="1.0"
     inkscape:pageopacity="0.0"
     inkscape:pageshadow="2"
     inkscape:zoom="0.34126189"
     inkscape:cx="-464.90404"
     inkscape:cy="538.27816"
     inkscape:document-units="mm"
     inkscape:current-layer="layer1"
     showgrid="false"
     fit-margin-top="0"
     fit-margin-left="0"
     fit-margin-right="0"
     fit-margin-bottom="0"
     inkscape:window-width="1600"
     inkscape:window-height="845"
     inkscape:window-x="0"
     inkscape:window-y="27"
     inkscape:window-maximized="1" />
  <metadata
     id="metadata5">
    <rdf:RDF>
      <cc:Work
         rdf:about="">
        <dc:format>image/svg+xml</dc:format>
        <dc:type
           rdf:resource="http://purl.org/dc/dcmitype/StillImage" />
        <dc:title>Cartoon character 102</dc:title>
        <dc:date>2022</dc:date>
        <dc:creator>
          <cc:Agent>
            <dc:title>Doodleguy</dc:title>
          </cc:Agent>
        </dc:creator>
        <dc:rights>
          <cc:Agent>
            <dc:title>public domain</dc:title>
          </cc:Agent>
        </dc:rights>
        <dc:description>www.redbubble.com/doodleguyart</dc:description>
        <dc:contributor>
          <cc:Agent>
            <dc:title>Doodleguy</dc:title>
          </cc:Agent>
        </dc:contributor>
        <cc:license
           rdf:resource="http://creativecommons.org/publicdomain/zero/1.0/" />
      </cc:Work>
      <cc:License
         rdf:about="http://creativecommons.org/publicdomain/zero/1.0/">
        <cc:permits
           rdf:resource="http://creativecommons.org/ns#Reproduction" />
        <cc:permits
           rdf:resource="http://creativecommons.org/ns#Distribution" />
        <cc:permits
           rdf:resource="http://creativecommons.org/ns#DerivativeWorks" />
      </cc:License>
    </rdf:RDF>
  </metadata>
  <g
     inkscape:groupmode="layer"
     id="layer2"
     inkscape:label="bund"
     transform="translate(-3.5504575,-0.67425846)" />
  <g
     inkscape:label="Layer 1"
     inkscape:groupmode="layer"
     id="layer1"
     transform="translate(-3.5504575,-0.67425846)">
    <g
       id="g81"
       transform="matrix(0,-1.4904775,1.4904775,0,-213.89685,230.23103)"
       style="stroke-width:0.67092592">
      <path
         transform="scale(0.26458333)"
         inkscape:connector-curvature="0"
         id="path24"
         d="m 17.671448,555.34089 c -5.21951,0.25268 -7.658466,5.96052 -9.8087835,9.93525 -6.4250768,14.20928 -10.5421805,29.35127 -17.2290694,43.46321 -4.7850111,9.501 -11.0834741,18.38507 -18.7644551,25.76889 -4.913521,4.77187 -11.425025,7.09935 -17.858154,8.92958 -2.473663,1.83436 -1.212101,5.63617 -2.113238,8.23186 -2.054774,14.98834 -5.680654,29.85608 -6.020109,45.02593 0.07529,2.90648 3.808921,3.54521 5.427964,5.45123 7.278967,6.37378 15.451311,12.37463 20.243197,20.97905 4.374272,9.50426 3.628351,20.36683 4.425571,30.57763 0.932345,18.28312 0.577403,36.6921 2.993991,54.86395 0.343573,2.16116 1.41792,4.58026 -0.910432,5.91345 -5.528481,4.77568 -12.205747,7.94472 -18.637191,11.24545 -1.440465,10.97603 1.415881,21.92803 3.693849,32.59004 0.562511,3.81748 5.392891,3.02765 8.130355,3.57915 6.952275,1.16278 14.810996,-0.0929 20.9681877,3.94817 8.38934375,6.9484 13.1785329,17.09603 20.3500603,25.11028 5.69023,1.75206 11.842658,-0.25657 17.417962,-1.67755 13.437435,-3.94245 26.928309,-7.75921 40.329914,-11.78057 6.189513,-2.51963 12.815043,-4.46467 18.282073,-8.41157 -4.456457,-4.57375 -10.843563,-7.10739 -16.496392,-10.06222 -8.023554,-3.01436 -16.210136,-6.50301 -22.050754,-13.05292 -5.683106,-5.58394 -9.472481,-13.09481 -11.32227,-20.6604 2.3486,-8.83739 3.77875,-19.73514 12.508024,-24.72709 7.934202,-5.05654 18.421334,-5.12389 26.533789,-0.42088 5.142025,2.35101 9.639834,5.79464 14.340351,8.83043 6.054415,0.53677 12.458292,-1.90363 18.390322,0.42897 5.56536,2.04107 11.91383,5.64422 13.27702,11.86261 -0.19059,3.8195 -3.57999,6.87413 -3.64428,10.66876 2.32799,1.51075 5.68095,0.55144 8.35897,0.86504 2.28449,0.14442 4.97514,0.0335 5.79725,-2.5597 1.20979,-1.25016 2.85703,-3.75496 4.59226,-3.57851 -0.76226,2.21111 -4.28021,4.80181 -2.28955,7.22784 2.94069,1.78519 5.87922,-1.88484 8.276,-3.13031 0.70828,-0.473 2.94658,-2.10952 1.58336,-0.21449 -0.62105,1.50437 -2.62926,3.04136 -2.29461,4.70964 17.85522,3.35677 35.94117,6.12844 54.16324,6.04163 15.23818,0.43091 30.57917,-1.32109 45.13508,-5.90827 16.36746,-3.7037 32.3736,-8.76495 48.20168,-14.29463 22.87571,-6.94764 46.42822,-11.40153 69.82699,-16.21712 5.96655,-1.55696 11.96293,0.67535 16.96176,3.89619 12.79308,6.52995 25.72557,13.25642 39.67624,16.94557 9.18716,0.97467 18.53509,0.88593 27.7408,0.15884 8.66395,-1.76822 14.95115,-8.95241 19.88667,-15.81343 3.49983,-4.72509 5.01935,-10.87834 9.34846,-14.94537 5.12166,-2.55945 11.15076,-2.55035 16.65963,-3.86581 15.35306,-2.2012 30.36066,-6.93495 43.81055,-14.73153 10.37002,-6.02523 21.11881,-12.10899 28.62916,-21.7306 7.33926,-8.20128 13.90554,-18.14149 13.90854,-29.56077 0.67445,-7.88434 -1.26684,-15.93757 -6.05568,-22.30952 -13.31966,-19.89663 -35.38788,-33.24122 -58.89445,-37.13919 -8.72731,-1.789 -17.48669,-3.89198 -26.46834,-3.33862 -28.31424,-0.25457 -56.56577,2.24819 -84.61087,5.96065 -12.99861,1.05588 -26.29945,2.47241 -39.21752,0.0238 -8.3675,-1.94808 -14.32498,-8.63634 -22.02635,-12.04735 -4.92432,-2.64043 -9.99757,-5.09379 -15.50898,-6.1108 -17.10762,-5.27183 -33.43028,-12.72002 -50.22793,-18.86249 -19.37017,-7.24788 -38.18035,-16.05354 -57.93686,-22.22259 -35.73308,-9.33304 -71.71106,-17.76501 -107.3497,-27.43082 -23.067304,-6.19927 -44.769847,-16.5223 -67.62096,-23.3634 -8.015074,-1.9682 -16.255047,-3.05547 -24.512342,-3.06455 z m 158.794012,95.14569 c 0.18861,1.27952 -2.18287,2.17091 -3.05848,2.99373 -9.33951,5.49842 -19.62935,9.20698 -29.54549,13.53456 -18.53417,8.12574 -36.37959,17.71326 -54.552042,26.6 -3.458383,2.17492 -8.00158,3.49028 -10.362204,6.9739 0.384073,2.60799 3.81151,3.46534 5.52744,5.06526 9.173627,5.71323 18.181906,12.00449 28.283776,15.97379 4.12112,0.1667 8.08355,-2.04079 12.08519,-2.92088 22.0302,-7.33214 44.7278,-12.34654 66.84441,-19.40808 8.14954,-2.33882 16.42176,-4.95793 24.82292,-5.88026 -2.05995,2.60951 -6.09641,2.48419 -9.00563,3.6744 -21.46301,5.50036 -42.64402,12.0641 -64.03959,17.83235 -8.7271,2.78257 -17.88201,4.78877 -25.96327,9.20854 -2.06695,1.31437 1.24238,2.92929 1.95265,3.96803 2.00512,2.15135 5.13073,3.67412 6.40429,6.32942 -2.31939,-0.20112 -4.24247,-2.77187 -6.22367,-3.95819 -3.30786,-2.81226 -7.89371,-5.72167 -12.25165,-3.31113 -1.8076,0.47274 -4.69633,2.39622 -2.72764,4.41218 2.86447,3.43316 7.9725,4.86033 10.21145,8.63416 -5.62261,-1.62776 -9.60454,-6.53011 -14.48401,-9.52853 -4.337705,-0.0303 -8.655811,2.16283 -11.978952,4.85026 -1.464453,1.79043 0.813906,4.08974 2.718531,4.17341 8.594395,3.41398 15.746221,10.83253 18.612911,19.64185 1.5967,5.16201 -3.42316,9.45581 -8.00081,10.53015 -7.47506,2.51164 -15.028318,-0.96415 -22.504047,-1.3618 -2.063105,1.22128 -1.050486,4.52157 -2.087208,6.4569 -2.555084,7.03245 -11.122433,8.53876 -17.738774,8.2325 -10.227522,-0.62783 -20.876873,-3.5008 -28.728246,-10.36929 -6.472739,-7.24707 -9.384151,-17.3318 -9.465805,-26.9223 0.958483,-9.86466 3.285923,-20.04405 8.991516,-28.31492 5.868673,-8.64451 16.819718,-10.38496 26.012532,-13.50822 1.183127,-0.16438 1.592121,-1.496 0.274182,-1.93445 -2.727638,-2.38392 -6.516883,-3.85834 -8.755568,-6.63294 1.987782,-1.15164 4.432582,1.07757 6.118178,2.04957 3.61047,2.68361 7.944997,6.33935 12.761833,4.53077 1.966838,-0.53043 3.791359,-3.01104 1.6896,-4.58823 -2.232831,-2.36045 -5.983366,-3.54439 -7.622424,-6.26568 3.796887,0.21912 6.541619,3.7114 9.800693,5.32881 1.992562,2.06613 4.73415,1.03153 6.83436,-0.21256 15.958233,-7.60476 31.966048,-15.12207 47.880328,-22.80747 14.63742,-8.5554 30.77831,-14.03253 46.1119,-21.16147 1.71055,-0.65966 3.3526,-1.57186 5.15682,-1.90814 z m 210.61008,27.16917 c 3.19992,3.59082 6.46234,7.40369 11.03096,9.35249 9.28257,4.17198 19.32444,6.65175 28.00789,12.15196 11.97407,7.9419 22.47139,18.1734 31.03601,29.69142 5.11206,7.18241 9.68168,14.9957 12.81066,23.15122 -0.92661,14.0909 -1.99495,29.53072 -11.22931,40.95845 -3.60459,4.46674 -8.81001,8.95451 -14.96763,7.61433 -9.52578,-2.09734 -18.07768,-7.43552 -26.18778,-12.72461 -17.62751,-11.95272 -29.55767,-31.08847 -34.95042,-51.48118 -1.56284,-9.4489 -1.01488,-19.18838 -0.47046,-28.71408 0.89946,-7.37676 4.68118,-13.94267 8.87596,-19.89883 0.62562,-3.77946 -3.51519,-6.54977 -4.0004,-10.11129 z m -111.53379,18.74747 c 4.89912,0.71834 9.56268,3.79982 12.38364,7.85512 0.61326,0.8547 0.2592,3.44985 -1.00061,1.56515 -1.84552,-1.2656 -3.23026,-4.07018 -5.49271,-4.34743 -1.1766,3.08204 0.13587,6.69699 0.14483,9.92587 1.4424,10.63608 1.09377,21.44059 -1.12925,31.93775 -2.04022,14.83988 -2.12334,29.9347 -1.12572,44.86027 1.03441,5.34762 0.90959,10.94139 2.34082,16.18182 1.36731,2.17188 3.56833,-1.52958 4.92412,-0.91663 -1.37919,2.15626 -4.17667,3.93143 -6.79786,3.92553 -3.12401,-2.14701 -4.68765,-6.04243 -6.68353,-9.18251 -0.37692,-0.50949 -1.10156,-2.60287 0.12141,-1.5166 0.68145,0.98944 2.8418,2.11237 2.90975,0.0779 0.055,-7.01504 -0.97425,-14.02931 -0.60704,-21.07547 0.29568,-12.77924 -0.043,-25.73062 2.80554,-38.2588 0.9723,-11.93491 0.87468,-24.0615 -0.93686,-35.91056 -0.0738,-1.77559 -1.74849,-4.23962 -3.64023,-2.64772 -1.84559,0.77061 -3.52798,2.99538 -5.53622,2.88042 0.75116,-2.52505 3.65238,-4.24824 6.0087,-5.20033 0.42759,-0.11058 0.87023,-0.15302 1.31122,-0.15378 z"
         style="opacity:1;vector-effect:none;fill:#0055d4;fill-opacity:1;stroke:none;stroke-width:1.43271732;stroke-linecap:round;stroke-linejoin:miter;stroke-miterlimit:4;stroke-dasharray:none;stroke-dashoffset:0;stroke-opacity:0" />
      <path
         transform="scale(0.26458333)"
         inkscape:connector-curvature="0"
         id="path26"
         d="m -46.300853,643.59264 c -0.173932,0.0378 -0.348323,0.078 -0.518705,0.12921 -0.08156,0.0465 -0.0575,0.15229 -0.07484,0.23 -0.01042,0.12567 -0.03342,0.25122 -0.03345,0.37727 0.01062,0.0914 0.141829,0.11696 0.190412,0.0409 0.144423,-0.19959 0.294455,-0.39426 0.473508,-0.56458 0.0549,-0.0333 0.100571,-0.10978 0.05452,-0.16795 -0.01758,-0.0302 -0.05645,-0.0483 -0.09144,-0.0449 z"
         style="opacity:1;vector-effect:none;fill:#0055d4;fill-opacity:1;stroke:none;stroke-width:1.43271732;stroke-linecap:round;stroke-linejoin:miter;stroke-miterlimit:4;stroke-dasharray:none;stroke-dashoffset:0;stroke-opacity:0" />
      <path
         transform="scale(0.26458333)"
         inkscape:connector-curvature="0"
         id="path28"
         d="m 270.09466,831.83429 c -3.88679,0.12507 -7.61022,1.45932 -11.37301,2.31876 -11.49427,2.92935 -22.88099,6.39184 -34.54672,8.57257 -8.8436,1.54141 -17.87029,1.40362 -26.81945,1.38524 -15.1706,-0.27163 -30.32791,-1.6309 -45.27691,-4.24006 -4.20642,-0.62753 -8.45663,-1.09666 -12.68599,-1.40148 -5.16645,5.2625 -10.66216,10.30417 -14.73046,16.51429 -3.83951,5.71443 -7.80725,11.36075 -11.26881,17.31616 -0.97884,1.77394 -1.87266,4.18627 -0.69001,6.06914 1.7888,1.92462 4.52126,2.50152 6.78339,3.68634 4.11945,1.80566 8.09395,4.07452 12.48907,5.13096 5.54941,2.07414 10.94985,4.58013 16.58431,6.45248 9.53563,3.29967 19.12613,6.50919 28.93036,8.92023 4.34023,1.05926 8.96199,1.29468 13.32478,0.2418 5.47982,-1.54333 10.50421,-4.32621 15.54082,-6.91644 8.37838,-4.34796 15.20655,-11.04988 21.33225,-18.11902 5.82021,-6.66538 11.48077,-13.46924 17.32936,-20.10843 2.1148,-2.5177 3.45975,-5.60947 5.93561,-7.82439 5.47777,-5.88814 12.17528,-10.3889 18.47429,-15.31896 0.63166,-0.68525 2.00511,-1.29315 1.77492,-2.40305 -0.1839,-0.38924 -0.77647,-0.23132 -1.1078,-0.27614 z"
         style="opacity:1;vector-effect:none;fill:#0055d4;fill-opacity:1;stroke:none;stroke-width:1.43271732;stroke-linecap:round;stroke-linejoin:miter;stroke-miterlimit:4;stroke-dasharray:none;stroke-dashoffset:0;stroke-opacity:0" />
      <path
         transform="scale(0.26458333)"
         inkscape:connector-curvature="0"
         id="path30"
         d="m 64.745523,799.49577 c -4.61681,0.24458 -9.047263,1.81944 -13.342296,3.42304 -2.000886,0.60834 -2.718402,2.817 -3.731929,4.42067 -1.813001,3.61014 -3.637435,7.32204 -4.389728,11.31879 -0.269205,3.58045 -0.458358,7.22902 0.101946,10.78867 1.752161,7.84756 6.826512,14.6184 12.923084,19.69296 3.745573,3.2028 8.671906,4.25699 12.975774,6.44686 7.004996,3.43077 14.117994,6.73556 20.710524,10.92498 1.96428,1.18162 3.806897,3.36249 6.316674,3.03868 2.96664,-0.74192 4.649738,-3.60945 6.590188,-5.72492 6.82759,-8.16079 14.35016,-15.72081 21.02482,-24.01091 0.55244,-0.76962 1.21445,-1.57395 1.44369,-2.47959 -1.29869,-1.17694 -3.25312,-0.70051 -4.844,-0.83167 -5.71645,0.0887 -11.46882,0.5118 -17.16473,0.0268 -0.6262,-0.0292 -1.16264,-0.62004 -0.42138,-1.02303 2.17828,-1.24264 4.78739,-1.43808 7.18339,-2.04749 2.57175,-0.65242 5.83718,-0.78831 7.41017,-3.27048 1.87814,-2.93976 3.11865,-6.44903 2.56651,-9.97311 -0.16094,-2.63195 -2.06717,-4.74072 -4.32033,-5.90817 -4.74586,-2.63549 -10.38931,-3.9013 -15.787211,-3.06516 -5.231003,1.26638 -10.682591,3.17804 -14.425792,7.22953 -1.673523,2.06593 -3.500644,4.69824 -6.4433,4.77462 -3.368523,0.0903 -6.222219,-2.37993 -8.121999,-4.95061 -0.449828,-0.62872 -1.351304,-1.9129 -0.104091,-2.26032 2.243998,-0.20384 4.056001,1.52759 6.127447,2.11545 1.462526,0.59962 3.168309,0.83619 4.578954,-0.0383 2.63177,-1.54838 4.968644,-3.8404 6.226531,-6.65041 0.672942,-1.55153 -0.988449,-2.72497 -1.983819,-3.63748 -5.574152,-4.24576 -12.17732,-7.36864 -19.170364,-8.259 -0.640763,-0.0615 -1.285158,-0.0856 -1.928733,-0.0705 z"
         style="opacity:1;vector-effect:none;fill:#ffcc00;fill-opacity:1;stroke:none;stroke-width:1.43271732;stroke-linecap:round;stroke-linejoin:miter;stroke-miterlimit:4;stroke-dasharray:none;stroke-dashoffset:0;stroke-opacity:0" />
      <path
         transform="scale(0.26458333)"
         inkscape:connector-curvature="0"
         id="path32"
         d="m 62.486274,707.59908 c -6.783687,0.45807 -13.500966,1.93773 -19.920986,4.16221 -3.178265,1.06082 -6.23754,2.74503 -8.2989,5.45534 -4.557715,5.77696 -6.530494,13.09675 -7.900589,20.20222 -0.954034,5.61419 -1.556218,11.36725 -0.974374,17.05252 0.303271,1.73266 1.350661,3.20118 1.599289,4.94918 0.97394,4.20272 2.155534,8.76291 5.574102,11.68529 2.683112,2.36763 5.714414,4.58252 9.216191,5.51663 1.535546,0.19115 3.131791,0.49445 4.319618,1.5671 3.061201,1.40102 6.530732,1.48311 9.834322,1.76419 4.360561,0.12057 8.815913,0.28537 13.087986,-0.7383 2.078892,-0.60568 4.737084,-1.26155 5.387361,-3.6568 0.564153,-2.03436 0.614966,-4.2231 0.344825,-6.30522 -0.412113,-1.39694 -1.47341,-2.85031 -3.096991,-2.73571 -0.849404,0.0636 -2.396211,-0.32316 -2.574743,0.8896 -0.133476,1.68987 0.634377,3.61726 -0.645297,5.03646 -0.357738,0.44548 -1.085522,0.66687 -1.361058,-0.001 -1.691046,-3.10771 -2.901441,-6.47148 -4.158295,-9.77781 -0.881497,-2.50272 -1.365192,-5.3225 -0.630271,-7.90129 1.707056,-3.26894 4.339545,-5.99777 7.205254,-8.27753 0.553461,-0.44201 1.893729,-1.13533 2.284598,-0.21183 -0.539373,1.42902 -2.015323,2.27737 -3.003529,3.38697 -2.098731,1.65747 -3.298174,4.18981 -3.570417,6.81863 -0.295115,1.82802 -0.04221,4.18271 1.918446,4.98246 4.1094,1.7955 8.574029,2.58117 12.837446,3.93002 4.423993,1.47253 9.063117,2.19639 13.722096,2.27578 3.569478,0.0122 7.225242,0.44662 10.736692,-0.36273 1.6841,-0.57169 2.39323,-2.55861 2.54863,-4.18047 0.38641,-5.40164 -2.24997,-10.56182 -5.58696,-14.63915 -1.924688,-2.38431 -4.500221,-4.20449 -7.442003,-5.09638 -2.929076,-1.09763 -6.241651,-1.88374 -8.450012,-4.2488 -0.713792,-0.68964 -0.728187,-1.81667 -0.04292,-2.53039 2.143872,-2.82768 4.828423,-5.51786 8.296914,-6.60641 1.11698,-0.31883 1.760461,-1.62582 1.147511,-2.65773 -1.760814,-2.61563 -4.563005,-4.29578 -7.058836,-6.13479 -5.968003,-3.99611 -11.934473,-8.02148 -18.181325,-11.57261 -2.198156,-1.20715 -4.612667,-2.15254 -7.163772,-2.03955 z"
         style="opacity:1;vector-effect:none;fill:#ffcc00;fill-opacity:1;stroke:none;stroke-width:1.43271732;stroke-linecap:round;stroke-linejoin:miter;stroke-miterlimit:4;stroke-dasharray:none;stroke-dashoffset:0;stroke-opacity:0" />
      <path
         transform="scale(0.26458333)"
         inkscape:connector-curvature="0"
         id="path34"
         d="m 132.80758,837.51123 c -1.22484,0.0344 -2.21487,0.90218 -3.19837,1.53646 -4.29571,3.19371 -8.10382,6.98461 -11.86401,10.77883 -5.15312,5.34873 -10.21801,10.81684 -14.6569,16.78227 -1.1419,1.64149 -2.4053,3.27745 -3.01267,5.20667 -0.253665,0.83341 0.63708,1.34049 1.23121,1.70105 1.9147,1.09914 4.07849,1.67431 6.21831,2.14622 0.47892,0.0564 1.12047,0.15242 1.35498,-0.3983 4.1028,-6.27864 7.75429,-12.85613 12.13117,-18.95158 4.36424,-5.94404 9.42812,-11.33699 13.79364,-17.27927 0.21406,-0.31973 0.73155,-0.92524 0.1755,-1.19416 -0.67318,-0.30079 -1.44715,-0.32808 -2.17286,-0.32819 z"
         style="opacity:1;vector-effect:none;fill:#ffcc00;fill-opacity:1;stroke:none;stroke-width:1.43271732;stroke-linecap:round;stroke-linejoin:miter;stroke-miterlimit:4;stroke-dasharray:none;stroke-dashoffset:0;stroke-opacity:0" />
      <path
         transform="scale(0.26458333)"
         inkscape:connector-curvature="0"
         id="path36"
         d="m 73.327157,703.51184 c -1.112078,0.0395 -2.511514,0.20714 -3.124712,1.27128 -0.539659,1.30584 0.388203,2.62961 1.244448,3.54984 1.774264,1.82417 4.013042,3.09684 6.078015,4.55456 6.868734,4.55405 13.79041,9.02926 20.767952,13.4147 0.469457,0.1989 0.901181,0.79789 1.456919,0.5167 2.590361,-0.7249 5.246611,-1.32345 7.692381,-2.46964 0.42792,-0.18878 1.01813,-0.61369 0.70807,-1.1484 -0.72008,-1.23679 -1.99531,-2.0159 -3.09538,-2.88219 -5.332566,-3.76794 -10.996001,-7.0354 -16.593103,-10.38808 -3.105389,-1.77095 -6.106227,-3.75824 -9.384211,-5.20432 -1.824883,-0.72888 -3.773084,-1.24147 -5.750379,-1.21445 z"
         style="opacity:1;vector-effect:none;fill:#ffcc00;fill-opacity:1;stroke:none;stroke-width:1.43271732;stroke-linecap:round;stroke-linejoin:miter;stroke-miterlimit:4;stroke-dasharray:none;stroke-dashoffset:0;stroke-opacity:0" />
      <path
         transform="scale(0.26458333)"
         inkscape:connector-curvature="0"
         id="path38"
         d="m -141.22728,776.08819 c -3.21819,0.18444 -7.31356,-0.1691 -9.46277,2.76204 -2.33588,4.05161 -2.57723,8.90749 -2.49473,13.47784 -0.0979,10.39632 -0.0448,20.80968 1.10248,31.15621 1.84571,20.60148 3.19481,41.27988 2.98986,61.97245 -0.0683,7.30188 -0.0516,14.66078 1.00964,21.89815 1.51621,7.86582 2.64249,15.79343 3.92199,23.6979 0.32571,1.80185 0.84924,4.33007 3.12424,4.4739 5.46855,0.91172 10.39869,-2.49387 14.48812,-5.67383 6.27287,-4.96639 12.0996,-10.46031 18.25487,-15.56743 2.57108,-2.19627 4.96106,-4.63513 6.64188,-7.58968 7.090678,-9.73397 15.67588,-18.2169 24.300949,-26.56851 5.771518,-5.41783 11.03921,-11.45598 17.503984,-16.0792 2.165881,-1.66621 4.91676,-1.97262 7.448909,-2.7241 1.014738,-0.86787 0.510715,-2.58309 0.639417,-3.76973 -0.424736,-6.91912 -1.674044,-13.79324 -3.442433,-20.48716 -0.488182,-1.6226 -2.497378,-0.64667 -3.544127,-0.25039 -7.651035,3.26477 -14.600205,7.94733 -21.009332,13.21215 -9.619742,7.22322 -17.53528,16.40261 -26.986397,23.82801 -4.0963,3.14397 -8.20887,6.42746 -12.9219,8.59925 -1.05548,0.50796 -2.82313,0.36779 -2.81769,-1.16654 -0.3891,-5.58506 -0.27456,-11.24461 0.37029,-16.80749 0.64577,-4.52435 2.40435,-8.85956 2.499,-13.48338 0.12787,-2.77319 1.5738,-5.16691 3.27853,-7.27438 2.56329,-3.7017 3.89374,-8.12868 6.75637,-11.62434 2.97795,-4.88286 5.81276,-9.95413 7.57032,-15.41734 1.10733,-5.11899 0.61486,-10.42142 0.63284,-15.61919 0.0762,-3.04158 -0.89906,-6.01885 -2.80836,-8.39681 -3.47298,-4.67157 -7.19697,-9.31634 -11.86535,-12.84712 -6.21937,-4.02126 -13.92162,-3.48011 -20.99655,-3.72165 -1.39459,-0.0179 -2.7894,-0.0277 -4.18405,-0.01 z"
         style="opacity:1;vector-effect:none;fill:#ffcc00;fill-opacity:1;stroke:none;stroke-width:1.43271732;stroke-linecap:round;stroke-linejoin:miter;stroke-miterlimit:4;stroke-dasharray:none;stroke-dashoffset:0;stroke-opacity:0" />
      <path
         transform="scale(0.26458333)"
         inkscape:connector-curvature="0"
         id="path40"
         d="m -47.725155,830.44321 c -1.334789,0.20291 -3.3764,0.25147 -3.931607,1.73411 -0.506705,4.67453 0.569065,9.36556 1.270741,13.97157 1.040272,5.12826 1.74735,10.30781 2.49747,15.48412 2.341197,0.0256 4.917681,0.38072 7.246055,-0.27013 1.385796,-0.96177 0.629901,-3.0061 0.561753,-4.4048 -1.235864,-7.70492 -3.226894,-15.29067 -3.84939,-23.08053 -0.139362,-1.8219 -1.490076,-3.68267 -3.499089,-3.44092 l -0.258941,0.006 z"
         style="opacity:1;vector-effect:none;fill:#ffcc00;fill-opacity:1;stroke:none;stroke-width:1.43271732;stroke-linecap:round;stroke-linejoin:miter;stroke-miterlimit:4;stroke-dasharray:none;stroke-dashoffset:0;stroke-opacity:0" />
      <path
         transform="scale(0.26458333)"
         inkscape:connector-curvature="0"
         id="path42"
         d="m -53.140473,643.43997 c -1.33045,-0.14164 -2.969876,0.43169 -3.007386,1.99717 -1.859181,12.72581 -5.422839,25.21662 -6.70692,38.04666 -0.0177,2.37534 -0.464395,4.96871 0.517624,7.20425 0.697745,1.32674 2.869883,2.93808 4.167342,1.46297 1.758925,-2.87342 1.851764,-6.4227 2.538086,-9.64908 1.856446,-11.69976 4.242684,-23.34042 4.955681,-35.19006 0.03479,-1.28058 0.373641,-2.65846 0.248543,-3.87646 -0.904315,0.002 -1.80869,-0.005 -2.71297,0.005 z"
         style="opacity:1;vector-effect:none;fill:#ffcc00;fill-opacity:1;stroke:none;stroke-width:1.43271732;stroke-linecap:round;stroke-linejoin:miter;stroke-miterlimit:4;stroke-dasharray:none;stroke-dashoffset:0;stroke-opacity:0" />
      <path
         transform="scale(0.26458333)"
         inkscape:connector-curvature="0"
         id="path44"
         d="m -142.32198,587.49653 c -1.87822,0.22819 -1.98401,2.67066 -2.35993,4.09413 -1.54715,10.23979 -2.12303,20.61004 -3.96824,30.81047 -1.78873,10.82791 -3.07899,21.73698 -3.73964,32.69214 -0.90692,7.01626 -2.33096,13.99829 -3.97663,20.87845 -0.73967,2.22244 -1.84838,4.31241 -2.31027,6.6395 -1.73082,6.84844 -3.52995,13.74852 -4.14808,20.80178 -0.0123,7.89665 0.45635,15.82221 1.61317,23.63583 1.1658,4.71666 2.29485,9.50773 4.21135,13.98118 3.04658,5.25774 7.95322,9.79888 14.09096,10.92524 5.79334,1.09497 11.81665,1.12197 17.63398,0.20777 4.30103,-0.73665 8.08428,-3.70466 9.71072,-7.7705 3.46771,-8.34005 3.37466,-17.71262 1.62037,-26.44779 -3.39904,-17.95975 -9.97185,-35.29059 -11.47045,-53.59702 -0.54064,-7.10314 -1.53618,-14.28456 -0.72358,-21.38983 0.24817,-1.61387 0.86187,-4.13751 2.96793,-3.95437 3.13209,0.18911 5.50129,2.76975 8.03628,4.39117 3.78686,2.54814 7.33631,5.40511 10.68337,8.50897 10.971955,9.73447 21.488668,19.95767 32.227383,29.94078 1.414341,1.01734 2.795899,2.86993 4.720209,2.65989 1.397899,-1.07597 1.52227,-3.1685 2.006564,-4.75967 1.525138,-7.84071 3.103319,-15.66668 4.978027,-23.43281 0.786786,-4.28367 2.002089,-8.65519 1.539789,-13.03678 -0.789572,-1.54246 -2.93251,-1.51127 -4.292289,-2.31688 -10.243799,-4.46729 -19.875963,-10.22707 -29.413698,-15.99959 -7.609845,-5.53727 -14.910245,-11.49143 -22.291005,-17.33184 -4.15242,-3.42505 -8.09997,-7.22791 -13.01877,-9.5585 -4.79655,-2.91934 -8.40634,-7.45358 -13.20955,-10.34813 -0.34901,-0.15784 -0.73223,-0.26008 -1.11797,-0.22359 z"
         style="opacity:1;vector-effect:none;fill:#ffcc00;fill-opacity:1;stroke:none;stroke-width:1.43271732;stroke-linecap:round;stroke-linejoin:miter;stroke-miterlimit:4;stroke-dasharray:none;stroke-dashoffset:0;stroke-opacity:0" />
      <path
         transform="scale(0.26458333)"
         inkscape:connector-curvature="0"
         id="path46"
         d="m 95.309755,808.93637 c -0.821416,0.0343 -1.647666,0.0329 -2.470228,0.006 -0.09926,-0.003 -0.139773,0.14141 -0.04953,0.18626 0.257446,0.10782 0.538913,0.15125 0.814924,0.18593 0.320628,0.0122 0.643579,0.0108 0.962666,-0.0257 0.297659,-0.0437 0.597193,-0.0888 0.887806,-0.16558 0.10109,-0.0301 0.07487,-0.18962 -0.02868,-0.19148 -0.03897,-2e-5 -0.07799,0.004 -0.11696,0.005 z"
         style="opacity:1;vector-effect:none;fill:#0055d4;fill-opacity:1;stroke:none;stroke-width:1.43271732;stroke-linecap:round;stroke-linejoin:miter;stroke-miterlimit:4;stroke-dasharray:none;stroke-dashoffset:0;stroke-opacity:0" />
      <path
         transform="scale(0.26458333)"
         inkscape:connector-curvature="0"
         id="path48"
         d="m 395.22499,689.93984 c -1.81846,-0.14942 -3.29888,1.15598 -4.07388,2.69136 -2.21191,3.77462 -3.92464,7.85927 -4.6653,12.189 -1.59426,8.44774 -1.68999,17.12486 -1.08637,25.67851 0.75899,8.80559 3.7872,17.2675 7.61775,25.17402 3.57967,7.08769 8.03759,13.75875 13.31339,19.69618 3.59149,3.71555 7.38666,7.37841 11.91115,9.93949 0.76868,0.51781 2.03477,0.64733 2.42594,-0.40063 1.76508,-3.3968 2.34619,-7.26441 3.99668,-10.71697 2.18336,-5.27861 6.36317,-9.3352 10.06718,-13.55935 4.69061,-4.97724 9.37411,-10.02903 14.76662,-14.26507 3.13298,-2.13739 6.80658,-3.44109 9.69947,-5.92642 1.53718,-1.31788 1.11258,-3.59928 0.0952,-5.09476 -3.29451,-5.60536 -7.57317,-10.56366 -11.89256,-15.39565 -7.63885,-8.13338 -15.97755,-15.92673 -26.08348,-20.89219 -7.16492,-3.49671 -14.72769,-6.10635 -22.31011,-8.5316 -1.23022,-0.34723 -2.49569,-0.6254 -3.78163,-0.58592 z"
         style="opacity:1;vector-effect:none;fill:#ffffff;fill-opacity:1;stroke:none;stroke-width:1.43271732;stroke-linecap:round;stroke-linejoin:miter;stroke-miterlimit:4;stroke-dasharray:none;stroke-dashoffset:0;stroke-opacity:0" />
      <path
         transform="scale(0.26458333)"
         inkscape:connector-curvature="0"
         id="path50"
         d="m 461.06968,743.50678 c -1.63457,0.0802 -3.09736,0.93957 -4.54086,1.63058 -5.05116,2.7424 -9.66042,6.23215 -14.03643,9.94056 -2.07681,1.89668 -4.12975,3.84007 -5.95539,5.98263 -1.59214,2.12737 -2.9063,4.50315 -4.91842,6.28193 -1.50928,1.66791 -2.31559,3.82296 -3.25309,5.83388 -1.70066,4.04157 -3.17452,8.20768 -4.03707,12.51412 -0.0677,0.78023 -0.39849,1.58849 -0.20299,2.36656 0.837,1.7361 2.67675,2.64105 4.31055,3.47794 3.98428,1.98564 7.98649,4.03314 12.28398,5.25868 1.635,0.48894 3.34123,0.67345 5.0434,0.5706 2.82065,-0.074 5.71668,-0.51691 8.24564,-1.82671 2.77912,-1.52511 4.27555,-4.48205 5.61591,-7.21614 2.4407,-5.11509 4.69201,-10.41878 5.4758,-16.07501 0.70178,-4.90877 0.90763,-9.8768 0.96876,-14.83053 -0.0413,-3.56722 -0.0727,-7.22678 -1.21214,-10.64561 -0.49752,-1.40977 -1.4311,-2.96681 -3.02413,-3.24775 -0.25357,-0.0257 -0.50912,-0.0194 -0.76352,-0.0157 z"
         style="opacity:1;vector-effect:none;fill:#333333;fill-opacity:1;stroke:none;stroke-width:1.43271732;stroke-linecap:round;stroke-linejoin:miter;stroke-miterlimit:4;stroke-dasharray:none;stroke-dashoffset:0;stroke-opacity:0" />
      <path
         inkscape:connector-curvature="0"
         id="path21"
         d="m -44.143071,185.50134 c 0.33086,-2.05658 0.94796,-4.60934 1.53504,-6.35 0.65872,-1.95311 1.27865,-5.56724 1.49765,-8.73125 0.0907,-1.30969 0.34185,-3.39329 0.55821,-4.63021 0.21637,-1.23693 0.5104,-3.38005 0.6534,-4.7625 0.49455,-4.78113 0.65613,-5.69164 1.1386,-6.41615 0.26649,-0.40018 0.58421,-0.7276 0.70604,-0.7276 0.12183,0 1.01392,0.70341 1.98243,1.56314 0.96851,0.85973 2.43272,2.01874 3.2538,2.57558 1.64699,1.11697 5.46472,4.1276 6.18494,4.87739 0.5733,0.59684 2.3817,1.84213 3.77459,2.59923 0.58208,0.31639 1.53458,0.86144 2.11667,1.21124 1.98303,1.19166 3.65114,1.98098 4.53828,2.14741 0.91294,0.17126 0.93284,0.14989 1.00877,-1.08337 0.1968,-3.19659 1.0676,-5.87306 1.82433,-5.60726 0.36612,0.1286 0.2645,0.83811 -0.27259,1.9031 -0.22016,0.43656 -0.46572,1.77601 -0.54569,2.97656 -0.14466,2.17171 -0.14215,2.18281 0.4937,2.18281 0.59132,0 0.6629,-0.14953 0.9573,-1.99987 0.37528,-2.35866 0.50405,-2.6382 1.01855,-2.21121 0.2385,0.19794 0.28772,0.42094 0.13424,0.60816 -0.1333,0.1626 -0.32708,0.98024 -0.43063,1.81698 l -0.18828,1.52136 h 0.83304 c 1.05494,0 3.0733196,-1.02296 4.1861596,-2.12162 1.95713,-1.93223 4.03761,-5.39555 4.03761,-6.72132 0,-0.31693 0.10784,-0.68934 0.23965,-0.82758 0.60146,-0.63084 1.48932,-2.59561 2.32548998,-5.14615 1.58891002,-4.8466 2.98688002,-7.261 4.71726002,-8.14707 0.39014,-0.19978 1.32149,-0.13323 3.43076,0.24513 2.8963604,0.51955 3.7060004,0.76613 9.3951704,2.86134 1.67349,0.61631 4.22707,1.53124 5.67461,2.03318 1.44755,0.50195 2.76783,1.02544 2.93397,1.16332 0.16613,0.13788 1.24396,0.44433 2.39518,0.68101 1.15121,0.23668 2.39077,0.58187 2.75458,0.76708 0.3638,0.18521 1.88428,0.58532 3.37885,0.88913 1.49457,0.30382 2.92332,0.66101 3.175,0.79376 0.25168,0.13276 1.17198,0.38084 2.0451,0.55131 0.87313,0.17047 2.42094,0.53264 3.43959,0.80483 3.69344,0.9869 7.18734,1.84178 9.24261,2.26145 3.36863,0.68786 10.17811,2.91176 13.00792,4.24825 0.74164,0.35028 1.51731,0.63686 1.72371,0.63686 0.20639,0 0.79022,0.22143 1.29739,0.49207 0.50716,0.27064 2.87185,1.22782 5.25487,2.12707 2.38301,0.89924 5.06192,1.97511 5.95312,2.39082 0.89121,0.4157 3.22772,1.26243 5.19225,1.88163 3.6856,1.16166 5.95385,2.15989 7.82715,3.44463 1.79747,1.23275 3.89423,1.78452 7.52933,1.98138 2.844251,0.15403 3.908561,0.0825 7.755781,-0.5211 2.45252,-0.3848 6.26252,-0.81017 8.46666,-0.94527 2.20415,-0.13509 5.43629,-0.33595 7.18254,-0.44634 5.71739,-0.36144 10.69677,0.10886 14.68437,1.38695 0.65485,0.20989 1.36922,0.38112 1.5875,0.38051 0.45409,-0.001 2.83915,1.14747 5.14632,2.47864 2.0272,1.16963 4.84407,3.72923 6.76677,6.14875 1.60199,2.01594 2.639,4.54627 2.639,6.43925 0,2.78734 -1.76466,6.09856 -5.05148,9.47865 -2.6832,2.75934 -4.86435,4.2558 -9.28893,6.37301 -5.83174,2.79056 -5.68644,2.74863 -12.70386,3.66593 -0.91037,0.119 -1.07504,0.28737 -2.23414,2.28439 -0.71404,1.2302 -1.99934,2.89873 -2.99338,3.88588 -1.57074,1.55985 -1.94633,1.79061 -3.81965,2.34674 -1.84171,0.54674 -2.38162,0.59523 -4.75507,0.42709 -2.99879,-0.21245 -3.93781,-0.48 -7.4051,-2.10995 -4.45813,-2.09573 -5.32079,-2.52022 -6.517141,-3.2069 -1.40686,-0.8075 -2.77365,-0.78219 -6.87917,0.12736 -1.38245,0.30628 -3.7637,0.79962 -5.29167,1.09633 -9.8655,1.9157 -11.22526,2.41551 -14.65029,5.38504 -0.74635,0.64709 -1.95231,1.5834 -2.67991,2.0807 -1.29351,0.88408 -2.88607,2.5969 -6.08542,6.54494 -0.87312,1.07746 -2.12328,2.50304 -2.77812,3.16797 -0.65485,0.66493 -1.5827,1.70593 -2.06191,2.31333 -0.4792,0.60739 -1.19357,1.27176 -1.5875,1.47637 -0.39392,0.2046 -1.44942,0.79343 -2.34556,1.30851 -4.03487,2.31914 -6.96813,2.63418 -10.31689,1.10808 -0.45856,-0.20898 -0.99527,-0.37995 -1.19269,-0.37995 -0.85077,0 -7.73133,-2.61328 -11.30288,-4.2929 -0.92819,-0.43651 -2.14894,-0.85553 -2.71276,-0.93116 l -1.02514,-0.1375 -1.06516,2.273 c -1.0877,2.3211 -1.41851,2.7687 -1.70437,2.30616 -0.18738,-0.30318 1.49772,-4.08055 1.94316,-4.35585 0.54448,-0.3365 0.31051,-0.85752 -0.60697,-1.35162 -0.75517,-0.40669 -0.9751,-0.43022 -1.32292,-0.14156 -0.22944,0.19042 -0.41716,0.46364 -0.41716,0.60715 0,0.35823 -2.43167,3.64303 -2.69687,3.64303 -0.42772,0 -0.18759,-0.52617 1.10752,-2.42686 1.4232,-2.08867 1.64193,-2.86481 0.80735,-2.86481 -0.28457,0 -1.86215,0.51768 -3.50573,1.1504 -1.64357,0.63272 -4.05988,1.48231 -5.36957,1.88799 -1.30968,0.40569 -3.08139,0.96607 -3.93712,1.2453 -0.85573,0.27923 -2.0463504,0.61105 -2.6458304,0.73739 -0.59948,0.12633 -1.74481,0.41607 -2.54517,0.64388 -2.35243,0.66954 -3.01039,0.57334 -3.91027,-0.57173 -0.42885,-0.5457 -0.96911,-1.36256 -1.20059,-1.81522 -0.23147,-0.45267 -1.09217002,-1.6433 -1.91266002,-2.64584 -1.75831998,-2.14845 -2.57646998,-2.47103 -6.28799998,-2.47915 l -2.33132,-0.005 0.18456,1.25677 c 0.10152,0.69123 0.27692,1.50484 0.38979,1.80803 0.11287,0.30318 0.10572,0.71225 -0.0159,0.90903 -0.45455,0.73547 -0.99864,-0.24121 -1.1887,-2.13382 -0.10175,-1.01315 -0.2898996,-1.90693 -0.4181196,-1.98618 -0.12822,-0.0792 -0.65863,-0.0642 -1.17868,0.0333 l -0.94555,0.17738 0.17421,1.39434 c 0.18021,1.44234 -0.0182,2.61895 -0.40179,2.38192 -0.12073,-0.0746 -0.29989,-0.82824 -0.39813,-1.67472 -0.25204,-2.17157 -0.31695,-2.23558 -1.91863,-1.89209 -1.15456,0.24761 -1.53077,0.50323 -2.67242,1.81582 -0.73078,0.8402 -1.93262,1.98819 -2.67074,2.55109 -0.73813,0.5629 -1.80801,1.68375 -2.37752,2.49077 -0.56951,0.80702 -1.47283,1.88403 -2.00737,2.39335 -0.53455,0.50933 -1.12828,1.2237 -1.3194,1.5875 -0.19111,0.36381 -1.50252,1.67349 -2.91424,2.91042 -1.41171,1.23693 -3.17995,2.79812 -3.92942,3.46932 -1.76321,1.57909 -2.31539,1.85016 -3.90384,1.91642 -1.85563,0.0774 -2.33745,-0.49974 -2.65848,-3.18441 -0.13607,-1.13797 -0.36821,-2.78341 -0.51585,-3.65654 -0.14764,-0.87312 -0.37164,-5.09984 -0.49777,-9.39271 -0.23062,-7.84914 -0.37891,-10.36353 -0.82701,-14.02291 -0.47508,-3.87972 -0.63085,-8.0368 -0.37529,-10.01544 0.22716,-1.75877 0.36971,-2.11049 1.2158,-2.99992 l 0.95848,-1.00756 h 2.79552 c 2.97106,0 5.06957,0.47007 6.76872,1.5162 1.05934,0.65221 3.28703,3.62205 4.19469,5.59213 0.6109,1.32599 0.63448,1.53256 0.35691,3.12651 -0.33689,1.93456 -1.84934,5.29602 -3.48489,7.74528 -1.29033,1.93229 -2.09705,4.68562 -2.27091,7.75061 -0.086,1.51533 -0.0309,2.05052 0.211,2.05052 0.503,0 3.85096,-2.63289 6.06298,-4.76802 1.0914,-1.05347 2.4352,-2.20181 2.98622,-2.55186 0.55102,-0.35005 1.46183,-1.05202 2.02402,-1.55992 0.56219,-0.50791 1.8973,-1.37446 2.9669,-1.92567 l 1.94473,-1.00221 -0.0662,-1.04147 c -0.0364,-0.57281 -0.25952,-2.08308 -0.49577,-3.35616 -0.34295,-1.84806 -0.36355,-2.39419 -0.10223,-2.70907 0.48165,-0.58035 0.79647,-0.23576 0.79682,0.87219 2.7e-4,1.08051 0.65323,4.76101 0.88582,4.9936 0.26508,0.26508 1.51387,-0.18616 1.67464,-0.60512 0.0863,-0.22483 -0.054,-1.10534 -0.31181,-1.9567 -0.52309,-1.72764 -0.39021,-2.75257 0.27111,-2.09125 0.21117,0.21118 0.49102,0.95707 0.62188,1.65754 0.35014,1.87421 0.52252,1.94584 2.5632796,1.0652 2.32627,-1.00385 2.62205,-1.47025 2.37718,-3.74841 -0.1051,-0.97783 -0.29541,-4.57585 -0.42291,-7.99559 -0.36324,-9.74269 -0.61819,-12.23093 -1.42145,-13.87274 -0.64161,-1.31139 -2.7162496,-3.52442 -4.6314696,-4.9404 -0.85626,-0.63307 -1.21513,-0.52313 -1.38608,0.4246 -0.0525,0.29104 -0.27242,0.52917 -0.48871,0.52917 -0.30542,0 -0.37478,-0.28771 -0.31054,-1.28824 0.0668,-1.04049 -0.0311,-1.40939 -0.50914,-1.91823 -0.95093,-1.01221 -1.2576,-0.80916 -1.3463,0.89137 -0.0595,1.14065 -0.17866,1.52135 -0.47622,1.52135 -0.32034,0 -0.39688,-0.41613 -0.39688,-2.15766 v -2.15766 l -2.51321,-2.34026 c -1.38227,-1.28714 -3.17756,-2.9951 -3.98953,-3.79546 -3.29421,-3.24714 -6.57273,-5.82084 -7.41489,-5.82084 -0.32426,0 -0.29923,3.31673 0.0458,6.07169 0.30121,2.40504 0.85704,4.92933 1.98383,9.00956 0.38177,1.38245 0.88304,3.68846 1.11393,5.12446 0.69785,4.34019 -0.15157,7.1856 -2.63583,8.82964 -0.91202,0.60356 -1.45367,0.74621 -3.12148,0.82208 -2.54144,0.11562 -4.39017,-0.40857 -5.95063,-1.68725 -1.91736,-1.57113 -2.74989,-3.42618 -3.4472,-7.6811 -0.42279,-2.5798 -0.43852,-3.2832 -0.118,-5.27553 z m 1.69579,7.54062 c 0.23557,0.80037 0.5336,1.85837 0.6623,2.35112 0.1287,0.49276 0.73827,1.40973 1.3546,2.03772 1.27155,1.29561 2.55314,1.69658 5.4227,1.69658 3.00516,0 4.26665,-0.9516 4.84004,-3.65105 0.59717,-2.81145 0.30395,-5.04113 -1.54521,-11.74982 -1.09915,-3.9877 -1.52071,-6.62075 -1.77495,-11.08631 -0.21788,-3.82693 0.39899,-4.4858 2.6157,-2.79375 0.63521,0.48487 1.3545,0.99326 1.59843,1.12978 0.4759,0.26632 7.37766,6.62731 9.63033,8.87575 0.8272,0.82566 1.51286,1.30286 1.74435,1.21403 0.24275,-0.0932 0.50217,-0.90073 0.71351,-2.22114 0.18265,-1.14113 0.55701,-2.93368 0.83189,-3.98344 0.2749,-1.04976 0.57578,-2.55506 0.66863,-3.3451 0.15864,-1.34979 0.13092,-1.44793 -0.45958,-1.62668 -0.95954,-0.29046 -4.15878,-1.90098 -5.78779,-2.91361 -0.80036,-0.49753 -1.75286,-1.05421 -2.11666,-1.23707 -0.36381,-0.18287 -1.47218,-0.99036 -2.46306,-1.79443 -0.99087,-0.80408 -2.1815,-1.73675 -2.64583,-2.07262 -0.46433,-0.33587 -1.34069,-1.05024 -1.94745,-1.5875 -1.28889,-1.14124 -1.85636,-1.54607 -2.64981,-1.89039 -0.31791,-0.13795 -1.24191,-0.85204 -2.05332,-1.58686 -2.30941,-2.09141 -2.3005,-2.10064 -2.80055,2.89729 -0.16743,1.67349 -0.41645,3.63143 -0.55337,4.35097 -0.41236,2.16701 -1.02178,7.08421 -1.02406,8.2627 -10e-4,0.60736 -0.11663,1.67892 -0.25656,2.38125 -0.13992,0.70233 -0.39506,2.02458 -0.56696,2.93835 -0.1719,0.91376 -0.40509,1.71858 -0.51819,1.78848 -0.1728,0.1068 -0.95965,3.27751 -1.40912,5.67825 -0.24871,1.32848 0.0715,6.51559 0.48999,7.9375 z m 2.29611,25.13542 c 0.50034,4.8234 0.83454,11.80624 0.77245,16.13958 -0.0445,3.10321 0.0528,4.9012 0.33629,6.21771 0.21937,1.01865 0.54505,2.95556 0.72374,4.30424 0.28855,2.17793 0.39051,2.46863 0.91176,2.59945 1.46078,0.36664 3.01716,-0.50696 6.34648,-3.56226 0.43656,-0.40063 1.43032,-1.24777 2.20837,-1.88252 0.77803,-0.63476 1.50158,-1.3892 1.60787,-1.67653 0.25851,-0.69881 3.50223,-4.4457 5.29436,-6.11564 0.79073,-0.73681 2.33855,-2.2508 3.43959,-3.36441 2.01886,-2.04192 3.24161,-2.87004 4.23771,-2.87004 0.44823,0 0.54231,-0.16854 0.54231,-0.97157 0,-1.17644 -0.76585,-5.43237 -1.02707,-5.70757 -0.25479,-0.26843 -3.59411,1.50408 -5.05835,2.68498 -0.65484,0.52812 -1.60734,1.27376 -2.11667,1.65696 -0.50932,0.38321 -1.96397,1.71742 -3.23255,2.96492 -1.26859,1.2475 -3.28452,2.9418 -4.47986,3.76511 -2.85038,1.96326 -3.03752,1.86721 -2.90862,-1.49274 0.052,-1.35612 0.26039,-2.93557 0.46302,-3.50989 0.20264,-0.57433 0.36843,-1.49637 0.36843,-2.049 0,-0.67289 0.20849,-1.25254 0.63121,-1.75491 0.34716,-0.41258 0.82729,-1.22539 1.06695,-1.80624 0.23966,-0.58085 0.58376,-1.17515 0.76466,-1.32067 0.1809,-0.14552 0.79882,-1.21709 1.37315,-2.38125 0.99126,-2.00925 1.04462,-2.24423 1.05154,-4.63021 0.007,-2.26827 -0.0578,-2.60527 -0.65988,-3.45359 -2.81859,-3.97143 -3.90792,-4.55902 -8.5154,-4.59322 -3.61905,-0.0269 -3.87229,0.1074 -4.34087,2.30135 -0.31955,1.4962 -0.22645,6.40282 0.19938,10.50796 z m 23.90402,-35.19238 c 0.75099,0.62327 1.11157,0.10615 1.41214,-2.02519 0.16079,-1.14018 0.47359,-3.02556 0.69512,-4.18972 0.22153,-1.16417 0.48143,-3.09894 0.57754,-4.29948 l 0.17475,-2.18282 h -0.70049 c -0.48917,0 -0.70049,0.13887 -0.70049,0.46031 0,0.25317 -0.23754,1.59262 -0.52787,2.97656 -1.41845,6.7614 -1.61272,8.69432 -0.9307,9.26034 z m 2.2236,1.85488 c 0.34125,0 4.3024996,3.40679 5.2299496,4.49791 2.1091,2.48129 2.34872,3.55638 2.59471,11.64167 0.28589,9.39641 0.41517,11.70778 0.72333,12.93157 0.29948,1.18936 0.29888,1.1911 -0.71043,2.06358 -0.55559,0.48027 -1.79572,1.26166 -2.75585,1.73643 l -1.7456996,0.86321 -0.0822,1.29566 c -0.0452,0.71261 0.0946,2.20089 0.31075,3.30729 0.21614,1.1064 0.4708096,2.5108 0.5659396,3.12088 0.0951,0.61009 0.31247,1.21898 0.483,1.35308 0.17052,0.13411 1.50067,0.31671 2.95588,0.40578 4.09577,0.25068 4.31443,0.35497 6.46791998,3.08499 1.02553002,1.30007 2.15028002,2.87372 2.49946002,3.497 0.58864,1.05072 0.72387,1.13913 1.8571,1.21405 0.70293,0.0465 1.92308,-0.14073 2.87179,-0.44061 0.90726,-0.28678 2.483,-0.76032 3.5016404,-1.05231 1.01865,-0.29199 2.85355,-0.83785 4.07757,-1.21303 1.22402,-0.37518 2.35511,-0.68081 2.51354,-0.67918 0.15843,0.002 1.57157,-0.50135 3.14029,-1.11774 1.88535,-0.74079 2.82711,-1.24371 2.77813,-1.48358 -0.0688,-0.33691 -4.19989,-2.69332 -4.72173,-2.69332 -0.12865,0 -1.00629,-0.35375 -1.9503,-0.78612 -2.58963,-1.18607 -4.8816,-3.56864 -5.77499,-6.00326 l -0.69522,-1.89459 0.47111,-1.94187 c 0.71553,-2.9494 1.52473,-4.17166 3.37562,-5.09868 2.23705,-1.12044 4.2758,-1.04296 6.92289,0.26311 1.06416,0.52505 2.33824,1.30884 2.8313,1.74175 0.82942,0.72824 0.97166,0.76624 1.90163,0.50799 2.11753,-0.58802 4.37306,-0.0343 6.18771,1.51893 1.20904,1.03489 1.35622,2.03479 0.50501,3.43091 -0.2905,0.47646 -0.52818,0.98247 -0.52818,1.12448 0,0.142 0.77391,0.25819 1.71979,0.25819 0.94589,0 1.72039,-0.0893 1.72111,-0.19844 0.003,-0.49351 1.25612,-1.72535 1.56231,-1.53611 0.24385,0.15071 0.18706,0.33447 -0.22079,0.71444 -0.302,0.28135 -0.54909,0.68924 -0.54909,0.90642 0,0.75601 0.77404,0.68363 1.83864,-0.17191 1.22673,-0.98583 1.60733,-0.92399 0.78074,0.12685 -0.30967,0.39368 -0.5197,0.75352 -0.46673,0.79964 0.095,0.0827 4.427,0.74892 8.03381,1.23549 3.70606,0.49995 10.36987,0.48216 13.23997,-0.0354 1.46115,-0.26346 2.94943,-0.60121 3.30729,-0.75056 0.35786,-0.14934 1.84128,-0.52987 3.29649,-0.8456 2.35626,-0.51124 7.30988,-1.98078 8.73125,-2.59022 1.43384,-0.61478 6.15173,-1.9745 8.86354,-2.55453 1.67349,-0.35794 4.41193,-0.95164 6.08542,-1.31933 6.20287,-1.36286 6.83892,-1.46639 7.93371,-1.29133 0.60274,0.0964 1.51697,0.46099 2.0316,0.81023 1.221351,0.82883 4.107701,2.2629 5.777401,2.87047 0.7276,0.26476 1.44197,0.56055 1.5875,0.65731 0.14552,0.0968 1.03849,0.46321 1.98437,0.81434 1.51538,0.56252 2.16007,0.6384 5.42396,0.6384 3.42773,0 3.80067,-0.0493 4.99736,-0.6604 1.4963,-0.76412 3.32326,-2.73152 4.30067,-4.63126 0.99435,-1.93265 1.26908,-2.41267 1.62927,-2.84666 0.35423,-0.42683 1.95889,-0.79451 6.00603,-1.37617 3.70764,-0.53287 8.43512,-2.37452 11.88993,-4.63187 1.00967,-0.65971 2.19762,-1.42055 2.6399,-1.69075 1.58281,-0.96701 4.724,-4.49078 5.76267,-6.46455 1.17492,-2.23267 1.54768,-4.79102 1.04176,-7.15002 -0.57117,-2.66329 -4.10896,-6.95394 -7.58757,-9.20225 -2.9398,-1.90006 -5.86293,-3.05745 -9.30293,-3.68341 -1.13438,-0.20642 -2.89594,-0.53519 -3.91459,-0.7306 -2.87438,-0.55138 -16.4609,0.13566 -23.28333,1.17739 -4.08458,0.62368 -9.817441,0.8352 -11.967271,0.44154 -1.54629,-0.28314 -3.26956,-1.10807 -4.27311,-2.04552 -0.46412,-0.43356 -1.22662,-0.91639 -1.69445,-1.07297 -0.46782,-0.15658 -1.36876,-0.58116 -2.00208,-0.94349 -0.63331,-0.36234 -1.35187,-0.6588 -1.59679,-0.6588 -0.73253,0 -6.17199,-1.9076 -8.57934,-3.00874 -0.8362,-0.38248 -1.62355,-0.69543 -1.74968,-0.69543 -0.12613,0 -1.10487,-0.36491 -2.17498,-0.81091 -1.0701,-0.44601 -2.54095,-1.0252 -3.26855,-1.28709 -1.35663,-0.4883 -5.66754,-2.21995 -6.61458,-2.65702 -0.29105,-0.13432 -1.36261,-0.55607 -2.38125,-0.93723 -1.01865,-0.38116 -2.26881,-0.85978 -2.77813,-1.06361 -1.17798,-0.4714 -2.54875,-0.83428 -10.98021,-2.90669 -3.78354,-0.92998 -8.06979,-2.0039 -9.525,-2.38649 -1.45521,-0.38259 -3.59833,-0.90853 -4.7625,-1.16876 -1.16417,-0.26023 -2.45015,-0.60673 -2.85774,-0.76999 -0.4076,-0.16327 -1.77682,-0.54948 -3.04271,-0.85825 -1.2659,-0.30876 -2.42069,-0.64683 -2.56622,-0.75125 -0.14552,-0.10443 -1.09802,-0.45372 -2.11666,-0.77621 -1.01865,-0.32249 -2.38787,-0.81038 -3.04271,-1.0842 -0.65484,-0.27382 -2.08359,-0.81322 -3.175,-1.19865 -1.09141,-0.38544 -2.81781,-1.03388 -3.83646,-1.44098 -2.68383,-1.07259 -7.8934404,-1.89935 -9.4719104,-1.50317 -1.07035,0.26864 -2.30003,2.53193 -3.75763002,6.91613 -0.4838,1.45521 -1.2639,3.5388 -1.73353998,4.63021 -0.46964,1.0914 -0.98096,2.28203 -1.13627,2.64583 -0.65239,1.52823 -3.12073,4.99157 -4.45497,6.25079 -1.62486,1.53349 -2.51474,2.05437 -4.2609396,2.49407 l -1.21499,0.30594 -0.15683,1.49387 c -0.0863,0.82163 -0.39174,2.74403 -0.67884,4.272 -0.9102,4.84407 -1.27159,8.73125 -0.81176,8.73125 z m 19.5283696,12.03854 c 0.11836,-1.02037 0.90188,-4.37765 1.14234,-4.89479 1.55434,-3.34289 2.62149,-4.19722 6.6101004,-5.29188 2.12684,-0.58371 2.04198,-0.52317 1.41803,-1.01163 -0.31148,-0.24385 -0.93656,-0.64619 -1.38906,-0.89408 -0.4525,-0.2479 -0.82272,-0.57532 -0.82272,-0.72761 0,-0.58293 1.15216,-0.23781 2.1998,0.65894 1.28334,1.09848 2.09437,1.35861 2.97908,0.95551 0.93954,-0.42808 0.78765,-0.97683 -0.46309,-1.67308 -0.60778,-0.33832 -1.15348,-0.76396 -1.21268,-0.94586 -0.19938,-0.61266 0.68128,-0.33715 1.90287,0.59531 0.66725,0.50933 1.3643,0.92604 1.549,0.92604 0.18471,0 1.88032,-0.78018 3.76803,-1.73374 1.88771,-0.95357 4.32516,-2.12907 5.41657,-2.61224 3.80015,-1.68234 4.63514,-2.09216 5.42396,-2.66211 0.71422,-0.51606 1.89141,-1.04962 7.14375,-3.23796 0.87312,-0.36378 2.45963,-1.07565 3.52557,-1.58194 1.06593,-0.50629 2.00564,-0.85295 2.08822,-0.77037 0.2976,0.2976 -0.58621,1.01495 -2.1587,1.75214 -2.93896,1.3778 -6.3548,2.85044 -7.30131,3.14776 -0.51469,0.16167 -1.84998,0.81492 -2.96732,1.45166 -1.11734,0.63675 -2.3631,1.24041 -2.76837,1.34148 -0.40526,0.10107 -1.26327,0.53174 -1.90668,0.95704 -0.64342,0.42531 -1.3173,0.77328 -1.49753,0.77328 -0.35284,0 -4.63492,2.15344 -6.26232,3.14929 -0.5457,0.33393 -0.99219,0.7468 -0.99219,0.91748 0,0.46951 8.28334,5.4465 9.07693,5.45382 0.26289,0.002 2.04882,-0.52291 3.96875,-1.16741 1.91993,-0.64451 4.68141,-1.46983 6.13661,-1.83405 3.94545,-0.98749 5.17521,-1.3344 9.52501,-2.68693 2.18281,-0.67872 4.56406,-1.33837 5.29166,-1.46588 0.72761,-0.12751 1.59081,-0.30927 1.91823,-0.4039 0.86464,-0.24989 0.75362,0.37175 -0.12613,0.70622 -0.39679,0.15086 -1.55765,0.44936 -2.57968,0.66333 -1.02204,0.21397 -3.34653,0.84829 -5.16554,1.4096 -1.81901,0.56131 -4.02167,1.20803 -4.8948,1.43716 -8.47006,2.22273 -13.10825,3.73658 -13.0856,4.27097 0.006,0.14626 0.60996,0.72778 1.34169,1.29226 0.89193,0.68806 1.24273,1.11402 1.06435,1.2924 -0.17838,0.17839 -0.7281,-0.13808 -1.66788,-0.96018 -1.47483,-1.29014 -2.25387,-1.49386 -3.51511,-0.9192 -0.96129,0.43799 -0.83736,0.90769 0.45058,1.70767 1.49398,0.92797 2.06771,1.44757 1.89928,1.7201 -0.17155,0.27756 -2.07181,-0.87669 -3.19805,-1.94254 -0.79565,-0.753 -0.88449,-0.77547 -1.85208,-0.46837 -2.30894,0.7328 -2.86069,1.64571 -1.26152,2.08726 1.85668,0.51265 4.07028,2.81292 4.82646,5.01545 0.84821,2.47059 -2.34612,4.06731 -6.15313,3.07571 -2.17868,-0.56748 -2.26461,-0.54399 -2.26461,0.61899 0,1.19645 -0.97288,2.29142 -2.39942,2.70055 -2.52758,0.7249 -6.77706,-0.0771 -9.3351804,-1.76183 -0.98684,-0.64991 -1.54547,-1.2711 -2.05062,-2.28029 -0.93125,-1.86047 -1.55146,-4.63317 -1.37555,-6.14955 z m 1.40155,3.175 c 0.10806,0.14552 0.27757,0.7145 0.37668,1.26439 0.0991,0.54989 0.42007,1.40634 0.71323,1.90321 0.5599,0.94896 2.4934204,2.25636 3.3369404,2.25636 0.27241,0 0.64119,0.1459 0.8195,0.32422 0.53138,0.53137 4.68962,0.74095 6.14223,0.30957 1.0667,-0.31677 1.26996,-0.48819 1.41017,-1.18926 0.26082,-1.3041 -0.0472,-2.09037 -0.81885,-2.09037 -0.56474,0 -0.64483,0.0983 -0.53749,0.65978 0.071,0.37116 -0.0284,0.78804 -0.22715,0.95297 -0.27515,0.22835 -0.4189,0.12634 -0.65008,-0.46134 -0.16325,-0.41499 -0.45423,-1.11172 -0.64663,-1.54828 -0.51343,-1.16499 -0.64509,-2.30317 -0.33633,-2.9076 0.41083,-0.80425 1.85369,-2.25178 2.24453,-2.25178 0.55794,0 0.40503,0.35142 -0.46368,1.06563 -0.582,0.47849 -0.85379,0.96976 -0.95533,1.72682 -0.1597,1.19065 0.0562,1.37456 2.29315,1.95308 0.65484,0.16935 1.74238,0.48058 2.41676,0.69161 0.67437,0.21104 2.2545,0.3837 3.5114,0.3837 2.19627,0 2.29731,-0.0264 2.59446,-0.67862 0.44202,-0.97013 -0.11826,-2.85649 -1.26358,-4.25419 -0.70103,-0.85552 -1.24404,-1.21244 -2.32074,-1.52545 -0.77307,-0.22474 -1.61237,-0.63712 -1.86512,-0.9164 -0.43991,-0.48609 -0.42483,-0.5473 0.35316,-1.43338 0.44698,-0.50909 1.10907,-1 1.4713,-1.09091 1.20398,-0.30218 0.72538,-1.01633 -1.78853,-2.66876 -5.06304,-3.32802 -5.18763,-3.38666 -6.83011,-3.21499 -1.86338,0.19476 -4.26623,0.81617 -5.50375,1.42334 -1.3759204,0.67507 -2.4178904,2.41925 -3.1141704,5.21289 -0.5793,2.32431 -0.77079,5.55323 -0.36197,6.10376 z M 19.408819,187.80616 c 0.47294,0.35631 2.2114,1.51363 3.86323,2.57183 l 3.00334,1.924 1.16385,-0.32586 c 0.64012,-0.17922 1.16385,-0.41099 1.16385,-0.51505 0,-0.41829 -1.60177,-1.48216 -6.85517,-4.5531 -2.40128,-1.40369 -4.38394,-0.64238 -2.3391,0.89818 z m 52.12551,-3.06804 c 1.10293,-0.84125 1.42903,-0.85442 2.81666,-0.11375 1.47634,0.78803 2.25542,1.65466 2.02501,2.25257 -0.16002,0.41524 -0.28072,0.35768 -0.93916,-0.44787 -0.41555,-0.50839 -0.83815,-0.84174 -0.93911,-0.74078 -0.10097,0.10097 -0.0506,1.31113 0.11193,2.68924 0.416,3.52731 0.37289,4.86534 -0.25548,7.93016 -0.62114,3.02953 -0.76651,10.25812 -0.25829,12.84382 0.15406,0.78385 0.28011,1.94471 0.28011,2.57969 0,1.18265 0.35847,1.48397 1.00101,0.84142 0.1722,-0.1722 0.39157,-0.23461 0.48749,-0.13868 0.27264,0.27264 -0.38213,0.91243 -1.23976,1.2114 -0.75381,0.26278 -0.8124,0.22104 -1.82056,-1.29676 -0.57293,-0.86256 -0.93812,-1.63229 -0.81155,-1.71052 0.12658,-0.0782 0.30493,-0.0212 0.39633,0.12667 0.0914,0.14789 0.29453,0.2689 0.45138,0.2689 0.19475,0 0.22404,-0.56639 0.0923,-1.78594 -0.23663,-2.19146 -0.23574,-2.11712 -0.089,-7.47448 0.083,-3.03191 0.26291,-4.89103 0.58878,-6.08542 0.47286,-1.73313 0.47012,-5.12046 -0.007,-9.32656 -0.19117,-1.68336 -0.43304,-1.8333 -1.54564,-0.95814 -0.48359,0.38039 -0.80303,0.47619 -0.9841,0.29512 -0.18107,-0.18107 0.0264,-0.49272 0.63915,-0.96009 z m 29.955231,0.52544 c 0.35424,-1.0039 0.94704,-2.14151 1.31734,-2.52802 0.83496,-0.87151 0.836,-1.07196 0.0118,-2.28646 -0.36381,-0.53609 -0.65446,-1.16646 -0.6459,-1.40081 0.0131,-0.35829 0.0657,-0.34785 0.33073,0.0656 1.12882,1.76104 2.55661,2.71362 5.27918,3.52214 2.30481,0.68445 5.11641,2.11153 6.71033,3.40593 4.17646,3.39166 7.03182,6.77372 8.85297,10.48597 l 1.08055,2.20261 -0.15944,2.64584 c -0.25542,4.23837 -1.69784,7.88105 -3.80418,9.60704 -1.7397,1.42555 -3.06378,1.36877 -6.39945,-0.27444 -6.56743,-3.23521 -10.64315,-8.09056 -12.80129,-15.24996 -0.30207,-1.00209 -0.42624,-2.44131 -0.4223,-4.8948 0.005,-2.99675 0.0943,-3.72671 0.64965,-5.30062 z m 0.90689,10.29194 c 0.90144,3.37465 2.32687,6.11406 4.72694,9.08426 1.04528,1.29359 3.37183,3.21887 3.88975,3.21887 0.18794,0 0.4803,-0.55037 0.64968,-1.22305 0.16938,-0.67268 0.59568,-1.79082 0.94732,-2.48476 0.68762,-1.35695 5.38066,-6.27673 6.64107,-6.96192 0.42098,-0.22886 1.15237,-0.62275 1.62532,-0.87532 0.56824,-0.30346 0.85989,-0.65557 0.85989,-1.03815 0,-0.91271 -3.43338,-5.11244 -5.94779,-7.27537 -2.59179,-2.22948 -4.20493,-3.14412 -7.81054,-4.42851 -4.07762,-1.45253 -3.90703,-1.48611 -5.0987,1.00374 -1.04533,2.18408 -1.298,7.92893 -0.48294,10.98021 z m 10.67487,13.68147 c 2.96832,1.52006 4.02095,1.84912 5.35551,1.67417 1.77542,-0.23275 2.34503,-0.656 3.13765,-2.33148 1.27391,-2.69283 1.52805,-3.72416 1.67719,-6.80645 0.16622,-3.43534 -0.21755,-5.02708 -1.21204,-5.02708 -1.21403,0 -5.70407,3.32982 -6.7727,5.02264 -0.35355,0.56006 -0.78,1.10308 -0.94766,1.2067 -0.59077,0.36511 -1.97716,3.99182 -2.07127,5.4183 -0.0146,0.22157 0.36037,0.60101 0.83332,0.8432 z M -13.201181,224.2628 c 0.12236,0.50932 0.30267,1.55112 0.4007,2.3151 l 0.17823,1.38906 h 1.0335 c 1.24006,0 1.23978,0.002 0.50434,-3.43958 -0.29104,-1.36192 -0.52917,-2.8023 -0.52917,-3.20084 0,-1.44827 -0.50643,-1.85837 -1.71987,-1.39272 -0.37217,0.14281 -0.41318,0.41898 -0.26522,1.78593 0.0963,0.88935 0.27513,2.03372 0.39749,2.54305 z m 25.36161,-3.04271 c 0.89449,1.88118 2.92284,3.88189 4.41885,4.35864 1.50626,0.48 6.73322,3.14359 7.61234,3.87914 1.08028,0.90385 1.60469,0.78283 2.73447,-0.63101 0.55234,-0.69123 2.16765,-2.52242 3.58959,-4.06932 1.42193,-1.5469 2.58533,-2.96372 2.58533,-3.14849 0,-0.26045 -0.65308,-0.30149 -2.90631,-0.18262 -2.69824,0.14234 -3.64179,-0.0215 -2.8703,-0.49826 0.17459,-0.1079 1.02595,-0.32449 1.8919,-0.4813 1.40536,-0.25449 1.62748,-0.38413 2.06812,-1.20703 0.73706,-1.37644 0.6531,-2.75073 -0.20948,-3.42924 -1.16565,-0.9169 -3.37927,-1.43821 -4.69751,-1.10627 -1.95001,0.49101 -3.30475,1.23967 -3.93119,2.17246 -0.80921,1.20493 -1.9124,1.33625 -3.06662,0.36504 -1.34674,-1.13321 -0.98897,-1.89555 0.49222,-1.04883 0.3638,0.20797 0.90599,0.38235 1.20487,0.3875 0.72393,0.0125 2.35482,-1.67726 2.14544,-2.22288 -0.23114,-0.60235 -2.47898,-1.95726 -3.99364,-2.40721 -1.9877,-0.59048 -2.63504,-0.52678 -5.74757,0.56559 -0.24078,0.0845 -0.73327,0.82734 -1.09444,1.65074 -0.93986,2.14277 -0.9375,2.13321 -0.96023,3.87835 -0.016,1.22754 0.15047,1.94745 0.73416,3.175 z m 15.38564,10.18689 c 0.58281,0.19234 1.1069,0.3007 1.16465,0.24079 0.0577,-0.0599 0.71721,-1.10841 1.46546,-2.33 1.51351,-2.47096 1.86262,-2.95064 4.04931,-5.56372 0.83674,-0.99991 1.52135,-1.88981 1.52135,-1.97755 0,-0.0877 -0.28094,-0.15954 -0.62432,-0.15954 -1.17795,0 -8.55472,7.8306 -8.62152,9.15192 -0.008,0.15861 0.46227,0.44576 1.04507,0.6381 z m 3.10754,1.48885 c 0.5457,0.22217 1.58111,0.69235 2.30091,1.04483 0.71979,0.35249 1.45284,0.64089 1.62898,0.64089 0.17614,0 1.13503,0.36924 2.13086,0.82055 0.99583,0.4513 3.8942,1.47112 6.44081,2.26627 5.87304,1.83379 6.47253,1.82151 10.54717,-0.21607 3.05833,-1.52936 4.50222,-2.80744 8.32462,-7.36867 1.03657,-1.23693 2.16662,-2.54414 2.51122,-2.90492 0.3446,-0.36077 0.78398,-0.95609 0.97639,-1.32292 0.45464,-0.86673 2.19278,-2.47611 4.42966,-4.1015 2.92142,-2.1228 2.7141,-2.14449 -3.77031,-0.39459 -6.61013,1.78383 -7.33404,1.91187 -11.50937,2.03557 -3.79835,0.11254 -10.16552,-0.34964 -13.49375,-0.97949 -0.72761,-0.13769 -1.98091,-0.31214 -2.78513,-0.38765 l -1.4622,-0.1373 -1.51158,1.48769 c -1.38661,1.36471 -1.95748,2.13593 -4.76732,6.44053 -1.26647,1.94019 -1.26465,2.55822 0.009,3.07678 z"
         style="fill:#000000;stroke-width:0.67092592" />
    </g>
  </g>
</svg>
