<?xml version="1.0" encoding="UTF-8" standalone="no"?>
<!-- Created with Inkscape (http://www.inkscape.org/) -->

<svg
   xmlns:dc="http://purl.org/dc/elements/1.1/"
   xmlns:cc="http://creativecommons.org/ns#"
   xmlns:rdf="http://www.w3.org/1999/02/22-rdf-syntax-ns#"
   xmlns:svg="http://www.w3.org/2000/svg"
   xmlns="http://www.w3.org/2000/svg"
   xmlns:xlink="http://www.w3.org/1999/xlink"
   xmlns:sodipodi="http://sodipodi.sourceforge.net/DTD/sodipodi-0.dtd"
   xmlns:inkscape="http://www.inkscape.org/namespaces/inkscape"
   width="209.17694mm"
   height="293.62064mm"
   viewBox="0 0 209.17694 293.62064"
   version="1.1"
   id="svg8"
   inkscape:version="0.92.3 (2405546, 2018-03-11)"
   sodipodi:docname="Cartoon character 104.svg">
  <title
     id="title83">Cartoon character 104</title>
  <defs
     id="defs2">
    <linearGradient
       inkscape:collect="always"
       id="linearGradient1169">
      <stop
         style="stop-color:#ffffff;stop-opacity:1;"
         offset="0"
         id="stop1165" />
      <stop
         style="stop-color:#ffffff;stop-opacity:0;"
         offset="1"
         id="stop1167" />
    </linearGradient>
    <radialGradient
       inkscape:collect="always"
       xlink:href="#linearGradient1169"
       id="radialGradient1171"
       cx="666.51288"
       cy="676.5097"
       fx="666.51288"
       fy="676.5097"
       r="110.52522"
       gradientTransform="matrix(1,0,0,1.1255691,1.6040638,-80.898444)"
       gradientUnits="userSpaceOnUse" />
  </defs>
  <sodipodi:namedview
     id="base"
     pagecolor="#ffffff"
     bordercolor="#666666"
     borderopacity="1.0"
     inkscape:pageopacity="0.0"
     inkscape:pageshadow="2"
     inkscape:zoom="0.35355339"
     inkscape:cx="640.33462"
     inkscape:cy="511.34583"
     inkscape:document-units="mm"
     inkscape:current-layer="layer1"
     showgrid="false"
     fit-margin-top="0"
     fit-margin-left="0"
     fit-margin-right="0"
     fit-margin-bottom="0"
     inkscape:window-width="1600"
     inkscape:window-height="845"
     inkscape:window-x="0"
     inkscape:window-y="27"
     inkscape:window-maximized="1" />
  <metadata
     id="metadata5">
    <rdf:RDF>
      <cc:Work
         rdf:about="">
        <dc:format>image/svg+xml</dc:format>
        <dc:type
           rdf:resource="http://purl.org/dc/dcmitype/StillImage" />
        <dc:title>Cartoon character 104</dc:title>
        <dc:date>2022</dc:date>
        <dc:creator>
          <cc:Agent>
            <dc:title>Doodleguy</dc:title>
          </cc:Agent>
        </dc:creator>
        <dc:rights>
          <cc:Agent>
            <dc:title>public domain</dc:title>
          </cc:Agent>
        </dc:rights>
        <dc:description>www.redbubble.com/doodleguyart</dc:description>
        <dc:contributor>
          <cc:Agent>
            <dc:title>Doodleguy</dc:title>
          </cc:Agent>
        </dc:contributor>
        <cc:license
           rdf:resource="http://creativecommons.org/publicdomain/zero/1.0/" />
      </cc:Work>
      <cc:License
         rdf:about="http://creativecommons.org/publicdomain/zero/1.0/">
        <cc:permits
           rdf:resource="http://creativecommons.org/ns#Reproduction" />
        <cc:permits
           rdf:resource="http://creativecommons.org/ns#Distribution" />
        <cc:permits
           rdf:resource="http://creativecommons.org/ns#DerivativeWorks" />
      </cc:License>
    </rdf:RDF>
  </metadata>
  <g
     inkscape:groupmode="layer"
     id="layer2"
     inkscape:label="bund"
     transform="translate(-4.4887865,-2.2053772)" />
  <g
     inkscape:label="Layer 1"
     inkscape:groupmode="layer"
     id="layer1"
     transform="translate(-4.4887865,-2.2053772)">
    <g
       id="g1264">
      <path
         inkscape:connector-curvature="0"
         id="path291"
         d="m 32.521108,142.76743 c -1.050058,0.24156 -1.200278,1.58774 -1.437827,2.45323 -0.698252,4.27299 -2.249492,8.35788 -3.570562,12.47088 -1.222331,3.547 -2.521872,7.0716 -3.706427,10.62744 -2.06371,5.24833 -4.65763,10.28736 -6.319821,15.69095 -1.271722,3.92438 -3.063696,7.71033 -3.823551,11.78299 -0.224767,1.94387 0.2238,4.25714 1.890387,5.47339 2.627503,1.66477 5.857627,1.455 8.758682,2.24086 1.986743,0.73333 4.068395,1.14746 6.089369,1.76787 4.409074,1.68577 8.770171,4.10153 11.624177,7.9626 1.354352,2.18028 2.178731,4.65847 2.839983,7.12796 0.617222,3.55894 0.17891,7.23585 -0.720173,10.71337 -0.08508,0.80783 -0.526096,1.7219 -0.248946,2.50826 2.074669,-0.22035 4.14889,-0.7885 6.217361,-1.16075 1.943742,-0.47346 3.994018,-0.67379 5.848071,-1.4359 0.336954,-0.91545 -0.125043,-1.95695 -0.166079,-2.90123 -0.442209,-3.1329 -1.364489,-6.42948 -0.173572,-9.51555 0.964881,-2.82194 3.26761,-5.08088 5.889336,-6.39826 1.543269,-0.45724 3.19585,0.009 4.760135,0.15646 3.089507,0.57928 6.225275,0.97535 9.26804,1.77287 1.482813,0.57147 2.948404,1.19641 4.485351,1.6139 1.066585,0.48279 2.360642,1.03046 2.622278,2.31213 0.664506,1.85625 1.298033,3.82488 2.579962,5.35677 1.280967,1.05542 3.084341,1.0291 4.619067,1.45916 3.646009,0.67177 7.291689,1.44415 10.986261,1.78006 0.74682,-0.076 0.75483,-1.126 1.12085,-1.61392 1.80688,-3.71723 5.05016,-6.8954 9.1508,-7.86715 5.35419,-1.4132 11.09149,-0.69031 16.34423,-2.6278 3.64789,-1.06113 7.4219,-1.62081 11.09699,-2.58999 1.16492,-0.36603 2.38672,-0.34314 3.55732,-0.62361 0.6113,-0.25572 -0.20841,-0.71483 -0.50531,-0.77481 -3.03015,-1.12609 -6.0714,-2.25549 -9.17984,-3.14707 -5.06504,-1.24184 -9.92501,-3.18388 -14.91342,-4.69475 -8.37691,-2.72614 -16.73935,-5.49467 -25.174495,-8.03876 -3.168667,-1.00164 -6.439431,-1.94998 -9.2662,-3.73346 -0.468316,-0.87864 -0.217499,-1.99096 -0.368623,-2.95216 -0.154197,-4.57876 -0.596628,-9.13816 -1.040242,-13.6948 -0.262754,-2.68147 -0.09736,-5.43592 -0.70561,-8.07023 -0.309259,-0.29279 -0.386874,0.53289 -0.470221,0.69823 -0.435589,1.50765 -0.560524,3.13845 -1.20159,4.56832 -0.463162,-0.005 -0.810796,-0.6451 -1.062387,-1.01617 -0.615911,-1.0771 -0.0032,-2.34638 0.848851,-3.09027 0.503106,-0.82671 0.630983,-2.19077 -0.182354,-2.85781 -3.003875,-1.45643 -6.244754,-2.36864 -9.333953,-3.62956 -4.041089,-1.58467 -8.162614,-3.12166 -11.737259,-5.63096 -3.383369,-2.00858 -6.910942,-3.77257 -10.169786,-5.98761 -2.473191,-1.59147 -5.199842,-2.70698 -7.953095,-3.70084 -2.372661,-0.90154 -4.618926,-2.20701 -7.100159,-2.78539 z"
         style="opacity:1;vector-effect:none;fill:#0055d4;fill-opacity:1;stroke:none;stroke-width:0.56499994;stroke-linecap:round;stroke-linejoin:miter;stroke-miterlimit:4;stroke-dasharray:none;stroke-dashoffset:0;stroke-opacity:0" />
      <path
         inkscape:connector-curvature="0"
         id="path293"
         d="m 57.471882,3.8227351 c -3.497206,-0.1113894 -6.983863,0.9668478 -9.732857,3.1489524 -2.570787,1.6637401 -4.332159,4.2287895 -5.558109,6.9874065 -2.759058,5.606651 -4.684642,11.606943 -5.618062,17.789603 -1.389407,6.695524 -0.978536,13.567701 -1.143835,20.358462 -0.192836,14.20925 0.475942,28.413607 0.344871,42.621257 0.01174,4.065255 -2.397453,7.528644 -4.138788,11.035104 -3.662807,6.76361 -9.423188,11.98837 -14.197455,17.91668 -0.822428,1.42677 -0.47796,3.21249 -0.422441,4.78528 0.887217,3.59246 4.380529,5.52913 7.130678,7.5945 3.262295,2.42236 7.016621,4.05016 10.308429,6.42002 3.832138,2.3703 8.403424,3.21358 12.093556,5.84831 3.804876,2.44162 8.141835,3.91848 11.855714,6.51807 4.610511,2.60129 9.551087,4.57967 14.618482,6.08222 1.953502,0.5451 3.665177,1.93175 5.716049,2.07885 1.469267,-0.0883 1.512504,-1.96849 1.950738,-3.01114 1.448742,-5.36908 2.743911,-10.80666 5.027821,-15.89866 0.259113,-0.51363 0.43171,-1.18916 -0.197101,-1.51017 -2.445067,-1.85464 -5.340771,-2.97953 -8.017744,-4.44276 -2.290063,-0.86821 -4.654514,-1.59551 -6.688537,-3.00684 -6.236902,-3.48949 -12.731736,-6.569 -18.681778,-10.54519 -3.020973,-2.48323 -5.824985,-5.34142 -7.88536,-8.6822 -0.277157,-0.247 -0.421226,-1.23193 0.194892,-0.86816 1.220966,1.09211 1.712048,2.77959 2.931026,3.90142 3.902035,4.64955 9.273156,7.63783 14.571335,10.40651 5.274276,3.05695 10.771512,5.73922 16.35689,8.17475 0.970648,0.31293 0.880685,-1.04177 1.225654,-1.5678 1.861129,-2.72076 4.880971,-4.35769 7.313848,-6.51416 10.598229,-9.01412 21.229752,-17.99719 31.683142,-27.18174 0.84002,-0.91784 2.16162,-1.61783 2.53471,-2.851295 -0.54599,-1.091875 -1.80413,-1.730969 -2.63045,-2.619021 -2.474,-2.240162 -5.25047,-4.298565 -7.10943,-7.105486 -2.57534,-3.956107 -5.55429,-7.78586 -7.03187,-12.32782 -0.81499,-3.232349 0.15451,-6.507274 1.35404,-9.50528 1.2937,-3.056991 1.7871,-6.389133 1.48551,-9.692188 -0.10042,-3.282802 -0.40166,-6.957022 -2.95333,-9.346941 -2.27585,-2.114281 -5.611018,-2.281533 -8.264582,-3.736756 C 91.70632,43.250148 88.406502,39.781915 86.435211,35.69016 84.956497,33.081652 83.39934,30.471468 81.338093,28.285432 78.548901,23.309327 74.845851,18.93916 71.601032,14.266078 68.329063,10.16803 64.685723,6.1180119 59.890907,3.7939963 c -0.806342,0.00914 -1.612683,0.0192 -2.419025,0.0288 z M 74.401904,46.933662 c 4.96922,-0.09067 10.038255,1.313939 13.872837,4.570745 2.380759,1.988506 4.655441,4.5561 5.278952,7.664535 -1.147,2.164277 -3.133584,3.811773 -4.91512,5.458736 -2.794129,2.353745 -6.217621,3.891512 -9.815786,4.500009 -2.756555,0.778462 -5.708712,1.886398 -8.55929,0.86544 -3.607595,-0.633442 -7.429149,-0.388812 -10.782151,-2.084764 -2.892899,-1.176797 -5.753229,-2.471123 -8.455074,-4.02579 -2.163502,-0.54174 -3.901366,1.563642 -5.987718,1.555596 -0.758234,-0.207388 -0.721575,-1.626803 0.252377,-1.465829 1.654843,-0.189895 3.178041,-1.08319 3.980915,-2.573751 1.616304,-2.658885 3.552012,-5.099242 5.821184,-7.231488 2.703046,-2.943347 6.264555,-4.966062 10.125259,-5.938015 2.982712,-0.845325 6.081255,-1.289283 9.183615,-1.295424 z m -26.11554,30.622851 c 0.454987,0.289796 -0.445503,0.949674 -0.545304,1.285107 -1.201077,1.473342 -2.230352,3.795087 -0.81028,5.471552 0.286662,0.543446 1.127338,1.012211 1.078405,1.640243 -1.098801,-0.339685 -1.695297,-1.626347 -2.310753,-2.530841 -0.666961,-0.956333 -0.659322,-2.208862 0.102369,-3.119055 0.699626,-0.932029 1.346559,-2.319095 2.485563,-2.747006 z m 2.077669,2.220199 c 1.694433,0.805509 2.652834,2.619312 3.611212,4.156517 0.61806,0.828761 0.841073,2.166089 1.805606,2.654861 0.755829,0.09295 1.810782,0.369322 2.400621,-0.05577 0.714602,-1.478416 1.759993,-2.9442 3.468603,-3.306162 1.167219,-0.385474 2.46194,-1.205109 3.141481,0.292431 1.809297,1.738817 1.352133,4.586014 2.483596,6.678687 1.157631,0.402616 2.595674,0.396506 3.712004,-0.141714 1.783184,-1.599207 2.422919,-4.43857 4.781356,-5.380595 2.261573,-0.441367 4.23342,1.279713 5.864431,2.617483 0.940735,0.69549 1.613747,1.890648 2.731687,2.279628 2.208506,0.501526 4.118949,-0.951153 5.983384,-1.868203 1.593609,1.033117 3.613978,2.449805 3.625383,4.551803 -0.388153,0.390092 -0.858071,-0.563652 -1.116197,-0.806331 -0.623138,-1.030222 -1.57071,-2.276428 -2.950154,-1.890664 -1.673053,0.194513 -3.042902,1.606218 -4.72269,1.580404 -2.026943,-0.478852 -3.258606,-2.269829 -4.56638,-3.724596 -1.608605,-1.241238 -3.952906,-1.36404 -5.81605,-0.702013 -2.054957,1.226442 -2.252641,4.523568 -4.887263,4.966398 -1.25202,0.347837 -3.047572,0.29621 -3.480106,-1.221717 -1.013249,-1.946069 -1.18202,-4.192113 -2.000105,-6.191271 -0.838051,-0.952264 -2.245467,0.01067 -3.204892,0.272471 -1.402121,0.432879 -1.956049,1.82773 -2.844636,2.828482 -0.789812,0.825943 -2.418645,1.514409 -3.159613,0.244113 -1.21531,-1.314471 -1.747679,-3.053518 -2.525331,-4.614021 -0.64776,-0.903579 -1.795526,-2.530048 -3.064332,-1.641035 -0.529121,0.239068 -0.985627,1.252635 -1.623314,0.965796 -0.248893,-0.943335 0.941859,-1.560091 1.504015,-2.142227 0.255293,-0.165134 0.520656,-0.420293 0.847684,-0.402784 z M 96.62393,90.232383 c 0.696026,1.320703 1.156855,2.985845 0.147641,4.290777 -0.938,1.541577 -2.367136,3.428675 -4.375031,3.290314 -0.669344,-0.209947 -0.06966,-0.860654 0.395296,-0.842155 1.496055,-0.510852 2.955443,-1.641584 3.541526,-3.138362 0.245836,-1.373198 -0.0012,-2.775988 -0.02758,-4.157308 0.106042,0.185582 0.212085,0.37115 0.318126,0.556734 z"
         style="opacity:1;vector-effect:none;fill:#0055d4;fill-opacity:1;stroke:none;stroke-width:0.56499994;stroke-linecap:round;stroke-linejoin:miter;stroke-miterlimit:4;stroke-dasharray:none;stroke-dashoffset:0;stroke-opacity:0" />
      <path
         inkscape:connector-curvature="0"
         id="path295"
         d="m 78.844977,137.44061 c -0.0194,0.003 -0.03315,0.0185 -0.05036,0.0268 -0.05694,0.0341 -0.121751,0.0542 -0.187809,0.0602 -0.01774,0.002 -0.04003,0.003 -0.05065,0.0206 -0.01417,0.0207 -0.0036,0.0518 0.02008,0.0598 0.05563,0.0159 0.117272,0.0224 0.172149,-6e-5 0.03777,-0.0137 0.07151,-0.0372 0.09976,-0.0657 0.01548,-0.0166 0.03721,-0.0307 0.04207,-0.0542 0.0045,-0.0262 -0.01895,-0.0508 -0.04525,-0.0474 z"
         style="opacity:1;vector-effect:none;fill:#0055d4;fill-opacity:1;stroke:none;stroke-width:0.56499994;stroke-linecap:round;stroke-linejoin:miter;stroke-miterlimit:4;stroke-dasharray:none;stroke-dashoffset:0;stroke-opacity:0" />
      <path
         inkscape:connector-curvature="0"
         id="path297"
         d="m 132.92324,153.78137 c -0.64671,0.27331 -1.17054,0.80353 -1.75436,1.19392 -2.91264,2.21515 -5.82094,4.43877 -8.68548,6.71537 0.14829,0.2861 0.55038,0.43504 0.79752,0.65857 1.82812,1.27054 3.13684,3.11036 4.46472,4.86426 -0.24211,2.85008 -0.25998,5.7904 -1.35053,8.47751 -1.12112,3.01235 -3.57297,5.45253 -6.55059,6.64344 -2.32432,0.91776 -4.94768,1.5863 -7.40334,0.81045 -2.34485,-0.75357 -4.41247,-2.14266 -6.5631,-3.31385 -0.91135,-0.58338 -1.9587,-0.97259 -2.77226,-1.69384 -0.26798,-0.20016 -0.32432,-0.80856 -0.76905,-0.66763 -0.98779,0.4706 -1.81719,1.22123 -2.719454,1.83328 -4.826261,3.58184 -9.567705,7.27703 -14.32007,10.95601 -0.228905,0.24144 -0.61986,0.40895 -0.759765,0.70631 2.125262,1.01876 4.399343,1.70265 6.621659,2.48235 2.803892,0.93469 5.617068,1.85856 8.488442,2.55887 4.822028,1.40865 9.567448,3.07032 14.360018,4.57814 6.92272,2.2369 13.87065,4.39639 20.81883,6.54993 3.03849,0.93891 5.98882,2.20668 9.11728,2.83335 2.84937,0.52851 5.71558,-0.22837 8.49062,-0.82318 0.37673,-0.10803 0.79863,-0.15687 1.14113,-0.32409 -0.16327,-4.72647 -0.62747,-9.43607 -0.9662,-14.15183 -0.29391,-3.19283 -0.3475,-6.48843 -1.56396,-9.50423 -1.38442,-3.4459 -3.0339,-6.77759 -4.47832,-10.1982 -0.71462,-1.68431 -1.63369,-3.26762 -2.63903,-4.79268 -1.34488,-2.22145 -2.43018,-4.59313 -3.89097,-6.74627 -1.84961,-2.78855 -3.7727,-5.52766 -5.68502,-8.27314 -0.40721,-0.47707 -0.71505,-1.15517 -1.34158,-1.36907 -0.0289,-0.003 -0.058,-0.006 -0.0872,-0.003 z"
         style="opacity:1;vector-effect:none;fill:#0066ff;fill-opacity:1;stroke:none;stroke-width:0.56499994;stroke-linecap:round;stroke-linejoin:miter;stroke-miterlimit:4;stroke-dasharray:none;stroke-dashoffset:0;stroke-opacity:0" />
      <path
         inkscape:connector-curvature="0"
         id="path299"
         d="m 154.10673,191.12683 c -0.50734,0.0774 -0.39636,0.72325 -0.41321,1.09659 0.17674,2.85543 0.48548,5.70246 0.69384,8.55663 0.21784,2.20036 0.29294,4.42579 0.72803,6.59771 0.057,0.46994 0.44412,0.93578 0.9584,0.83298 1.93532,-0.38736 3.24809,-2.25852 3.55302,-4.12207 0.20583,-0.94878 -0.0923,-1.8888 -0.42998,-2.76709 -1.16411,-3.11116 -2.52469,-6.15677 -4.13687,-9.06236 -0.27892,-0.38413 -0.46146,-0.95384 -0.93526,-1.13212 l -0.0153,-3.9e-4 z"
         style="opacity:1;vector-effect:none;fill:#0066ff;fill-opacity:1;stroke:none;stroke-width:0.56499994;stroke-linecap:round;stroke-linejoin:miter;stroke-miterlimit:4;stroke-dasharray:none;stroke-dashoffset:0;stroke-opacity:0" />
      <path
         inkscape:connector-curvature="0"
         id="path301"
         d="m 120.40477,148.82317 c -0.47075,-0.0666 -0.69823,0.415 -0.707,0.81281 -0.0824,1.54708 -0.46045,3.08761 -1.22107,4.44623 -0.61471,1.15213 -1.51105,2.19691 -2.74117,2.70009 -1.00183,0.58056 -2.20376,0.77172 -3.12744,1.48625 -0.29736,0.22936 0.0912,0.48527 0.31224,0.54624 2.30797,0.84325 4.75683,1.21253 7.09281,1.96898 0.6052,0.26008 1.30794,0.31914 1.89569,-0.021 1.8366,-0.97694 3.42442,-2.3495 5.08897,-3.58346 1.91439,-1.49126 3.8449,-2.964 5.72353,-4.49964 -0.0649,-0.21613 -0.45333,-0.21218 -0.63379,-0.33184 -3.54969,-1.24026 -7.11141,-2.47598 -10.76209,-3.38859 -0.30314,-0.0628 -0.60876,-0.14354 -0.92068,-0.13593 z"
         style="opacity:1;vector-effect:none;fill:#0066ff;fill-opacity:1;stroke:none;stroke-width:0.56499994;stroke-linecap:round;stroke-linejoin:miter;stroke-miterlimit:4;stroke-dasharray:none;stroke-dashoffset:0;stroke-opacity:0" />
      <path
         inkscape:connector-curvature="0"
         id="path303"
         d="m 83.208873,165.80424 c -0.303269,0.25762 -0.183168,0.7598 -0.257853,1.11398 -0.238382,4.61433 -0.01653,9.23885 0.243963,13.84752 0.204066,2.74115 0.340483,5.50293 0.877215,8.204 0.08891,0.21483 0.103313,0.71937 0.432502,0.69114 1.2742,-0.7925 2.423894,-1.77904 3.640005,-2.65913 4.332832,-3.3025 8.687915,-6.57821 12.958525,-9.96034 0.1,-0.23504 -0.26351,-0.43028 -0.36362,-0.61841 -1.819924,-1.94348 -3.642893,-3.89169 -5.598939,-5.6998 -1.777069,-1.56366 -4.039119,-2.40048 -6.292141,-3.0087 -1.217603,-0.32902 -2.427345,-0.7418 -3.667036,-0.95994 -0.533811,0.46724 -0.30763,1.27693 -0.368263,1.89926 -0.04122,2.62669 0.285045,5.26501 0.145689,7.88049 0.01372,0.15071 -0.139808,0.52258 -0.304571,0.28759 -0.550364,-0.9974 -0.578212,-2.17476 -0.734014,-3.28029 -0.278579,-2.47376 -0.220848,-4.9781 -0.544553,-7.44713 -0.03214,-0.0927 -0.03456,-0.28402 -0.166902,-0.29024 z"
         style="opacity:1;vector-effect:none;fill:#0066ff;fill-opacity:1;stroke:none;stroke-width:0.56499994;stroke-linecap:round;stroke-linejoin:miter;stroke-miterlimit:4;stroke-dasharray:none;stroke-dashoffset:0;stroke-opacity:0" />
      <path
         inkscape:connector-curvature="0"
         id="path305"
         d="m 93.734874,140.4935 c -0.874598,-0.03 -1.356198,0.86101 -1.747677,1.50672 -0.361409,0.69505 -0.829407,1.371 -1.080066,2.10584 1.10174,1.10083 2.274015,2.14409 3.508298,3.09626 0.863057,0.64076 1.936547,1.02356 3.019419,0.88017 2.383786,-0.24606 4.749412,-0.91659 6.849972,-2.08274 0.68216,-0.43135 1.4982,-0.87196 1.7879,-1.67362 0.083,-0.32377 -0.007,-0.7381 -0.39575,-0.78996 -3.44507,-0.8967 -6.8846,-1.82033 -10.314694,-2.77555 -0.53395,-0.12739 -1.074611,-0.26849 -1.627402,-0.26712 z"
         style="opacity:1;vector-effect:none;fill:#0066ff;fill-opacity:1;stroke:none;stroke-width:0.56499994;stroke-linecap:round;stroke-linejoin:miter;stroke-miterlimit:4;stroke-dasharray:none;stroke-dashoffset:0;stroke-opacity:0" />
      <path
         inkscape:connector-curvature="0"
         id="path307"
         d="m 90.552898,139.55331 c -0.788357,-0.0204 -1.426939,0.56065 -1.857578,1.16288 -0.343573,0.5008 -0.565631,1.14768 -0.411129,1.75214 0.121584,0.32469 0.472368,0.49657 0.806881,0.45636 0.846281,-0.0201 1.562033,-0.64915 1.908176,-1.38883 0.22761,-0.48448 0.530504,-0.98741 0.500984,-1.54066 -0.06032,-0.43599 -0.616432,-0.4408 -0.947334,-0.44189 z"
         style="opacity:1;vector-effect:none;fill:#0066ff;fill-opacity:1;stroke:none;stroke-width:0.56499994;stroke-linecap:round;stroke-linejoin:miter;stroke-miterlimit:4;stroke-dasharray:none;stroke-dashoffset:0;stroke-opacity:0" />
      <path
         inkscape:connector-curvature="0"
         id="path309"
         d="m 81.314858,137.19982 c -0.252159,-0.0137 -0.57449,0.0206 -0.664966,0.30297 -0.110871,0.36357 -0.12233,0.79017 0.04956,1.13743 0.35367,0.57392 1.005511,0.85983 1.575075,1.1719 1.096398,0.53026 2.211218,1.06541 3.406809,1.32898 0.408347,0.0433 0.849686,0.0743 1.23444,-0.0917 0.539087,-0.32667 0.87836,-0.95344 0.911214,-1.57709 0.02491,-0.52473 -0.470718,-0.85268 -0.900913,-1.02752 -1.242237,-0.49128 -2.567609,-0.71928 -3.865488,-1.01352 -0.575184,-0.11779 -1.154746,-0.24858 -1.745725,-0.2315 z"
         style="opacity:1;vector-effect:none;fill:#0066ff;fill-opacity:1;stroke:none;stroke-width:0.56499994;stroke-linecap:round;stroke-linejoin:miter;stroke-miterlimit:4;stroke-dasharray:none;stroke-dashoffset:0;stroke-opacity:0" />
      <path
         inkscape:connector-curvature="0"
         id="path311"
         d="m 122.63799,100.05147 c -1.0908,0.23139 -1.88774,1.13925 -2.75894,1.77592 -3.96375,3.38507 -7.62433,7.11721 -11.76487,10.29566 -4.64765,3.86926 -9.147424,7.9138 -13.741054,11.84718 -3.410217,3.01373 -6.909052,5.92355 -10.506847,8.7113 -0.864321,0.78809 -1.921318,1.45659 -2.531037,2.47296 0.05895,0.56556 0.796335,0.71789 1.215871,0.94568 3.997347,1.48239 8.319385,1.80582 12.31226,3.30511 4.37963,1.35496 8.758707,2.74407 13.175427,3.96007 1.65368,-0.75305 3.05481,-2.04373 4.791,-2.6021 1.19215,-0.14537 2.41928,0.2247 3.50964,0.6963 1.38407,0.94132 2.51883,2.26361 3.33009,3.72027 0.41466,0.64871 0.22225,1.50402 0.67267,2.12116 0.90583,0.70049 2.11665,0.84066 3.16946,1.23099 2.00149,0.54934 3.98098,1.24047 6.03358,1.56857 0.29207,0.0681 0.92534,-0.009 0.6713,-0.44845 -1.52698,-2.61756 -3.33713,-5.06333 -4.93741,-7.63733 -1.89484,-3.04452 -3.92635,-6.04615 -5.30309,-9.37191 -0.90689,-2.50143 -1.1453,-5.52994 0.34588,-7.85446 0.91846,-1.23719 2.38713,-2.40246 4.02462,-2.0621 3.47015,0.73817 6.95463,1.43843 10.45354,2.04265 3.15108,0.52418 6.28767,1.17212 9.45971,1.55044 0.37447,0.0939 0.60963,-0.23208 0.56932,-0.58212 0.2512,-4.16005 0.029,-8.33311 0.0174,-12.4977 -0.0306,-1.19077 -0.005,-2.39941 -0.0605,-3.57931 -2.25245,-1.20622 -4.70199,-1.94031 -7.12356,-2.71516 -3.69018,-1.3487 -7.13761,-3.28118 -10.73978,-4.82481 -1.35606,-0.68868 -2.5832,-1.73825 -4.09274,-2.06841 -0.0638,-0.005 -0.12807,-0.006 -0.19194,-4e-4 z"
         style="opacity:1;vector-effect:none;fill:#0066ff;fill-opacity:1;stroke:none;stroke-width:0.56499994;stroke-linecap:round;stroke-linejoin:miter;stroke-miterlimit:4;stroke-dasharray:none;stroke-dashoffset:0;stroke-opacity:0" />
      <path
         inkscape:connector-curvature="0"
         id="path313"
         d="m 145.93634,110.02526 c -0.0847,0.51666 -0.0269,1.06837 -0.0509,1.59713 8.1e-4,4.17678 0.009,8.35574 0.18161,12.52949 0.047,0.96117 0.14857,1.91889 0.29322,2.87013 0.69532,0.14827 1.44929,0.1726 2.16725,0.27314 3.08049,0.33069 6.15563,0.72244 9.24275,0.98482 0.22018,0.0303 0.48809,0.0122 0.57223,-0.23771 0.23088,-0.48347 0.11947,-1.05278 0.18298,-1.57014 0.1379,-4.01849 0.3282,-8.03561 0.43789,-12.0548 -0.1347,-0.22609 -0.5544,-0.20153 -0.79811,-0.32909 -3.23112,-1.00422 -6.46081,-2.02333 -9.59786,-3.29783 -0.8549,-0.31838 -1.74007,-0.58955 -2.63108,-0.76514 z"
         style="opacity:1;vector-effect:none;fill:#0066ff;fill-opacity:1;stroke:none;stroke-width:0.56499994;stroke-linecap:round;stroke-linejoin:miter;stroke-miterlimit:4;stroke-dasharray:none;stroke-dashoffset:0;stroke-opacity:0" />
      <path
         inkscape:connector-curvature="0"
         id="path315"
         d="m 113.01939,142.44079 c -0.93736,-0.0722 -1.67337,0.61482 -2.3871,1.11396 -0.85996,0.61832 -1.66286,1.37879 -2.67369,1.7359 -1.11292,0.58595 -2.04565,1.46039 -3.17635,2.01737 -2.15993,1.14289 -4.45996,2.05509 -6.851052,2.57412 -1.287489,0.20534 -2.655462,0.14597 -3.861718,-0.37622 -0.446421,-0.19793 -0.938765,-0.52389 -0.942765,-1.072 0.02709,-0.64337 -0.286577,-1.23177 -0.695264,-1.70753 -0.469844,-0.51925 -1.054074,-1.09462 -1.794234,-1.13238 -0.588395,0.062 -0.962329,0.62411 -1.229506,1.09806 -0.846348,1.75477 -1.629413,3.54316 -2.321465,5.3648 -0.905263,2.47306 -1.348812,5.07947 -1.990679,7.62618 -0.40838,1.6228 -0.563581,3.29773 -0.528323,4.96876 0.03963,0.26801 -0.150703,0.71445 0.264741,0.72611 2.136789,0.71432 4.250766,1.54306 6.469632,1.97146 0.87676,0.20873 1.875188,-0.008 2.636459,0.56411 1.037874,0.80178 1.847256,1.87138 2.733037,2.83543 1.675623,1.888 3.306079,3.87013 5.415027,5.2983 1.89687,1.30787 3.80412,2.60471 5.76821,3.80979 2.0034,1.18712 4.24824,2.15399 6.61905,2.11523 2.07806,-0.0481 4.14524,-0.49492 6.08145,-1.24423 1.87943,-0.74307 3.5043,-2.16271 4.35994,-4.00845 1.06588,-2.29002 1.35618,-4.84652 1.51986,-7.33976 0.0764,-1.03404 -0.0151,-2.13645 -0.61479,-3.01748 -0.96923,-1.45332 -2.22397,-2.78765 -3.85004,-3.49717 -2.16512,-0.9629 -4.50466,-1.4319 -6.79743,-1.98364 -2.10093,-0.45697 -4.18778,-1.03448 -6.13803,-1.95553 -0.55553,-0.2869 -1.20069,-0.41048 -1.7009,-0.79627 -0.36203,-0.33836 -0.37903,-0.90363 -0.27796,-1.35607 0.20137,-0.39477 0.73421,-0.25803 1.09127,-0.27979 1.48876,0.0106 2.9863,0.0987 4.46955,-0.061 1.75703,-0.2347 3.57451,-0.93204 4.66121,-2.40097 0.86969,-1.18385 1.08553,-2.68634 1.34845,-4.09425 0.19614,-1.37116 0.372,-2.76662 0.2449,-4.1519 -0.13977,-0.92345 -0.86516,-1.59793 -1.47048,-2.25048 -0.77923,-0.823 -1.96522,-0.95704 -3.03247,-1.05034 -0.44849,-0.0375 -0.89863,-0.0475 -1.34854,-0.0442 z"
         style="opacity:1;vector-effect:none;fill:#ffcc00;fill-opacity:1;stroke:none;stroke-width:0.56499994;stroke-linecap:round;stroke-linejoin:miter;stroke-miterlimit:4;stroke-dasharray:none;stroke-dashoffset:0;stroke-opacity:0" />
      <path
         inkscape:connector-curvature="0"
         id="path317"
         d="m 87.800156,143.97453 c -0.700114,0.008 -1.136489,0.67606 -1.474189,1.20244 -1.011019,1.77942 -1.581876,3.76355 -2.187536,5.70652 -1.002132,3.45179 -1.915291,6.93262 -2.653246,10.45092 -0.137614,0.81382 -0.364991,1.63617 -0.297676,2.46686 0.155554,0.30301 0.565228,0.34635 0.866578,0.41498 0.316115,0.0106 0.700058,0.11398 0.980858,-0.0626 0.213753,-0.79016 0.298967,-1.61275 0.483563,-2.41184 0.445471,-2.15279 0.848239,-4.31748 1.382118,-6.45035 1.055231,-3.14305 2.379348,-6.18465 3.687206,-9.22866 0.178943,-0.53248 0.483199,-1.14118 0.245253,-1.69995 -0.209699,-0.34197 -0.66851,-0.39815 -1.032929,-0.38831 z"
         style="opacity:1;vector-effect:none;fill:#ffcc00;fill-opacity:1;stroke:none;stroke-width:0.56499994;stroke-linecap:round;stroke-linejoin:miter;stroke-miterlimit:4;stroke-dasharray:none;stroke-dashoffset:0;stroke-opacity:0" />
      <path
         inkscape:connector-curvature="0"
         id="path319"
         d="m 56.644287,236.95468 c -3.235446,0.4026 -6.381184,1.32523 -9.556064,2.04306 -1.435511,0.37739 -2.909434,0.63007 -4.342907,0.99351 -0.653217,0.4935 -0.559037,1.46196 -0.767074,2.17776 -0.429013,2.71267 -1.118395,5.40315 -2.399672,7.84919 -0.372569,0.70007 -0.517025,1.48479 -0.760984,2.2247 -0.737479,1.0259 -1.545675,2.0096 -2.172566,3.11296 -2.430273,3.61729 -5.884034,6.35868 -9.074727,9.26745 -2.209739,2.00696 -4.62207,3.79939 -7.293721,5.14428 -2.009846,1.07514 -4.008322,2.20112 -6.052036,3.18997 -2.081488,1.5872 -3.970908,3.42062 -5.7983191,5.29081 -2.147167,2.15817 -2.9289149,5.34947 -2.6486296,8.31789 0.1412253,3.40898 2.7303111,6.5656 6.0822727,7.28332 1.942073,0.37161 3.943533,0.23118 5.908587,0.18252 2.934599,-0.22093 5.725912,-1.26962 8.468198,-2.26859 1.717829,-0.61001 3.270642,-1.57483 4.900782,-2.3653 2.106567,-0.85343 4.21664,-1.75346 6.049616,-3.12207 5.153771,-3.68885 8.732363,-9.04155 12.587783,-13.96644 2.912087,-3.8597 6.059043,-7.53235 9.088327,-11.29857 1.230783,-1.67256 2.738657,-3.31172 3.187519,-5.40075 0.308358,-2.38138 -0.583492,-4.70717 -1.186262,-6.97171 -1.162582,-3.71314 -2.185749,-7.46753 -3.347045,-11.18003 -0.12102,-0.60415 -0.324661,-0.56195 -0.873078,-0.50396 z"
         style="opacity:1;vector-effect:none;fill:#ffcc00;fill-opacity:1;stroke:none;stroke-width:0.56499994;stroke-linecap:round;stroke-linejoin:miter;stroke-miterlimit:4;stroke-dasharray:none;stroke-dashoffset:0;stroke-opacity:0" />
      <path
         inkscape:connector-curvature="0"
         id="path321"
         d="m 56.655115,231.95659 c -3.699655,0.56211 -7.366983,1.34051 -11.028774,2.11012 -0.868245,0.20114 -1.967058,0.41929 -2.264835,1.40128 -0.346094,0.98122 -0.509694,2.14436 -0.112015,3.12654 0.546562,0.50455 1.371575,0.0856 2.010447,0.0526 3.984089,-0.79559 8.035643,-1.51475 11.837519,-2.9492 -0.04417,-1.24554 -0.135252,-2.52382 -0.375412,-3.73444 -0.021,-0.009 -0.04489,-0.008 -0.06692,-0.008 z"
         style="opacity:1;vector-effect:none;fill:#ffcc00;fill-opacity:1;stroke:none;stroke-width:0.56499994;stroke-linecap:round;stroke-linejoin:miter;stroke-miterlimit:4;stroke-dasharray:none;stroke-dashoffset:0;stroke-opacity:0" />
      <path
         inkscape:connector-curvature="0"
         id="path323"
         d="m 86.987805,229.096 c -0.209089,0.34153 -0.06326,0.89766 -0.140784,1.30662 -0.139991,3.06501 -0.06166,6.14488 -0.327359,9.20063 -0.718789,3.17133 -2.274991,6.07628 -3.798301,8.92418 -0.859646,1.50155 -1.907698,2.88891 -2.648689,4.46036 -0.849629,1.8389 -2.0289,3.48033 -3.043153,5.22573 -0.503385,0.79615 -0.792404,2.05642 0.103039,2.7011 1.24295,0.89333 2.911388,1.00945 4.040657,2.09631 1.440585,0.956 3.186295,1.24871 4.717666,2.02497 4.86973,2.09056 9.43065,4.93192 14.565709,6.37211 4.08222,1.18605 8.06107,2.69657 11.97602,4.34695 5.20627,1.92772 10.51246,3.61031 15.90951,4.91715 2.11403,0.3745 4.14849,1.09396 6.25934,1.46975 2.14538,0.2399 4.34594,0.13883 6.45866,-0.30394 1.77512,-0.65769 3.52015,-1.5447 4.92309,-2.8336 1.78655,-1.77823 2.18972,-4.41282 2.61629,-6.78678 0.47703,-2.84464 0.0942,-5.86153 -1.35658,-8.38115 -1.18623,-2.25603 -3.46584,-3.67188 -5.73885,-4.65159 -1.784,-0.61995 -3.71313,-0.34515 -5.5645,-0.4343 -2.89534,0.0512 -5.84383,-0.13744 -8.67093,0.62049 -2.66276,0.57271 -5.221,1.55087 -7.85696,2.20136 -3.45927,0.66204 -7.0093,0.30841 -10.50245,0.16682 -3.17111,-0.18852 -6.32777,-0.72279 -9.368806,-1.64351 -1.414986,-0.68177 -2.526877,-1.8793 -3.573694,-3.02786 -1.247786,-1.38599 -2.161878,-3.11208 -2.246887,-5.00109 -0.319194,-3.87281 0.305248,-7.80925 1.838503,-11.38194 0.946616,-2.61047 1.985059,-5.2085 2.606451,-7.91988 0.166416,-0.58731 0.007,-1.35336 -0.660503,-1.52764 -1.861588,-0.43186 -3.778114,-0.6056 -5.634166,-1.07613 -1.629962,-0.33286 -3.23226,-0.84238 -4.882328,-1.06512 z"
         style="opacity:1;vector-effect:none;fill:#ffcc00;fill-opacity:1;stroke:none;stroke-width:0.56499994;stroke-linecap:round;stroke-linejoin:miter;stroke-miterlimit:4;stroke-dasharray:none;stroke-dashoffset:0;stroke-opacity:0" />
      <path
         inkscape:connector-curvature="0"
         id="path325"
         d="m 86.017086,225.09029 c -0.202835,0.0797 -0.13862,0.36509 -0.131199,0.53585 0.100068,0.6374 0.293223,1.286 0.678117,1.81171 0.343978,0.33942 0.857781,0.39627 1.293118,0.56018 2.698646,0.78834 5.443424,1.41208 8.19829,1.96897 0.955576,0.16504 1.912621,0.40862 2.888415,0.38614 0.394441,-8e-4 0.821426,-0.19699 0.944826,-0.59835 0.168257,-0.52546 0.126557,-1.09347 0.09714,-1.63696 0.0039,-0.3534 -0.292026,-0.64884 -0.641626,-0.66383 -1.314429,-0.0559 -2.612538,-0.30924 -3.912192,-0.51112 -2.911883,-0.49611 -5.828082,-1.00183 -8.707054,-1.65215 -0.241976,-0.0461 -0.471985,-0.13699 -0.70784,-0.20044 z"
         style="opacity:1;vector-effect:none;fill:#ffcc00;fill-opacity:1;stroke:none;stroke-width:0.56499994;stroke-linecap:round;stroke-linejoin:miter;stroke-miterlimit:4;stroke-dasharray:none;stroke-dashoffset:0;stroke-opacity:0" />
      <path
         inkscape:connector-curvature="0"
         id="path327"
         d="m 188.86656,115.45701 c -0.53846,-0.0562 -0.86402,0.46929 -0.87294,0.94767 -0.15177,2.14372 0.62648,4.209 0.83061,6.32198 0.21429,1.94949 0.32786,3.93735 0.0492,5.88378 -0.2143,0.89685 -0.6655,1.73418 -0.71799,2.67072 -0.0849,0.94045 -1.08031,1.44812 -1.92377,1.48221 -1.80191,0.098 -3.38223,-1.04499 -4.64418,-2.21622 -0.74914,-0.70274 -1.33601,-1.57271 -1.6558,-2.54488 -0.22171,-0.54396 -0.93143,-0.67397 -1.38311,-0.33187 -1.14624,0.74245 -2.00867,1.8613 -2.71491,3.01363 -0.29452,0.43836 -0.37783,1.14483 0.14476,1.4482 0.9492,0.50512 2.07936,0.62019 2.95525,1.28372 1.78389,1.26342 3.09569,3.10761 5.02318,4.18584 2.86869,1.70804 6.01881,2.86549 9.11934,4.07229 1.18033,0.43507 2.47035,0.284 3.70297,0.31292 1.61745,-0.064 3.39831,-0.029 4.75347,-1.05987 0.93173,-0.67018 1.71189,-1.55123 2.17376,-2.60916 0.58927,-1.18445 1.34171,-2.34227 1.44825,-3.69708 0.4232,-3.6126 -0.23495,-7.38505 -1.99852,-10.57863 -1.61045,-2.83505 -4.11867,-5.19624 -7.16386,-6.41495 -1.96284,-0.78182 -3.9683,-1.47094 -6.00556,-2.03124 -0.36739,-0.0813 -0.74229,-0.15071 -1.12016,-0.13912 z"
         style="opacity:1;vector-effect:none;fill:#ffd42a;fill-opacity:1;stroke:none;stroke-width:0.56499994;stroke-linecap:round;stroke-linejoin:miter;stroke-miterlimit:4;stroke-dasharray:none;stroke-dashoffset:0;stroke-opacity:0" />
      <path
         inkscape:connector-curvature="0"
         id="path329"
         d="m 186.47273,118.25697 c -0.35231,0.0538 -0.55288,0.40333 -0.81085,0.61318 -1.50597,1.50444 -2.84054,3.16921 -4.14451,4.8484 -0.45498,0.6271 -0.96193,1.2309 -1.3025,1.9307 -0.15163,0.44702 0.1417,0.88567 0.29768,1.28887 0.56518,1.16102 1.22194,2.29139 2.05592,3.28133 0.50343,0.53385 1.20029,0.83396 1.87396,1.09267 0.483,0.19704 1.02178,0.20165 1.52966,0.12297 0.77032,-0.23844 1.20711,-1.00606 1.40703,-1.74081 0.51654,-1.88835 0.46804,-3.86931 0.42723,-5.8092 -0.0721,-1.56296 -0.16522,-3.14884 -0.61622,-4.65609 -0.1312,-0.33659 -0.23174,-0.75802 -0.56984,-0.94733 -0.0465,-0.0192 -0.0973,-0.0277 -0.14751,-0.0249 z"
         style="opacity:1;vector-effect:none;fill:#ffd42a;fill-opacity:1;stroke:none;stroke-width:0.56499994;stroke-linecap:round;stroke-linejoin:miter;stroke-miterlimit:4;stroke-dasharray:none;stroke-dashoffset:0;stroke-opacity:0" />
      <path
         inkscape:connector-curvature="0"
         id="path331"
         d="m 180.22444,108.09174 c -0.59816,0.0206 -1.26428,0.12145 -1.68876,0.58499 -1.13587,0.8157 -2.45225,1.33599 -3.59952,2.13786 -0.98347,0.6589 -1.94148,1.39489 -2.68665,2.32192 -0.30073,0.48193 0.13471,0.99006 0.31449,1.42702 0.11337,0.23671 0.31045,0.63847 -0.0204,0.79091 -0.72968,0.33894 -1.5755,0.20661 -2.35956,0.21487 -1.83905,-0.0576 -3.68868,-0.28168 -5.52499,-0.078 -0.30474,0.0232 -0.4776,0.30553 -0.46753,0.59133 -0.15785,2.10717 -0.0137,4.22281 0.0403,6.33168 0.0953,2.36067 0.18341,4.72784 0.30661,7.08354 0.38914,0.23467 0.88176,0.25121 1.31193,0.38875 2.13757,0.50408 4.25364,1.10814 6.40765,1.53989 0.68174,0.0824 1.49132,0.19942 2.06853,-0.26124 0.86996,-0.97873 1.64774,-2.03731 2.50544,-3.02732 0.47917,-0.59678 1.01136,-1.16472 1.46071,-1.77903 -0.0889,-0.65511 -0.37588,-1.27406 -0.54807,-1.912 -0.49952,-1.63037 -1.07508,-3.25185 -1.36993,-4.93127 -0.0232,-0.11855 -0.0534,-0.43992 0.16082,-0.3389 0.57257,0.35965 0.85267,1.02482 1.15726,1.60077 0.54572,1.09782 0.79825,2.33171 1.45913,3.37184 0.0905,0.16144 0.29444,0.26077 0.44322,0.10407 1.36282,-1.12345 2.5121,-2.47912 3.68567,-3.79263 0.99458,-1.18573 2.04895,-2.35985 2.73811,-3.75817 0.30101,-0.71845 0.043,-1.52312 -0.18945,-2.22366 -0.73258,-2.05591 -1.76618,-4.10603 -3.46667,-5.52995 -0.60492,-0.48452 -1.34002,-0.89086 -2.13849,-0.85728 z"
         style="opacity:1;vector-effect:none;fill:#ffd42a;fill-opacity:1;stroke:none;stroke-width:0.56499994;stroke-linecap:round;stroke-linejoin:miter;stroke-miterlimit:4;stroke-dasharray:none;stroke-dashoffset:0;stroke-opacity:0" />
      <path
         inkscape:connector-curvature="0"
         id="path333"
         d="m 162.31977,114.96441 c -0.51444,0.009 -1.03074,-0.0122 -1.54387,0.0302 -0.27804,0.0357 -0.55574,0.18678 -0.66909,0.45475 -0.16496,0.38754 -0.21113,0.81269 -0.27711,1.22526 -0.15247,1.29692 -0.1699,2.60494 -0.19817,3.9091 -0.026,2.06491 -0.0341,4.1308 0.0277,6.19516 0.0304,0.65415 0.041,1.314 0.16229,1.95921 0.0168,0.14734 0.15613,0.22244 0.28617,0.2531 0.57323,0.15161 1.17288,0.1763 1.76318,0.16828 0.41399,-0.0216 0.86044,-0.0212 1.22596,-0.24332 0.26933,-0.16659 0.34067,-0.49998 0.36524,-0.79298 0.087,-0.9386 0.0587,-1.88308 0.0587,-2.82443 -0.0381,-3.42915 -0.1286,-6.85744 -0.203,-10.28592 -0.0346,-0.0809 -0.15162,-0.0282 -0.22054,-0.0461 -0.25912,-0.003 -0.51827,-0.003 -0.77741,-0.003 z"
         style="opacity:1;vector-effect:none;fill:#ffd42a;fill-opacity:1;stroke:none;stroke-width:0.56499994;stroke-linecap:round;stroke-linejoin:miter;stroke-miterlimit:4;stroke-dasharray:none;stroke-dashoffset:0;stroke-opacity:0" />
      <path
         transform="matrix(0.26458333,0,0,0.26458333,4.064378,1.1337481)"
         inkscape:connector-curvature="0"
         id="path335"
         d="m 194.43087,203.29333 c -1.98845,0.55814 -3.22788,2.51693 -4.65918,3.88867 -4.83631,5.67866 -9.48455,11.75863 -12.19043,18.77295 -0.53383,1.80601 -1.27194,3.88062 -0.58448,5.7251 3.20834,3.26414 7.49584,5.19468 11.42742,7.43601 9.30761,4.7814 18.80317,9.36422 28.82125,12.46058 9.72035,2.60783 19.85814,2.75778 29.7484,4.29396 3.55695,0.6352 7.00755,2.04996 10.69092,1.76466 7.29111,0.15858 14.40799,-1.7462 21.24259,-4.10172 8.19311,-2.7163 17.02575,-3.27957 24.88583,-7.03318 12.44468,-5.52688 22.48948,-15.51607 29.70508,-26.91455 1.95075,-2.83023 1.40155,-6.57342 -0.31836,-9.36426 -1.04778,-1.94836 -2.89361,-3.87781 -5.31152,-3.54834 -4.128,0.10202 -7.36119,3.09825 -10.90461,4.83252 -10.79709,6.18722 -22.63831,10.60735 -34.97869,12.40088 -8.91401,1.50202 -17.96395,1.78092 -26.98975,1.68268 -6.50537,0.011 -13.0751,-3.8e-4 -19.41138,-1.64693 -10.23559,-2.19625 -19.21426,-7.82279 -27.85269,-13.49127 -4.00472,-2.48052 -7.92119,-5.23143 -12.28769,-7.03325 -0.33626,-0.0863 -0.68457,-0.14436 -1.03271,-0.12451 z"
         style="opacity:1;vector-effect:none;fill:#ffffff;fill-opacity:1;stroke:none;stroke-width:2.13543296;stroke-linecap:round;stroke-linejoin:miter;stroke-miterlimit:4;stroke-dasharray:none;stroke-dashoffset:0;stroke-opacity:0" />
      <path
         transform="matrix(0.26458333,0,0,0.26458333,4.064378,1.1337481)"
         inkscape:connector-curvature="0"
         id="path337"
         d="m 265.34206,178.7977 c -15.33854,0.13036 -30.78579,2.18107 -45.29981,7.27832 -6.0468,2.23688 -12.04213,4.9303 -17.11858,8.96778 -0.87106,0.66671 -1.98468,1.68101 -1.51081,2.90624 0.78462,1.89112 2.18092,3.45933 3.47412,5.02149 3.286,3.59111 7.52208,6.12826 11.72176,8.50568 5.36254,2.87356 10.98134,5.43884 16.95196,6.73793 6.8415,1.2126 13.8226,1.33979 20.75375,1.32623 9.91954,-0.14698 19.85932,-0.60556 29.69229,-1.97791 6.88482,-0.93914 13.46249,-3.28397 20.05346,-5.38528 5.70127,-1.80403 10.94535,-4.86891 15.57643,-8.62405 1.24186,-1.12574 2.71925,-2.20493 3.35093,-3.81356 0.12392,-1.20255 -0.92216,-2.12125 -1.63033,-2.96385 -3.88868,-3.87567 -8.62975,-6.76047 -13.37682,-9.45715 -6.86811,-3.86713 -14.47677,-6.36457 -22.2878,-7.39554 -6.73733,-0.92624 -13.557,-1.13934 -20.35055,-1.12633 z"
         style="opacity:1;vector-effect:none;fill:#333333;fill-opacity:1;stroke:none;stroke-width:2.13543296;stroke-linecap:round;stroke-linejoin:miter;stroke-miterlimit:4;stroke-dasharray:none;stroke-dashoffset:0;stroke-opacity:0" />
      <path
         transform="matrix(0.26458333,0,0,0.26458333,4.064378,1.1337481)"
         inkscape:connector-curvature="0"
         id="path358"
         d="m 599.95686,552.12466 c -4.28138,-0.2702 -7.89486,2.42197 -10.57388,5.48795 -10.62499,11.25673 -20.79599,22.97235 -30.29468,35.19762 -4.08382,5.01741 -2.98612,11.92028 -2.91249,17.89503 1.64553,27.25093 4.97013,54.38664 5.849,81.68633 -0.0289,4.66171 1.3992,9.20884 4.09175,13.01504 7.57979,11.19572 13.65212,23.3086 19.00955,35.69878 3.19097,7.64824 6.97473,15.14876 9.32444,23.08569 -0.0545,4.7152 -3.00292,8.87524 -5.52574,12.68666 -3.40395,5.17918 -8.44307,8.84304 -13.46395,12.30376 -3.42886,2.32756 -3.30948,7.17542 -2.20073,10.70466 0.70783,1.5705 2.54768,1.11809 3.53484,0.12084 10.04784,-7.599 18.77884,-16.77155 27.61761,-25.70745 12.26718,-12.64713 22.90028,-26.74256 34.82191,-39.70109 22.02827,-24.39228 44.27456,-48.59903 66.7218,-72.60509 20.84963,-21.99178 42.18529,-43.51505 63.55635,-64.99852 2.57554,-3.02207 5.97985,-5.64514 7.52544,-9.37883 -0.006,-2.16609 -2.88156,-2.62156 -4.4567,-3.29247 -13.32357,-3.67046 -27.00132,-5.88468 -40.52053,-8.7097 -39.23026,-7.59547 -78.45766,-15.25189 -117.86863,-21.85609 -4.71903,-0.69858 -9.44954,-1.61643 -14.23536,-1.63312 z"
         style="opacity:1;vector-effect:none;fill:url(#radialGradient1171);fill-opacity:1;stroke:none;stroke-width:2.13543296;stroke-linecap:round;stroke-linejoin:miter;stroke-miterlimit:4;stroke-dasharray:none;stroke-dashoffset:0;stroke-opacity:0" />
      <path
         inkscape:connector-curvature="0"
         id="path289"
         d="m 10.355911,294.52706 c -4.2195705,-2.09788 -6.2661489,-5.46375 -5.8026715,-9.54328 0.3759049,-3.30886 0.98908,-4.88627 2.8743037,-7.39417 1.9466173,-2.58955 7.0221038,-6.24203 13.0864248,-9.41737 3.771942,-1.97502 12.498683,-9.31988 14.805587,-12.46111 2.55836,-3.48362 5.789171,-11.69573 5.789171,-14.715 0,-0.74821 -0.279861,-0.73013 -5.780653,0.37332 -3.582884,0.71871 -4.701791,0.78672 -4.701791,0.2858 0,-0.37259 3.473277,-1.16529 6.450742,-1.47223 4.25186,-0.43832 4.344887,-0.49072 4.822033,-2.71558 0.239753,-1.11787 0.342214,-2.1262 0.2277,-2.24071 -0.114589,-0.11444 -1.977901,0.0226 -4.140867,0.30459 -4.170428,0.54378 -6.351678,0.48187 -6.351678,-0.1803 0,-0.22174 0.90713,-0.44467 2.015858,-0.49538 1.108713,-0.0507 3.599966,-0.30333 5.536083,-0.56135 l 3.520241,-0.46915 0.213696,-1.45449 c 0.117485,-0.79998 0.438397,-2.27093 0.713045,-3.26877 1.116698,-4.05712 0.293925,-10.02765 -2.053633,-14.90239 -0.781097,-1.62195 -3.788779,-4.06042 -6.828323,-5.53601 -1.168323,-0.56719 -2.222241,-1.18981 -2.342026,-1.38362 -0.11977,-0.19381 -0.636992,-0.35238 -1.149383,-0.35238 -0.512392,0 -2.030092,-0.35092 -3.372676,-0.77982 -1.342586,-0.4289 -3.951551,-0.99729 -5.797705,-1.26309 -3.554312,-0.51172 -6.412525,-1.69607 -7.865448,-3.25919 -2.175536,-2.34052 -2.417804,-6.45119 -0.614241,-10.42155 0.654745,-1.44133 1.949635,-4.79774 2.877534,-7.45866 0.9279,-2.66093 2.015356,-5.3971 2.416572,-6.08038 0.401214,-0.68329 0.95746,-1.95328 1.236086,-2.82221 0.278641,-0.86891 1.094908,-2.84983 1.81394,-4.40205 1.545342,-3.33602 7.46082,-21.40764 7.467723,-22.8137 0.0031,-0.53536 0.272622,-1.97121 0.599979,-3.1908 0.859526,-3.2023 0.79862,-3.44352 -1.108729,-4.39024 -0.942406,-0.4678 -2.167034,-1.18297 -2.721391,-1.58931 -0.554371,-0.40632 -2.308549,-1.60515 -3.898171,-2.66405 -4.743878,-3.16004 -7.319244,-7.09066 -6.821329,-10.41099 0.247358,-1.6495 0.841958,-2.44545 6.121419,-8.19433 6.146973,-6.69351 8.765843,-10.22763 10.474398,-14.13504 0.567583,-1.29803 1.427933,-3.254431 1.911906,-4.347541 0.843847,-1.905963 0.874536,-2.418612 0.748167,-12.498286 -0.07253,-5.780958 -0.268858,-15.40933 -0.4364,-21.396426 C 33.679281,42.934829 34.745374,29.984905 37.876026,21.267381 39.270602,17.384112 42.100807,11.75875 43.784478,9.5236475 45.429598,7.3397601 49.916884,3.999922 52.367817,3.1351837 53.170293,2.8520473 54.93922,2.4912889 56.29878,2.3335 c 2.373265,-0.2754412 2.589506,-0.2219712 5.417731,1.3397813 2.346979,1.2960179 3.83853,2.5939558 7.337437,6.3850197 2.415398,2.617103 4.736,5.431933 5.156887,6.255178 0.420888,0.82326 1.545372,2.456098 2.498856,3.628536 0.953485,1.172439 2.080925,2.721345 2.505438,3.442024 0.424515,0.720664 0.916396,1.310296 1.09308,1.310296 0.268432,0 2.066737,2.556973 3.733876,5.309145 0.22412,0.369962 0.92153,1.458531 1.549791,2.419024 0.628276,0.960493 1.960255,3.151894 2.959941,4.869774 0.999701,1.717895 2.299939,3.455509 2.889404,3.861372 2.118852,1.458896 6.757847,3.601184 8.876519,4.099175 2.52609,0.593747 4.16109,1.902549 6.35558,5.087601 l 1.56332,2.268976 0.13104,5.495459 c 0.13075,5.483268 0.12785,5.503718 -1.3166,9.225877 -1.83374,4.725241 -2.19117,7.764465 -1.25332,10.657375 0.38197,1.178213 1.02378,2.505042 1.42625,2.948542 0.40247,0.443486 1.20819,1.804188 1.79048,3.023773 1.99594,4.180363 4.76023,7.847147 7.62468,10.113974 3.6703,2.904567 4.75254,3.589177 5.67788,3.591706 0.42669,0.0012 2.06685,-1.22251 3.64478,-2.719272 1.57795,-1.496778 3.31293,-3.084267 3.85552,-3.527752 6.59193,-5.387849 10.93586,-9.133703 12.50674,-10.784811 1.59053,-1.671785 2.11289,-1.794192 3.88475,-0.910299 0.66316,0.330862 3.63929,0.881408 6.61343,1.223409 2.97414,0.342016 5.67965,0.698111 6.01228,0.791321 0.33265,0.09325 2.32837,0.271861 4.43486,0.39701 2.10665,0.125103 5.19081,0.404903 6.85388,0.621693 1.66307,0.21679 7.37805,0.854148 12.69991,1.416337 5.32185,0.562188 11.34679,1.287561 13.38867,1.611946 2.04204,0.324371 6.66828,0.706112 10.2809,0.848297 3.6126,0.14217 6.74964,0.399508 6.97135,0.571819 0.2688,0.208851 0.2688,11.592848 0,34.151974 l -0.40304,33.83869 -3.02382,2.75715 c -4.46517,4.0715 -19.05276,18.81034 -22.95611,23.19427 -1.86422,2.09374 -4.4312,4.89536 -5.70449,6.22582 -1.27328,1.33047 -2.97581,3.2196 -3.78342,4.19811 -0.80746,0.9785 -2.52159,2.88348 -3.80904,4.2333 -1.28745,1.3498 -3.39607,3.72418 -4.68567,5.27638 -3.22388,3.87999 -7.01204,7.90814 -10.76759,11.4495 l -3.16324,2.98293 -1.89591,-0.87628 c -1.04273,-0.48196 -3.1637,-1.2342 -4.71341,-1.67164 -2.66968,-0.75363 -2.98693,-0.76254 -6.04748,-0.1698 -4.23148,0.81947 -13.62844,2.96061 -15.93005,3.6297 -3.70679,1.07759 -7.59269,1.74041 -12.36206,2.10859 -5.18525,0.40031 -6.514,0.87603 -9.14369,3.27368 -1.06624,0.97216 -2.68448,3.60746 -2.68448,4.37169 0,0.18451 2.04106,0.65666 4.53568,1.04922 4.6562,0.73272 5.82095,1.19612 4.73388,1.8834 -0.84772,0.53594 -1.70636,0.48302 -3.05926,-0.18857 -0.64387,-0.31964 -2.53781,-0.70398 -4.20876,-0.85412 -3.01056,-0.27051 -3.04253,-0.26325 -3.52775,0.80168 -0.83276,1.82775 -0.63493,2.03189 2.63494,2.71912 4.47818,0.94117 5.55279,1.40796 4.94032,2.14595 -0.35243,0.42465 -0.69363,0.48026 -1.21962,0.19876 -0.40164,-0.21496 -2.19188,-0.73116 -3.97832,-1.14714 l -3.24803,-0.75631 -0.55499,0.85323 c -0.638707,0.98193 -2.583721,6.62993 -3.903708,11.33568 -0.719992,2.56679 -0.861019,3.865 -0.69066,6.35797 l 0.214063,3.13262 2.477065,2.38648 c 2.68095,2.58289 3.22618,2.82559 8.68528,3.86602 4.7607,0.90733 12.41169,0.64365 15.11889,-0.52104 0.99785,-0.42932 2.35855,-0.8921 3.02378,-1.02842 0.66524,-0.13637 2.92046,-0.61893 5.01163,-1.07247 3.38422,-0.734 4.20398,-0.77457 7.45865,-0.36922 2.12483,0.26463 4.50099,0.84998 5.67247,1.39732 2.94596,1.37649 5.60681,4.11371 6.61282,6.80257 1.37629,3.67847 1.44426,5.97243 0.29318,9.89072 -0.91032,3.09895 -1.20731,3.60834 -3.10336,5.32181 -1.15322,1.04217 -2.75274,2.21269 -3.55456,2.60117 -2.27274,1.10127 -6.16431,1.1634 -9.92425,0.15841 -1.77394,-0.47418 -4.04177,-1.04853 -5.03963,-1.27638 -5.58409,-1.27505 -9.64658,-2.57863 -15.1189,-4.85142 -4.07411,-1.69208 -10.55087,-4.00267 -13.499747,-4.81605 -1.666637,-0.4597 -3.665246,-1.26185 -4.441345,-1.78255 -1.353572,-0.90812 -8.790209,-4.20452 -10.885609,-4.82521 -0.554357,-0.16419 -1.370775,-0.61293 -1.81426,-0.9972 -0.443501,-0.38426 -1.622766,-1.01197 -2.620623,-1.39492 -1.956293,-0.75076 -4.434867,-2.86181 -4.434867,-3.77727 0,-0.31029 0.968981,-2.04362 2.153289,-3.85184 4.190177,-6.39761 5.780561,-9.34156 7.235313,-13.39322 1.138259,-3.17021 1.26635,-4.26664 1.164393,-9.96653 l -0.07055,-3.94525 -1.79791,-0.77068 c -0.988851,-0.42387 -2.440267,-0.89116 -3.225371,-1.03846 -1.397518,-0.26218 -1.799129,-0.7071 -1.053963,-1.16764 0.205423,-0.12693 1.397213,0.15223 2.648432,0.62034 2.443298,0.91416 2.832734,0.8605 2.452364,-0.3379 -0.28722,-0.90499 -2.940787,-2.31015 -5.404869,-2.8621 -2.054015,-0.46009 -2.395056,-0.71712 -1.774718,-1.33743 0.342381,-0.34238 0.947709,-0.26855 2.392144,0.29182 2.231415,0.86566 3.761167,1.15273 3.718151,0.69775 -0.110324,-1.16652 -1.650118,-3.48534 -3.124862,-4.70582 -1.69132,-1.39972 -4.909743,-2.66585 -6.776436,-2.66585 -0.503295,0 -1.945415,-0.26837 -3.204724,-0.59638 -1.25931,-0.32801 -3.779545,-0.63803 -5.600525,-0.68895 -3.203428,-0.0896 -3.365773,-0.0491 -5.002344,1.2471 -2.394613,1.89656 -3.448149,4.09387 -3.404935,7.10146 0.04389,3.05527 1.268011,8.66043 1.891335,8.66043 0.258267,0 2.883476,-0.54428 5.833787,-1.20952 2.95031,-0.66522 6.03182,-1.20374 6.847796,-1.19669 1.391941,0.0122 1.435247,0.0494 0.701007,0.60476 -0.430441,0.32556 -1.337572,0.59797 -2.015858,0.60535 -1.795137,0.0195 -10.744994,1.8784 -11.190947,2.32436 -0.614242,0.61424 0.06476,3.30846 0.830438,3.2949 0.363363,-0.006 2.565658,-0.57107 4.893971,-1.25475 4.978907,-1.462 6.853892,-1.80044 6.853892,-1.23714 0,0.22374 -1.406052,0.70915 -3.124572,1.07867 -1.718505,0.3695 -3.668841,0.83108 -4.334084,1.02571 -0.665228,0.19462 -2.004263,0.55886 -2.97562,0.80944 l -1.766109,0.45555 0.240272,2.02882 c 0.132113,1.11586 0.407797,2.2364 0.61252,2.49012 0.204722,0.25369 0.603834,1.54983 0.886894,2.88028 0.28306,1.33048 0.680983,2.63697 0.884258,2.90332 0.449839,0.58942 1.961017,6.21347 2.21255,8.23424 0.150398,1.20843 -0.09813,1.87157 -1.435262,3.83014 -0.889424,1.30275 -2.715692,3.63863 -4.058354,5.19085 -1.342661,1.55221 -3.299868,4.00147 -4.349321,5.4428 -1.049468,1.44134 -2.843569,3.70917 -3.986887,5.03964 -1.143334,1.33046 -2.537439,3.15484 -3.098027,4.05418 -1.607085,2.57822 -7.942064,8.76377 -10.380928,10.13605 -1.2196,0.68623 -3.215284,1.66423 -4.434884,2.17332 -1.219584,0.50909 -2.852422,1.31523 -3.628536,1.79142 -0.776099,0.47618 -2.771797,1.27546 -4.434867,1.77616 -1.663085,0.50071 -3.253515,1.09885 -3.53429,1.32922 -0.280774,0.23038 -2.004338,0.45283 -3.830119,0.49433 -3.038386,0.069 -3.551112,-0.0396 -6.05207,-1.28303 z m 13.292564,-1.93472 c 2.396457,-0.781 4.862887,-1.78928 5.480968,-2.24061 0.618066,-0.45135 1.888058,-1.08967 2.82219,-1.41851 4.868022,-1.7136 9.16593,-5.38115 14.36393,-12.25721 5.016378,-6.63579 7.183016,-9.3893 9.705993,-12.33503 1.347507,-1.57329 3.260464,-3.97433 4.251022,-5.33566 2.411177,-3.31366 2.391047,-4.40289 -0.236066,-12.76869 -0.626722,-1.99569 -1.449571,-4.80781 -1.828584,-6.24914 -0.379014,-1.44134 -0.826614,-2.77603 -0.994704,-2.966 -0.168074,-0.18996 -3.298603,0.39967 -6.956717,1.3103 -3.658113,0.91064 -6.920893,1.6557 -7.250596,1.6557 -0.367235,0 -0.675544,0.50758 -0.795878,1.31029 -0.558106,3.72303 -1.262053,6.32502 -2.140719,7.91262 -0.537046,0.97033 -0.976447,2.08205 -0.976447,2.47044 0,0.38841 -0.270992,0.9311 -0.602189,1.20598 -0.331212,0.27488 -1.158327,1.47181 -1.838062,2.65983 -0.788914,1.37889 -2.787585,3.56319 -5.526651,6.03993 -6.074425,5.49271 -7.198391,6.36415 -10.377363,8.04586 -1.552198,0.82115 -3.59326,1.92184 -4.535666,2.44603 -0.942421,0.52417 -1.713477,0.89155 -1.713477,0.81641 0,-0.23476 -2.842882,2.2711 -5.2044597,4.58747 -1.7579258,1.72426 -2.4214013,2.73272 -2.9831787,4.53433 -1.456123,4.66965 0.037333,9.11446 3.7153774,11.05714 1.491201,0.78765 2.37878,0.93854 5.520479,0.93854 3.189348,0 4.388682,-0.21025 8.100798,-1.42002 z M 143.60788,280.57805 c 2.87966,-1.61424 3.67036,-2.72637 4.52963,-6.37117 0.78978,-3.35095 0.77424,-5.79322 -0.0518,-8.24385 -0.94063,-2.78756 -2.25994,-4.364 -4.89808,-5.85292 -2.25278,-1.27132 -2.34147,-1.286 -7.93019,-1.31096 -4.97762,-0.0223 -6.13302,0.10757 -9.6837,1.08846 -2.21742,0.61255 -4.73425,1.38227 -5.59296,1.71048 -1.94651,0.74402 -12.67114,0.46853 -16.5088,-0.42406 -1.3704,-0.31875 -2.9729,-0.67947 -3.561129,-0.80161 -1.382283,-0.28702 -4.477659,-3.30132 -5.551355,-5.40593 -1.447148,-2.83666 -0.977286,-9.66021 0.959533,-13.93472 0.310489,-0.68523 1.153802,-3.02957 1.874039,-5.20965 1.483826,-4.49142 1.498209,-4.45252 -1.807951,-4.88322 -1.135761,-0.14795 -3.455952,-0.62179 -5.155973,-1.05302 -1.700023,-0.43119 -3.151437,-0.7839 -3.225357,-0.78376 -0.0739,1.6e-4 -0.144759,2.40406 -0.157499,5.34202 -0.02072,4.79658 -0.131655,5.6143 -1.0861,8.01224 -1.167318,2.93253 -3.304333,7.06429 -4.145438,8.01485 -0.294945,0.33334 -0.958999,1.51261 -1.475673,2.62061 -0.516688,1.10799 -1.526919,2.86364 -2.244992,3.90146 -1.985733,2.86992 -1.75663,3.78745 1.181993,4.73348 0.813798,0.26199 1.690102,0.72992 1.947318,1.03985 0.257216,0.30993 1.133506,0.77023 1.947303,1.02289 1.872455,0.58134 5.159737,2.0687 10.083636,4.56245 2.125039,1.07625 5.049871,2.2865 6.499609,2.68945 3.774156,1.049 9.128686,2.94646 11.707256,4.1486 2.76906,1.29097 14.29582,4.90086 17.53792,5.49243 1.33047,0.24276 3.23544,0.71031 4.2333,1.03899 1.20593,0.39722 2.8596,0.54317 4.93185,0.43531 2.64586,-0.13776 3.49994,-0.37666 5.64438,-1.5787 z M 46.070612,238.40222 c 0.929744,-0.20665 2.81771,-0.59289 4.195495,-0.85829 1.377785,-0.26541 3.464196,-0.79845 4.636466,-1.18453 l 2.131392,-0.70197 -0.137598,-1.76589 c -0.07573,-0.97124 -0.1774,-1.80712 -0.22601,-1.85752 -0.07131,-0.0739 -6.442833,1.13824 -11.529884,2.19344 -1.398204,0.29003 -2.015843,1.21379 -2.015843,3.01488 0,1.70973 0.170452,1.77683 2.946028,1.15988 z m 3.826524,-6.02906 c 3.170544,-0.63797 5.878541,-1.27385 6.01777,-1.41309 0.139275,-0.13927 0.02225,-1.56678 -0.260173,-3.17232 -0.893827,-5.08286 -0.94713,-6.02958 -0.461649,-8.19895 0.584589,-2.61222 2.219087,-4.93223 4.656138,-6.60899 1.766901,-1.21565 1.979181,-1.26271 4.5586,-1.01032 1.487986,0.14553 3.793974,0.50864 5.12443,0.80679 1.330471,0.29815 3.152762,0.62399 4.049546,0.72411 0.896783,0.10011 2.427634,0.56714 3.401887,1.03786 0.974254,0.47069 2.054792,0.8565 2.401196,0.85733 0.967365,0.003 3.250422,1.5282 3.250422,2.17243 0,0.31519 0.537564,1.77121 1.194578,3.23559 0.890277,1.98423 1.480824,2.77282 2.318226,3.09556 1.087638,0.41919 9.883607,2.06799 13.271639,2.48774 l 1.665544,0.20636 0.95225,-2.07185 c 0.52373,-1.13952 1.89515,-3.00583 3.0476,-4.14737 2.78324,-2.75686 6.46737,-4.00269 12.82759,-4.33775 4.22782,-0.22274 7.68114,-0.84452 9.87769,-1.77855 0.55437,-0.23573 2.69227,-0.72169 4.75091,-1.07992 2.05863,-0.35825 4.48535,-0.91328 5.3927,-1.23339 0.90735,-0.32014 2.26192,-0.58206 3.0101,-0.58206 2.13606,0 1.60319,-0.52446 -1.56632,-1.54139 -1.60558,-0.51513 -3.75055,-1.25752 -4.7666,-1.64973 -1.01606,-0.39222 -2.53294,-0.82438 -3.37084,-0.96034 -0.83791,-0.13592 -2.72799,-0.69535 -4.20018,-1.24305 -1.4722,-0.5477 -6.21454,-2.11275 -10.53855,-3.47786 -4.32401,-1.36515 -9.0411,-2.90492 -10.48244,-3.42175 -1.44133,-0.51682 -5.70486,-1.86744 -9.474501,-3.00135 -8.728358,-2.62552 -10.575913,-3.27223 -12.36689,-4.32895 l -1.455696,-0.85888 -0.260615,-5.5828 c -0.143389,-3.07055 -0.429709,-6.67137 -0.636397,-8.00182 -0.206688,-1.33048 -0.405132,-3.79729 -0.440971,-5.48183 -0.03581,-1.68453 -0.178086,-3.75739 -0.316081,-4.60636 -0.250908,-1.54355 -0.250908,-1.54355 -0.788762,1.04695 -0.810095,3.90173 -0.763528,3.81916 -1.684098,2.98606 -1.035419,-0.93705 -1.019663,-2.64712 0.03276,-3.54817 0.572978,-0.4906 0.791825,-1.08887 0.705547,-1.92871 -0.113218,-1.10121 -0.375356,-1.30724 -2.745695,-2.15728 -10.817282,-3.87926 -15.602713,-5.92712 -17.873976,-7.64892 -0.702149,-0.53228 -2.857877,-1.78596 -4.790536,-2.78595 -1.932644,-0.99998 -4.144234,-2.29895 -4.91465,-2.88657 -1.73897,-1.32639 -6.167833,-3.61584 -7.736123,-3.99914 -0.644413,-0.15748 -2.51548,-0.9202 -4.157933,-1.69491 -1.642437,-0.77472 -3.478092,-1.50695 -4.079199,-1.62717 -0.950619,-0.19012 -1.152369,-0.0481 -1.549409,1.09084 -0.251045,0.72017 -0.456453,1.77641 -0.456453,2.34718 0,1.15887 -3.269836,11.37247 -5.631138,17.58934 -0.16844,0.44348 -0.621769,1.80419 -1.007396,3.02377 -0.385627,1.2196 -1.036806,2.96824 -1.447071,3.88588 -0.410267,0.91764 -1.570957,3.5041 -2.579313,5.7477 -1.008356,2.24361 -1.833384,4.3144 -1.833384,4.60174 0,0.28737 -1.088553,3.40637 -2.419024,6.93115 -2.560219,6.78274 -2.888003,8.78116 -1.848393,11.26927 0.31384,0.75114 0.920036,1.55271 1.347095,1.78125 1.713995,0.9173 4.428985,1.65427 6.145692,1.6682 0.997843,0.008 2.545942,0.34707 3.440196,0.7533 0.894269,0.40621 2.515983,0.87205 3.603805,1.03518 2.234264,0.33505 7.783864,3.08622 9.844781,4.88048 3.38412,2.94627 3.957249,3.75502 5.316063,7.50141 1.146229,3.16031 1.36148,4.28773 1.335073,6.99309 -0.01722,1.77396 -0.331639,4.30669 -0.698508,5.6283 -0.595773,2.14624 -0.846635,3.84949 -0.566227,3.84439 0.05546,-9.8e-4 2.694877,-0.5238 5.865422,-1.16176 z m 50.06833,-3.77524 c 0.0049,-0.92799 -0.165421,-1.10873 -1.046421,-1.10873 -1.249785,0 -12.293503,-1.9971 -12.814794,-2.31739 -0.205544,-0.12632 -0.235212,0.28001 -0.06887,0.94291 0.160791,0.64065 0.484765,1.28373 0.719932,1.42909 0.612383,0.37846 6.471633,1.85313 9.789346,2.46378 3.079949,0.56689 3.410525,0.43068 3.420762,-1.40966 z m 54.031044,-16.63081 c 0,-0.84485 -0.19032,-1.00791 -1.17652,-1.00791 -2.36005,0 -3.24508,0.9167 -1.54483,1.60011 1.76989,0.71144 2.72135,0.50439 2.72135,-0.5922 z m 6.8778,-2.92299 c 2.26726,-2.16199 5.44436,-5.57416 7.06004,-7.58259 1.61569,-2.00841 5.52041,-6.45337 8.6771,-9.87767 3.15685,-3.4243 7.38797,-8.03801 9.40273,-10.25272 4.5022,-4.94927 15.7984,-16.60877 20.29375,-20.94643 1.82931,-1.76523 3.32614,-3.49893 3.32614,-3.85267 0,-0.50863 -1.37066,-0.91744 -6.55156,-1.95409 -21.11965,-4.22585 -38.04992,-7.31498 -40.10445,-7.31758 -1.66535,-0.002 -1.79198,0.099 -5.81114,4.63792 -2.25979,2.55201 -4.55767,5.30063 -5.10639,6.10802 -1.12563,1.6567 -1.12441,1.84857 0.10514,15.65959 0.33569,3.76965 0.61272,8.09949 0.61577,9.62188 0,2.59433 0.11733,2.93578 1.78162,5.44281 0.97706,1.47115 2.31434,3.8541 2.9717,5.29544 1.90413,4.17419 3.62282,8.19742 3.87547,9.07133 0.38324,1.3262 -1.9561,4.9401 -4.00072,6.1803 -1.50536,0.91314 -1.77705,1.2759 -1.78788,2.38709 -0.0152,0.86779 0.18028,1.31029 0.55847,1.31029 0.31422,0 2.4265,-1.76891 4.69391,-3.93092 z m -10.5154,0.47915 c 1.65804,-0.34591 3.06617,-0.68044 3.12911,-0.74338 0.10971,-0.10987 -0.2304,-5.04599 -1.10962,-16.09242 -0.42377,-5.32551 -0.69074,-6.25206 -3.62315,-12.57083 -0.61743,-1.33046 -1.61217,-3.58669 -2.21056,-5.01382 -0.5984,-1.42715 -1.50521,-3.15069 -2.01491,-3.83012 -0.50972,-0.67944 -1.4953,-2.37233 -2.19,-3.762 -0.69485,-1.38967 -2.17842,-3.83892 -3.29682,-5.44281 -1.11847,-1.60387 -2.6512,-3.82325 -3.4061,-4.93199 -2.26836,-3.33159 -2.52412,-3.59079 -3.09658,-3.13816 -0.28411,0.22464 -2.6516,2.05114 -5.2611,4.0589 l -4.74452,3.65046 1.22226,0.87032 c 0.67224,0.47869 1.86142,1.70742 2.64264,2.73055 l 1.42038,1.86024 -0.25715,3.45043 c -0.50792,6.81532 -3.78842,10.96216 -9.91954,12.53924 -3.44015,0.88489 -5.37038,0.476 -9.70373,-2.05558 -1.61054,-0.94088 -3.42717,-1.96906 -4.03696,-2.28485 -0.6098,-0.31579 -1.10872,-0.74228 -1.10872,-0.94779 0,-0.2055 -0.18692,-0.37364 -0.41538,-0.37364 -0.22847,0 -4.330735,3.0196 -9.116152,6.71022 l -8.700777,6.7102 1.355111,0.58292 c 2.036186,0.87592 12.006178,4.13935 12.645957,4.13935 0.306861,0 3.788321,1.06345 7.736591,2.36323 3.94826,1.29977 9.26507,3.01939 11.81513,3.82136 2.55005,0.80197 6.36003,2.0035 8.46658,2.67005 2.10657,0.66657 5.0094,1.56186 6.45075,1.98954 1.44132,0.42768 3.61844,1.13726 4.83805,1.57683 6.26023,2.25639 7.81526,2.43862 12.48921,1.46355 z m 7.17874,-2.0155 c 1.20136,-0.84149 2.1033,-2.6669 2.1033,-4.25711 0,-1.61951 -4.75728,-12.04683 -5.49617,-12.04683 -0.39071,0 -0.48609,0.46444 -0.35185,1.71347 0.1021,0.94241 0.3779,4.16273 0.61455,7.15629 0.59245,7.49063 0.7014,8.0634 1.5334,8.0634 0.38414,0 1.10261,-0.28315 1.59677,-0.62922 z m -64.621685,-24.23891 8.217625,-6.32229 -3.474448,-3.65618 c -3.561947,-3.74825 -4.652435,-4.38451 -9.984208,-5.82544 -0.665228,-0.17978 -1.579185,-0.44559 -2.031035,-0.5907 -0.888709,-0.28541 -0.924853,0.17428 -0.573588,7.29273 0.06826,1.3843 0.0076,2.63409 -0.136227,2.77731 -0.576329,0.57632 -1.164271,-2.30928 -1.316864,-6.46306 -0.08883,-2.41681 -0.255327,-4.48809 -0.370099,-4.60287 -0.505442,-0.50545 -0.37918,10.98863 0.190611,17.35201 0.439844,4.91204 0.681853,6.36077 1.062559,6.36077 0.10895,0 3.895931,-2.84503 8.415644,-6.32228 z m 26.145495,-2.09883 c 4.56739,-1.2665 6.55103,-4.04424 7.16725,-10.03652 0.36935,-3.59166 0.22816,-4.12403 -1.66365,-6.27256 -1.64559,-1.86892 -3.50496,-2.61288 -10.25873,-4.10475 -1.54004,-0.34019 -3.53573,-0.96178 -4.43488,-1.38133 -0.89914,-0.41953 -1.92962,-0.85375 -2.28996,-0.96492 -0.36078,-0.11124 -0.65515,-0.6265 -0.65515,-1.14655 0,-0.91664 0.0855,-0.94011 2.90503,-0.79773 4.09929,0.20701 6.86667,-0.97727 7.9368,-3.39649 0.41421,-0.93638 0.85941,-3.03514 0.98933,-4.66389 0.2258,-2.83095 0.18578,-3.02004 -0.90904,-4.29456 -0.96731,-1.12606 -1.48975,-1.36745 -3.36268,-1.55361 -2.08879,-0.20762 -2.32269,-0.13639 -4.0317,1.2285 -0.99784,0.79691 -1.97857,1.45068 -2.17937,1.45283 -0.20083,0.002 -0.9941,0.48367 -1.76284,1.07001 -2.2467,1.71364 -7.548605,3.77279 -9.696728,3.76601 -2.315878,-0.008 -3.947009,-0.7752 -3.770188,-1.77491 0.159206,-0.9001 -1.425251,-2.65401 -2.3976,-2.65401 -0.418555,0 -0.964303,0.54556 -1.310722,1.31029 -2.150714,4.74758 -2.640401,6.07027 -3.247161,8.77084 -0.373437,1.66205 -0.849821,3.67795 -1.058642,4.47977 -0.20882,0.80184 -0.379668,2.26255 -0.379668,3.24604 v 1.78816 l 3.136671,1.08804 c 1.725179,0.59845 3.796245,1.08807 4.602378,1.08807 1.304597,0 1.724219,0.29612 3.818005,2.69439 4.273315,4.89474 3.923205,4.59104 9.810985,8.5107 5.20011,3.46185 7.86769,3.98304 13.04226,2.54818 z m 32.72158,-0.9526 c -0.10057,-0.94242 -0.37484,-4.07204 -0.61058,-6.95471 -1.07001,-13.08425 -1.43847,-14.78931 -3.33422,-15.42737 -0.71527,-0.24069 -3.70207,-1.26761 -6.63735,-2.28202 -5.61773,-1.9414 -6.1534,-2.06978 -6.1534,-1.47476 0,0.20328 1.55956,2.60719 3.46568,5.342 1.90617,2.73482 4.06371,6.15169 4.79468,7.59301 0.73096,1.44135 1.97148,3.57322 2.75639,4.73752 0.78505,1.1643 1.53583,2.52501 1.6684,3.0238 0.48441,1.82244 3.25407,7.10959 3.73635,7.13246 0.34575,0.0165 0.44099,-0.49625 0.31405,-1.68993 z M 83.038468,164.01944 c 0,-0.43878 1.592594,-8.18876 1.829148,-8.90109 0.588566,-1.77237 2.348274,-6.16635 3.273035,-8.17277 1.061369,-2.30282 0.979922,-2.91302 -0.38872,-2.91219 -1.440809,8.1e-4 -3.018348,4.06926 -5.511124,14.21295 -0.695003,2.82818 -1.152004,5.3228 -1.015533,5.54359 0.237925,0.38499 1.813194,0.58438 1.813194,0.22951 z m -2.72968,-3.1542 c 0.353612,-1.16417 0.94428,-3.38664 1.312597,-4.93885 0.938992,-3.95729 2.425423,-8.56621 3.406931,-10.56376 0.457793,-0.9317 0.832357,-1.86708 0.832357,-2.07865 0,-0.51031 -3.548278,-2.84416 -4.802879,-3.15903 -0.54401,-0.13654 -1.622979,-0.67841 -2.397722,-1.20417 -0.774743,-0.52575 -1.875456,-1.05678 -2.446026,-1.18006 -1.712593,-0.37003 -3.414123,-1.06175 -4.14876,-1.68663 -0.380781,-0.32388 -2.557902,-1.5336 -4.838047,-2.68826 -3.925449,-1.98782 -10.702069,-5.75735 -14.213928,-7.90657 -4.392567,-2.68821 -11.66634,-11.8241 -8.423202,-10.57959 0.319204,0.12251 0.82547,0.79033 1.125048,1.4841 1.385495,3.20859 7.854827,8.64293 13.400068,11.25626 1.072751,0.50555 2.715555,1.41022 3.650677,2.01039 0.935123,0.60014 2.749384,1.61562 4.031702,2.25658 1.28232,0.64096 3.238613,1.63429 4.347341,2.20739 3.2087,1.65859 7.154171,3.48774 7.523051,3.48774 0.18633,0 0.33877,-0.28949 0.33877,-0.64332 0,-1.0897 1.511392,-2.84156 4.139221,-4.79779 3.260524,-2.42724 5.6079,-4.35906 8.35454,-6.87552 1.222084,-1.11968 3.219825,-2.84053 4.439409,-3.82412 1.219599,-0.9836 5.483114,-4.59598 9.474514,-8.02754 14.72342,-12.65825 15.52208,-13.37992 15.52208,-14.02592 0,-0.196995 -1.22465,-1.342615 -2.72142,-2.545819 -3.08464,-2.479625 -6.95469,-6.312609 -6.95469,-6.888101 0,-0.211075 -0.77107,-1.401708 -1.71347,-2.645825 -1.75515,-2.317082 -2.69548,-3.895139 -4.63747,-7.78263 -1.56575,-3.134324 -1.50054,-6.421545 0.21289,-10.73425 1.83261,-4.612603 2.2007,-6.690115 1.91983,-10.83537 -0.33408,-4.930786 -0.82103,-6.558047 -2.56239,-8.563025 -1.27632,-1.469563 -1.94269,-1.840242 -4.7543,-2.644607 C 93.5893,44.99276 89.02052,41.401358 86.676101,36.490457 c -1.23499,-2.586962 -4.383454,-7.361239 -4.854474,-7.361239 -0.228691,0 -0.571058,-0.408209 -0.760816,-0.90713 -0.463782,-1.219387 -3.510839,-5.81762 -4.984393,-7.521787 C 75.423258,19.944925 74.112611,18.13065 73.163852,16.668599 70.355376,12.340672 65.172858,6.966598 62.126502,5.2233158 59.48979,3.7144543 59.40944,3.6968392 56.289226,3.9441358 52.588691,4.2374206 50.596298,5.006617 47.458028,7.3535656 45.025518,9.1727023 44.44099,9.9048705 42.626394,13.40556 c -2.675448,5.161398 -4.77027,11.29234 -5.545241,16.229284 -0.2174,1.384976 -0.590669,3.425292 -0.829477,4.534005 -0.670455,3.112778 -1.051693,19.414029 -0.726028,31.044149 0.161431,5.765338 0.349757,15.290245 0.41848,21.166455 0.140189,11.985346 0.471554,10.231214 -3.427305,18.142677 -2.244625,4.55475 -5.51126,8.80249 -12.77615,16.61345 -2.55772,2.74998 -2.755524,3.13745 -2.793847,5.47311 -0.03932,2.3933 0.752861,4.03696 2.893534,6.00382 2.155072,1.98012 8.657943,6.35617 10.734905,7.22398 0.798118,0.33348 1.81644,0.93596 2.262958,1.33886 1.41114,1.2733 4.423621,2.83127 7.493367,3.87537 1.632198,0.55514 3.608681,1.43249 4.392201,1.94965 2.999453,1.97981 5.494667,3.40847 6.462917,3.70039 1.363217,0.411 5.096133,2.45234 6.645375,3.63401 0.694165,0.52947 2.159279,1.35209 3.255786,1.82805 1.096507,0.47596 3.121722,1.37998 4.500452,2.00891 1.378745,0.62893 3.283717,1.34565 4.2333,1.59269 2.519762,0.65552 4.266488,1.28861 6.33955,2.29771 2.89521,1.40932 3.400241,1.26358 4.147617,-1.19689 z M 92.177016,97.802626 c -0.519248,-0.519249 -0.260325,-0.94073 0.577868,-0.94073 0.465673,0 1.488123,-0.641472 2.272131,-1.42548 1.384368,-1.384367 1.419186,-1.494812 1.207424,-3.830119 -0.119923,-1.322562 -0.14918,-2.404655 -0.06507,-2.404655 0.396766,0 1.383058,2.503854 1.381702,3.507729 -0.0031,2.56956 -4.05651,6.410834 -5.37409,5.093255 z m 0.365223,-6.538802 c -1.182815,-1.873673 -2.252824,-2.115957 -4.401923,-0.996684 -0.699452,0.364279 -1.602195,0.827482 -2.006091,1.029354 -0.962444,0.481001 -3.911322,-1.210183 -4.708968,-2.700591 -0.76298,-1.425647 -2.3848,-2.21645 -4.545633,-2.21645 -1.923119,0 -2.870783,0.721378 -4.072539,3.100099 -0.89849,1.778466 -2.148245,2.544295 -4.152006,2.544295 -1.646566,0 -1.73522,-0.06644 -2.557277,-1.91506 -0.468369,-1.053292 -0.942376,-2.459343 -1.053354,-3.124571 -0.576619,-3.456485 -0.660915,-3.510732 -3.669634,-2.361699 -1.145831,0.437603 -1.810008,0.966299 -1.958838,1.559269 -0.314297,1.252269 -2.276137,2.621612 -3.352638,2.340091 -0.873911,-0.228523 -2.526999,-2.688279 -3.065554,-4.561449 -0.382412,-1.33009 -1.77673,-2.822189 -2.637232,-2.822189 -0.377795,0 -0.963861,0.408208 -1.302372,0.907129 -0.493801,0.727781 -0.718226,0.808023 -1.13509,0.405833 -0.421405,-0.406579 -0.300127,-0.73037 0.641746,-1.713477 0.638729,-0.66669 1.326159,-1.212179 1.52762,-1.212179 1.041148,0 2.886112,1.988903 4.056159,4.372591 1.168232,2.380015 1.460694,2.69704 2.590405,2.808139 1.128248,0.110933 1.355948,-0.04998 1.996293,-1.411094 0.614501,-1.306182 1.053186,-1.642286 2.92823,-2.243559 l 2.205465,-0.707239 1.148042,1.148058 c 0.799779,0.799778 1.209923,1.686977 1.352048,2.924664 0.112151,0.977133 0.396583,2.284428 0.631948,2.905099 0.39323,1.036867 0.576695,1.118679 2.260001,1.00793 1.750292,-0.115199 1.889323,-0.218345 3.116511,-2.312542 1.545951,-2.63816 2.714716,-3.653998 4.204074,-3.653998 1.602651,0 4.49015,1.743267 6.00046,3.622654 1.592518,1.98168 3.072427,2.127705 5.847059,0.576924 l 1.863693,-1.041636 1.343834,0.83053 c 1.662552,1.027509 3.078492,3.445132 2.409532,4.114093 -0.340142,0.340142 -0.723971,0.03322 -1.503971,-1.202335 z M 46.625716,85.10146 c -1.92399,-2.522474 -2.040879,-3.394816 -0.713441,-5.324199 1.495407,-2.17348 2.291117,-2.856521 2.650428,-2.275133 0.147808,0.23913 -0.289627,1.070665 -0.972029,1.847876 -1.609646,1.833293 -1.684722,3.799918 -0.201659,5.282981 0.665259,0.665259 0.899572,1.17861 0.6513,1.426882 -0.248287,0.248271 -0.757203,-0.09646 -1.414599,-0.958407 z M 70.540181,70.185582 c -0.554356,-0.230504 -2.550054,-0.481382 -4.434882,-0.557495 -3.069426,-0.123885 -3.929532,-0.354054 -8.244492,-2.205662 -2.649651,-1.137011 -5.308338,-2.416769 -5.90821,-2.843905 -1.428938,-1.017483 -1.999416,-0.981964 -4.401541,0.274055 -2.173054,1.136278 -3.21696,1.061079 -3.21696,-0.231694 0,-0.612855 0.263388,-0.818993 1.046512,-0.818993 1.751343,0 3.296227,-1.247425 4.619414,-3.729975 1.859746,-3.489262 7.204288,-8.735337 10.460897,-10.268198 6.225768,-2.93041 14.260616,-3.845098 20.353586,-2.317037 5.41799,1.358783 10.315771,5.301039 12.438722,10.012002 0.626218,1.389609 0.637814,1.657127 0.10697,2.467329 -1.2532,1.912621 -5.756043,6.101548 -7.297926,6.789145 -0.886971,0.395532 -2.09665,0.982848 -2.688157,1.305131 -0.591506,0.322282 -1.952209,0.703841 -3.023788,0.847885 -1.071563,0.143998 -2.734404,0.596215 -3.695202,1.004775 -1.909955,0.812197 -4.535774,0.929271 -6.114927,0.272637 z M 77.147874,68.3783 c 0.911518,-0.342183 2.473729,-0.763009 3.47157,-0.935168 4.577068,-0.78966 8.183753,-3.236174 11.251868,-7.632428 0.749723,-1.074245 0.87891,-1.588221 0.59751,-2.377258 -0.619376,-1.736791 -1.583055,-2.023965 -3.29295,-0.981293 -5.036036,3.070934 -9.148148,4.237461 -15.679392,4.447926 -6.555943,0.21126 -9.183484,-0.491926 -14.105859,-3.775079 -1.808272,-1.206068 -3.531821,-2.185137 -3.830135,-2.175689 -0.650553,0.02057 -3.233827,3.2903 -4.199578,5.315484 -0.37976,0.79638 -0.581877,1.731 -0.449124,2.076947 0.322237,0.839702 7.757061,4.541777 10.663851,5.309922 1.271729,0.336057 3.622564,0.699894 5.224088,0.808525 1.601523,0.108647 3.325072,0.372492 3.830118,0.586357 1.140393,0.48292 4.319807,0.156951 6.518033,-0.668246 z m 4.076333,-10.129608 c 1.552215,-0.448148 3.366474,-1.024981 4.031702,-1.281862 1.750414,-0.675955 4.2333,-2.464571 4.2333,-3.049601 0,-0.584863 -1.930068,-2.104192 -4.2333,-3.332401 -2.946699,-1.571338 -5.709735,-2.103417 -10.92285,-2.103417 -6.642404,0 -13.240634,1.688837 -16.450264,4.210505 -0.74288,0.583643 -0.735977,0.636488 0.251167,1.924141 1.200781,1.566324 5.435422,3.828794 7.98147,4.264324 3.526731,0.603285 12.068119,0.246184 15.108775,-0.631689 z m 50.137563,95.425088 1.33044,-1.04308 -2.95487,-1.01896 c -4.39388,-1.5152 -8.56756,-2.74084 -9.33338,-2.74084 -0.51052,0 -0.68103,0.37172 -0.69358,1.51189 -0.0207,1.87672 -1.45737,4.84403 -2.82887,5.84252 -0.56719,0.4129 -1.74012,0.99444 -2.60651,1.29231 -0.86639,0.29785 -1.6329,0.71448 -1.70337,0.92587 -0.0704,0.21139 1.2839,0.70092 3.00967,1.08788 1.72577,0.38693 3.77278,0.93081 4.54888,1.20858 1.50777,0.53967 1.62301,0.46718 11.23159,-7.06617 z m 24.32265,-1.6783 c 2.61346,-2.71637 4.75424,-5.04375 4.75729,-5.17198 0,-0.27348 -2.65445,-0.92129 -8.25942,-2.01074 -2.21744,-0.43101 -4.49034,-0.88695 -5.05078,-1.01321 -0.83977,-0.1892 -1.95809,0.48965 -6.35697,3.85913 -2.93586,2.2488 -5.24743,4.23511 -5.13685,4.41401 0.11063,0.17894 2.15478,0.98246 4.54272,1.78563 2.38778,0.80318 5.24871,1.81537 6.35742,2.24931 3.71594,1.45435 3.84851,1.39474 9.14659,-4.11215 z m 56.71442,-48.65234 0.0579,-13.878872 -0.99031,0.930399 c -0.54476,0.511705 -1.47656,1.631892 -2.07069,2.489301 -0.59428,0.857394 -1.28242,1.5696 -1.52958,1.582674 -0.247,0.01372 -2.26329,2.184818 -4.48072,4.826072 -2.21742,2.641266 -4.15021,4.807676 -4.29512,4.814276 -0.76693,0.0349 -8.40479,8.99818 -8.40479,9.86333 0,0.70491 1.21004,1.43742 2.37438,1.43742 1.66306,0 6.06104,2.49579 7.72045,4.38126 0.90423,1.02734 2.09477,2.36304 2.64562,2.96822 1.7449,1.91707 3.38633,6.8714 3.38633,10.22107 0,2.23019 -0.69699,3.94667 -2.84768,7.01275 -2.02238,2.88294 -3.61444,3.63865 -7.66575,3.63865 -2.33141,0 -3.45261,-0.2549 -6.29312,-1.43073 -5.84771,-2.42068 -7.28617,-3.29505 -8.89423,-5.40634 -0.83231,-1.09271 -1.84197,-1.99711 -2.24379,-2.00974 -0.40183,-0.0122 -1.63778,-0.31967 -2.74665,-0.68235 -2.32088,-0.75912 -3.24857,-0.46802 -4.58616,1.43904 -0.44357,0.63228 -2.3919,2.93802 -4.32971,5.12382 -1.93781,2.18583 -3.52438,4.24636 -3.52546,4.57897 0,0.69311 3.45384,1.61758 9.871,2.64024 2.21743,0.35337 6.20885,1.08008 8.8697,1.6149 2.66101,0.53481 6.47095,1.23963 8.46666,1.56625 1.99572,0.32663 5.35203,0.97221 7.45868,1.43462 3.64872,0.80097 9.69879,1.8321 12.29671,2.09575 l 1.20944,0.12282 0.24503,-18.74743 c 0.13409,-10.31109 0.27077,-24.99293 0.30232,-32.62631 z m -72.61409,43.8821 5.74525,-4.44866 -0.0442,-4.91546 c -0.0244,-2.7035 -0.16,-6.00402 -0.30233,-7.33449 -0.25386,-2.37426 -0.28465,-2.42426 -1.66977,-2.70252 -2.35609,-0.4734 -7.21523,-1.44178 -11.89348,-2.37031 -6.486,-1.28732 -8.7295,-1.38138 -9.91794,-0.41578 -0.8887,0.72208 -0.96416,1.06033 -0.92475,4.14536 0.048,3.7527 0.25827,4.25894 4.57799,11.01936 1.2752,1.99569 3.18497,4.98924 4.24394,6.65231 2.15779,3.38876 3.36408,4.84266 4.0061,4.82846 0.23853,-0.005 3.01903,-2.01149 6.17888,-4.45827 z m -9.57531,2.61871 c 0,-0.13013 -0.51912,-0.99184 -1.1536,-1.91506 -3.43555,-4.99899 -7.34581,-11.28603 -8.54491,-13.73881 -2.3006,-4.70584 -1.63594,-9.47813 1.55293,-11.15022 1.20176,-0.63014 1.54898,-0.64264 3.62854,-0.13043 2.11318,0.52041 5.98698,1.24229 14.99955,2.79516 1.88477,0.32477 3.60834,0.59007 3.83006,0.5896 0.24426,-4.1e-4 0.38536,-1.55024 0.35778,-3.93174 -0.0244,-2.16197 -0.0701,-5.87751 -0.10057,-8.25675 l -0.0548,-4.32588 -1.61324,-0.82303 c -0.88731,-0.45266 -2.74694,-1.11146 -4.13253,-1.46399 -1.38558,-0.35253 -4.44325,-1.6187 -6.79483,-2.8137 -2.35156,-1.19501 -4.45601,-2.17275 -4.67657,-2.17275 -0.22056,0 -1.19938,-0.54098 -2.17516,-1.20217 -0.97577,-0.6612 -2.14244,-1.20547 -2.59258,-1.20951 -0.79134,-0.008 -2.90684,1.72891 -8.85083,7.26309 -1.55596,1.44869 -3.55472,3.17055 -4.4417,3.82636 -0.88698,0.65582 -3.16029,2.55479 -5.05183,4.21993 -1.89151,1.66515 -4.398905,3.84398 -5.571951,4.84182 -1.173049,0.99784 -3.992846,3.44711 -6.266226,5.44279 -2.27338,1.99571 -5.208803,4.43507 -6.523168,5.42082 -2.936581,2.20242 -4.607193,3.69771 -4.607193,4.12372 0,0.56548 2.691753,1.47319 6.95082,2.34396 2.275011,0.46514 4.499233,1.00632 4.942718,1.20264 0.443485,0.19632 1.985612,0.71031 3.426953,1.14219 1.441328,0.43189 4.575137,1.3753 6.964017,2.09646 l 4.34342,1.31123 2.37487,-1.46584 c 2.2799,-1.40724 2.45332,-1.44904 4.33652,-1.04518 1.60429,0.34407 2.27164,0.7806 3.66335,2.39628 1.12351,1.30431 1.70308,2.3611 1.70569,3.11026 0.005,1.09452 0.15728,1.17947 4.33409,2.39948 4.3921,1.28289 5.7412,1.54593 5.7412,1.11934 z m -29.69123,-2.41107 c 2.775,-0.70761 5.50099,-2.29541 5.50099,-3.20416 0,-0.32946 -0.0643,-0.59903 -0.14309,-0.59903 -0.28547,0 -7.777018,-1.98877 -10.02169,-2.66044 -2.602854,-0.77884 -2.889587,-0.66395 -4.127045,1.65368 l -0.785547,1.47128 2.196657,1.96773 c 2.500638,2.24002 3.35154,2.3981 7.379675,1.37094 z m 62.45056,-3.43828 c 0.38902,-0.68345 0.58087,-1.44731 0.42621,-1.69747 -0.15452,-0.25015 -0.23071,-2.95549 -0.1693,-6.01186 l 0.11123,-5.55705 h -1.84836 -1.84821 v 5.03963 c 0,4.98962 -0.28738,5.95647 -1.24067,4.17511 -0.35246,-0.6584 -0.34164,-1.23141 0.0458,-2.40333 0.45242,-1.3707 0.31101,-7.02392 -0.18804,-7.52304 -0.21531,-0.21525 -11.51837,-1.04083 -11.67486,-0.85273 -0.0701,0.0842 0.0457,2.87467 0.25767,6.20082 0.4067,6.38949 0.75443,7.43731 2.48165,7.47909 0.46446,0.0106 2.74955,0.53816 5.07791,1.17092 2.32835,0.63275 5.04969,1.1667 6.04748,1.18652 1.62177,0.0322 1.88935,-0.0959 2.52158,-1.20661 z m -72.078827,-2.36075 c 0.84723,-1.63834 0.774986,-2.03587 -0.369947,-2.03587 -1.059144,0 -2.240299,1.32269 -2.240299,2.50874 0,1.25169 1.896073,0.9082 2.610246,-0.47287 z m 110.607967,-0.77296 c 0.736,-0.52498 1.51969,-1.34141 1.7414,-1.81426 0.22171,-0.47286 0.75321,-1.49474 1.18094,-2.27085 1.55412,-2.81971 0.79024,-9.37089 -1.51907,-13.02909 -2.17796,-3.45008 -4.48057,-5.25165 -8.5072,-6.65619 -5.49769,-1.91756 -6.03666,-1.98508 -6.33578,-0.79362 -0.13562,0.54018 0.0442,2.23769 0.4006,3.77223 0.76465,3.29739 0.90011,8.16093 0.26042,9.35611 -0.24929,0.46575 -0.45317,1.21742 -0.45317,1.67037 0,1.37837 -1.56784,2.10847 -3.44302,1.6033 -1.81194,-0.48812 -4.44019,-2.81013 -4.79904,-4.23995 -0.3555,-1.41664 -1.45294,-1.1615 -2.99624,0.69661 -1.87746,2.26053 -1.83723,2.88648 0.2176,3.38603 1.20075,0.29195 2.2476,1.00106 3.67448,2.48931 2.38626,2.48881 4.71676,3.73528 12.58746,6.73219 0.33264,0.12663 1.96539,0.19024 3.62846,0.14126 2.44417,-0.0719 3.28043,-0.27197 4.36216,-1.0435 z M 87.490219,140.37282 c 0.734592,-1.37261 0.199618,-1.84798 -2.856292,-2.53808 -3.755774,-0.84817 -4.01497,-0.83193 -4.011954,0.25135 0.0015,0.70948 0.507073,1.14183 2.318226,1.98427 2.849344,1.32535 3.962963,1.39937 4.55002,0.30246 z m 81.184091,-2.93771 c 4.03196,-4.44102 4.01489,-4.79099 -0.2595,-5.33528 -1.16692,-0.14857 -2.46215,-0.446 -2.87845,-0.66091 -1.24022,-0.64038 -1.52516,0.37527 -1.25332,4.46733 0.25981,3.91408 0.46278,4.90125 1.00753,4.90125 0.17722,0 1.6998,-1.51758 3.38374,-3.37239 z m 5.93549,-6.66732 c 0.3043,-0.42172 1.25134,-1.59597 2.10451,-2.60944 l 1.55122,-1.84268 -1.09942,-3.4531 c -0.60479,-1.89923 -0.98345,-3.5692 -0.84159,-3.71106 0.39756,-0.39756 1.36365,1.09163 2.08318,3.21092 0.35764,1.05329 0.79756,1.91506 0.97752,1.91506 0.46262,0 4.71507,-4.65287 5.92893,-6.48714 0.92739,-1.40136 0.97172,-1.66146 0.52266,-3.06567 -1.19282,-3.72961 -3.56583,-6.57401 -5.48429,-6.57401 -0.72152,0 -1.41743,0.17075 -1.54635,0.37946 -0.12952,0.20869 -1.0633,0.79338 -2.07632,1.29929 -1.01302,0.50593 -2.50573,1.49962 -3.31699,2.20822 -1.32952,1.16108 -1.42414,1.3729 -0.95756,2.14405 0.87116,1.4403 0.28419,1.64619 -3.9099,1.37134 -2.80119,-0.18358 -4.03242,-0.12342 -4.23661,0.20717 -0.15847,0.25626 -0.15893,3.45677 -9.9e-4,7.11225 l 0.28693,6.64632 1.45401,0.34433 c 0.79969,0.18938 2.54259,0.62541 3.87302,0.96896 3.27281,0.84509 4.03974,0.83457 4.68811,-0.0643 z m 12.70677,-1.0475 c 0.98254,-3.27169 0.32305,-11.68866 -0.89371,-11.40771 -0.71008,0.16396 -6.21098,6.8384 -6.21617,7.54217 0,0.80056 2.0105,4.18671 2.78185,4.67188 2.30702,1.45104 3.72979,1.18598 4.32803,-0.80634 z M 163.36876,128.41 c 0.15086,-0.69384 0.14781,-2.26509 -0.0168,-9.67611 l -0.0823,-3.72931 h -1.5599 c -1.48936,0 -1.57119,0.0684 -1.80981,1.51189 -0.33615,2.03387 -0.32807,11.99219 0.0152,12.33029 0.1478,0.14781 0.95191,0.26878 1.7871,0.26878 1.11862,0 1.55869,-0.1857 1.67191,-0.70554 z m -4.92856,-1.00794 c 0,-0.49891 0.11581,-3.62853 0.24472,-6.95469 l 0.23604,-6.04756 -3.77247,-1.18751 c -2.07494,-0.65314 -4.50463,-1.50165 -5.39926,-1.88558 -0.89462,-0.38395 -2.11838,-0.82152 -2.71952,-0.97238 l -1.09287,-0.27429 0.032,6.79634 c 0.0183,3.73799 0.12496,7.54271 0.23726,8.45491 l 0.20556,1.65855 4.0949,0.46494 c 2.25232,0.25571 4.73001,0.52352 5.50608,0.59514 0.77607,0.0716 1.63793,0.15926 1.9151,0.19474 0.27719,0.0355 0.50789,-0.34367 0.51277,-0.84261 z m 12.40536,-14.71572 c 1.96997,-1.64258 4.86716,-3.53114 7.78096,-5.0719 1.41591,-0.74868 2.03183,-0.88276 2.62063,-0.57046 1.47945,0.78468 3.07013,2.53303 4.04719,4.44811 0.56136,1.1003 1.44044,2.13786 2.04417,2.41296 1.00708,0.45883 1.16052,0.36436 3.11007,-1.91429 1.12791,-1.31833 4.04643,-4.49399 6.48557,-7.05704 2.43929,-2.56303 5.88383,-6.380199 7.65494,-8.482594 1.77096,-2.102395 4.29893,-4.865736 5.61762,-6.140756 l 2.39784,-2.31824 -4.20658,-0.0076 c -4.39143,-0.0076 -8.69768,-0.375784 -16.50347,-1.412253 -8.12975,-1.079487 -17.39,-2.190638 -17.67007,-2.120239 -0.14934,0.03748 -2.08516,-0.143541 -4.30259,-0.402145 -2.21758,-0.258633 -6.84397,-0.763771 -10.28089,-1.122519 -3.43707,-0.358747 -8.15687,-0.908211 -10.48829,-1.221016 -2.33155,-0.312805 -4.40025,-0.568757 -4.59713,-0.568757 -0.40716,0 -0.0152,12.370441 0.57797,17.9411 0.21014,1.995699 0.38537,4.936849 0.38934,6.535909 v 2.90736 l 1.91494,0.59737 c 1.05341,0.32854 3.77735,1.2427 6.05344,2.03147 5.72338,1.98341 5.57343,2.01895 5.85914,-1.38871 0.25433,-3.03342 0.5088,-3.78532 1.14803,-3.39031 0.25554,0.15796 0.30079,1.37058 0.1219,3.27705 -0.30369,3.24159 -0.0853,3.72351 1.68776,3.73625 0.96669,0.008 1.34308,-0.925 1.35175,-3.34648 0,-1.77561 0.65966,-3.23975 1.27557,-2.85904 0.39132,0.24183 0.20328,3.71781 -0.29484,5.448 -0.14476,0.5043 0.28341,0.73764 1.93903,1.05574 1.16905,0.22459 2.19745,0.43219 2.28553,0.46134 0.0884,0.0291 0.97584,-0.6274 1.97316,-1.45893 z m -26.77673,-10.48243 c -0.0991,-3.048978 -0.25265,-6.178593 -0.34057,-6.954708 -0.0884,-0.776098 -0.29105,-3.996425 -0.45135,-7.156273 -0.33645,-6.631144 -0.41676,-6.727127 -3.37231,-4.031702 -1.03334,0.942406 -2.76928,2.439184 -3.85762,3.326155 -1.08836,0.88697 -2.71096,2.253143 -3.60579,3.035947 -0.89485,0.782789 -2.4434,2.088605 -3.44127,2.901809 -3.30536,2.693733 -5.24121,4.616198 -5.24121,5.205023 0,0.959153 6.66617,4.451389 13.10306,6.864329 1.77394,0.66498 3.86034,1.45712 4.63641,1.76027 2.83472,1.10724 2.77209,1.22774 2.57065,-4.95085 z"
         style="fill:#000000;stroke-width:1" />
    </g>
  </g>
</svg>
